<?xml version="1.0" standalone="no"?>
<!DOCTYPE svg PUBLIC "-//W3C//DTD SVG 1.1//EN" "http://www.w3.org/Graphics/SVG/1.1/DTD/svg11.dtd" >
<svg>
<metadata>
Created by FontForge 20120731 at Fri Nov 22 14:13:27 2013
 By World Wide Web Server
Copyright (c) 2010 by Jonathan Hill. All rights reserved.
</metadata>
<defs>
<font id="Lintel-MediumItalic" horiz-adv-x="504" >
  <font-face 
    font-family="Lintel Medium Italic"
    font-weight="500"
    font-style="italic"
    font-stretch="normal"
    units-per-em="1000"
    panose-1="0 0 6 0 0 0 0 0 0 0"
    ascent="750"
    descent="-250"
    x-height="500.95"
    cap-height="700"
    bbox="-42.999 -224 1096.95 1041.42"
    underline-thickness="50"
    underline-position="-50"
    stemh="79"
    stemv="88"
    unicode-range="U+0020-FB02"
  />
<missing-glyph horiz-adv-x="500" 
d="M0 0v700h500v-700h-500zM250 395l170 255h-340zM280 350l170 -255v510zM80 50h340l-170 255zM50 605v-510l170 255z" />
    <glyph glyph-name="f_f" unicode="ff" horiz-adv-x="592" 
d="M443.61 501l7.85938 44.6318c22.2803 126.35 112.511 165.64 191.991 165.64c19.29 0 35.0596 -2.16016 50.0498 -5.00977l-6.4502 -67.8701c-7.67969 1.23047 -15.46 1.90039 -22.9502 1.90039c-8.83984 0 -17.25 -0.94043 -24.5703 -3
c-45.3896 -4.11035 -92.4199 -33.0801 -105.34 -104.71l-5.69043 -31.5801h122.89l-11.6504 -66.0303h-122.91l-109.61 -621.97h-84.8799l109.61 621.97h-205.92l-109.61 -621.97h-84.9199l129.16 732.63c22.2803 126.35 112.511 165.649 191.991 165.649
c19.2803 0 35.0498 -2.16016 50.04 -5.02051l-6.4502 -67.8701c-7.23047 1.16016 -14.5605 1.78027 -21.6406 1.78027c-10.0195 0 -19.5498 -1.24023 -27.6494 -3.94043c-44.5898 -4.36035 -90.96 -33.2207 -103.71 -104.28l-5.5498 -30.9502h205.91z" />
    <glyph glyph-name="f_f_i" unicode="ffi" horiz-adv-x="795" 
d="M443.94 501l7.87988 44.6328c20 113.43 101.38 165.819 200.12 165.819c80.1602 0 136.55 -26.2402 153.92 -32.9404l-7.67969 -58.0498s-53.8701 20.6699 -130.07 20.6699c-51.9902 0 -116.681 -18.1699 -133.831 -109.96l-5.44043 -30.1797h293.09l-88.3398 -501
h-84.8799l76.6904 434.97h-208.22l-109.61 -621.97h-84.8799l109.61 621.97h-206.26l-109.61 -621.97h-84.9199l129.16 732.64c22.2803 126.35 112.511 165.64 191.991 165.64c19.2803 0 35.0498 -2.16016 50.04 -5.00977l-6.4502 -67.8701
c-7.42969 1.17969 -14.9102 1.81934 -22.1104 1.81934c-9.53027 0 -18.5703 -1.12012 -26.3301 -3.57031c-45.21 -4.50977 -91.9902 -33.96 -104.86 -106.11l-5.25977 -29.5303h206.25z" />
    <glyph glyph-name="f_f_j" unicode="ffj" horiz-adv-x="795" 
d="M443.94 501l7.86133 44.6309c20.0098 113.44 101.38 165.83 200.12 165.83c80.1504 0 136.551 -26.2402 153.921 -32.9404l-7.67969 -58.0498s-53.8701 20.6699 -130.07 20.6699c-53.0703 0 -117.33 -19.04 -134 -111l-5.25 -29.1396h293.08l-97.4404 -553
c-14.4102 -81 -71.3604 -127 -145.011 -141c-15.3799 -2 -28.0303 -2 -41.1904 -2l4.7998 68c12.7598 1 24.2402 4 31.0605 8c46.0195 13 62.9297 53 69.0098 88l82.25 465.97h-208.23l-109.61 -621.97h-84.8799l109.61 621.97h-206.26l-109.61 -621.97h-84.9102
l129.16 732.63c22.2803 126.35 112.5 165.649 191.98 165.649c19.29 0 35.0596 -2.16016 50.0498 -5.02051l-6.4502 -67.8701c-7.28027 1.16016 -14.5303 1.75977 -21.4902 1.75977c-10.0703 0 -19.5303 -1.25 -27.5303 -3.88965
c-44.9805 -4.58984 -91.4004 -33.8496 -104.12 -104.939l-5.41016 -30.3203h206.24z" />
    <glyph glyph-name="f_f_l" unicode="ffl" horiz-adv-x="792" 
d="M443.96 501.06l7.87891 44.6406c20 113.43 101.38 165.819 200.12 165.819c125.36 0 195.53 -53.1396 195.53 -53.1396l-113.88 -658.31h-84.9004l111.87 619.44c-34.6602 14.75 -69.2197 21.6904 -105.29 21.6904c-42.6104 0 -105.28 -21.3096 -121.141 -110.27
l-5.2998 -29.8701h122.9l-11.6396 -66.0303h-122.91l-109.62 -622.03h-84.8799l109.62 622.03h-206.26l-109.62 -622.03h-84.9199l129.17 732.69c22.2803 126.35 112.511 165.649 191.971 165.649c19.2998 0 35.0596 -2.16016 50.0596 -5.02051l-6.45996 -67.8604
c-7.42969 1.17969 -14.8496 1.7998 -21.9697 1.7998c-9.36035 0 -18.1807 -1.07031 -25.7607 -3.33984c-45.6797 -4.5498 -92.6494 -34.1299 -105.459 -105.79l-5.36035 -30.0703h206.25z" />
    <glyph glyph-name="fi" unicode="fi" 
d="M31.5098 -187l129.169 732.63c20 113.44 101.38 165.83 200.12 165.83c80.1504 0 136.551 -26.2402 153.921 -32.9502l-7.67969 -58.04s-53.8799 20.6602 -130.08 20.6602c-53.25 0 -117.4 -19.1396 -134.061 -111.25l-5.19043 -28.8799h293.08l-88.3398 -501h-84.8799
l76.6904 434.97h-208.22l-109.61 -621.97h-84.9199z" />
    <glyph glyph-name="fl" unicode="fl" horiz-adv-x="501" 
d="M31.5098 -187l129.161 732.629c20 113.43 101.38 165.819 200.12 165.819c125.36 0 195.53 -53.1396 195.53 -53.1396l-113.88 -658.31h-84.9004l111.87 619.44c-34.6602 14.75 -69.2197 21.6904 -105.29 21.6904c-43.5303 0 -105.61 -22.2998 -121.44 -111.79
l-5 -28.3398h122.91l-11.6504 -66.0303h-122.9l-109.61 -621.97h-84.9199z" />
    <glyph glyph-name=".notdef" horiz-adv-x="500" 
d="M0 0v700h500v-700h-500zM250 395l170 255h-340zM280 350l170 -255v510zM80 50h340l-170 255zM50 605v-510l170 255z" />
    <glyph glyph-name="A" unicode="A" horiz-adv-x="613" 
d="M585.24 0h-91l-32.5898 220.35h-231.55l-110.87 -220.35h-92.7598l359.91 700h85.2998zM265.51 299.15h188.53l-42.5498 289.6z" />
    <glyph glyph-name="Aacute" unicode="&#xc1;" horiz-adv-x="613" 
d="M476.53 782.38h-60.5693l75.5195 119.17h85.3701zM585.241 -0h-90.9902l-32.5996 220.35h-231.54l-110.88 -220.35h-92.7598l359.92 700h85.29zM265.511 299.15h188.54l-42.5498 289.6z" />
    <glyph glyph-name="Abreve" unicode="&#x102;" horiz-adv-x="613" 
d="M563.14 905.66l41.4727 -6.14941c-13.6504 -77.46 -81.1904 -130.24 -156.431 -130.24c-72.2402 0 -122.54 47.21 -122.54 112.65c0 7.67969 0.700195 15.6201 2.12988 23.7598l40.9297 -6.15039c-5.65039 -48.9102 27.4297 -82.1699 76.9893 -82.1699
c54.4697 0 105.85 39.3896 117.449 88.2998zM585.232 0.000976562h-90.9902l-32.5996 220.35h-231.54l-110.88 -220.35h-92.7598l359.92 700h85.29zM265.502 299.151h188.54l-42.5498 289.6z" />
    <glyph glyph-name="Acaron" unicode="&#x1cd;" horiz-adv-x="613" 
d="M487.25 773.71h-81.5205l-102.89 139.52h71.0596l75.8398 -101.11l110.94 101.11h75.4902zM585.239 -0h-91l-32.5898 220.35h-231.55l-110.87 -220.35h-92.7598l359.91 700h85.2998zM265.509 299.15h188.53l-42.5498 289.6z" />
    <glyph glyph-name="Acircumflex" unicode="&#xc2;" horiz-adv-x="613" 
d="M609.88 771.41h-71.3096l-73.21 101.11l-113.59 -101.11h-75.21l152.09 139.52h81.5098zM585.25 0h-91l-32.5898 220.35h-231.55l-110.87 -220.35h-92.7598l359.91 700h85.2998zM265.52 299.15h188.53l-42.5498 289.6z" />
    <glyph glyph-name="Adieresis" unicode="&#xc4;" horiz-adv-x="613" 
d="M365.98 874.1c22.7197 0 38.7197 -16.6104 38.7197 -39.3604c0 -24.2598 -19.46 -45.1094 -43.0703 -45.1094c-23.6396 0 -40.3496 17.54 -40.3496 40.0801c0 25.3496 20.54 44.3896 44.7002 44.3896zM551.841 874.1c22.7197 0 38.7197 -16.6104 38.7197 -39.3604
c0 -24.2598 -19.46 -45.1094 -43.0703 -45.1094c-23.6396 0 -40.3496 17.54 -40.3496 40.0801c0 25.3496 20.54 44.3896 44.7002 44.3896zM585.23 -0h-90.9902l-32.5996 220.35h-231.54l-110.88 -220.35h-92.7598l359.92 700h85.29zM265.5 299.15h188.54l-42.5498 289.6z
" />
    <glyph glyph-name="Agrave" unicode="&#xc0;" horiz-adv-x="613" 
d="M490.89 781.96h-56.5703l-58.2998 119.16h81.3701zM585.239 -0h-91l-32.5898 220.35h-231.55l-110.87 -220.35h-92.7598l359.91 700h85.2998zM265.509 299.15h188.53l-42.5498 289.6z" />
    <glyph glyph-name="Amacron" unicode="&#x100;" horiz-adv-x="613" 
d="M570.29 808.78h-242.62l8.37988 47.5098h242.61zM585.24 0h-91l-32.5898 220.35h-231.55l-110.87 -220.35h-92.7598l359.91 700h85.2998zM265.51 299.15h188.53l-42.5498 289.6z" />
    <glyph glyph-name="Aogonek" unicode="&#x104;" horiz-adv-x="649" 
d="M585.33 0l-43.8691 -5.99902c-64.8096 -47 -80.2998 -81 -85.4102 -104c-1.08008 -5.03027 -1.58984 -9.61035 -1.58984 -13.7803c0 -23.1904 15.8398 -33.3809 37.4697 -34.2305c32.5596 0 59.9492 20 83.2988 47l35.75 -21c-35.0195 -45 -80.8193 -69 -130.72 -69
c-38.8496 0 -85.5 19.46 -85.5 73.71c0 6 0.570312 12.4297 1.79004 19.2998c3.62988 21 18.4102 61 95.9102 110.01l-30.8203 218.26h-231.54l-110.87 -220.27h-92.7598l359.9 699.92h85.2998zM265.501 299.071h188.54l-42.5498 289.6z" />
    <glyph glyph-name="Aring" unicode="&#xc5;" horiz-adv-x="613" 
d="M469.58 952.91c58.8896 0 102.93 -45.4199 102.93 -102.97c0 -67.8604 -65.71 -131.38 -133.28 -131.38c-59.4297 0 -102.89 46.6396 -102.89 103.439c0 68.5703 66.5303 130.91 133.24 130.91zM472.521 907.4c-46.7695 0 -92.3008 -40.8203 -92.3008 -89.7402
c0 -31.0996 22.6699 -54.1797 55.96 -54.1797c46.2305 0 91.8408 42.1504 91.8408 90.4004c0 31.0996 -22.6396 53.5195 -55.5 53.5195zM585.229 -0.0205078h-90.9902l-32.5996 220.35h-231.54l-110.88 -220.35h-92.7598l359.92 700h85.29zM265.499 299.13h188.54
l-42.5498 289.6z" />
    <glyph glyph-name="Atilde" unicode="&#xc3;" horiz-adv-x="613" 
d="M312.26 797.25l-24.8408 40.6807c23.8604 21.2598 71.6504 58.2998 111.71 58.2998c52.9697 0 79.4502 -40.75 119.73 -40.75c31.1396 0 66.9697 25.1504 81.5801 38.9307l24.46 -41.2305c-18.7197 -14.9404 -64.6699 -49.7002 -101.86 -49.7002
c-52.9697 0 -81.21 39.5996 -123.46 39.5996c-31.5498 0 -68.3496 -26.8799 -87.3193 -45.8301zM585.229 0.000976562h-90.9902l-32.5996 220.35h-231.54l-110.88 -220.35h-92.7598l359.92 700h85.29zM265.498 299.151h188.54l-42.5498 289.6z" />
    <glyph glyph-name="AE" unicode="&#xc6;" horiz-adv-x="777" 
d="M842.62 621.2l-348.129 -0.000976562l-37.6699 -232.26h314.95l-13.9004 -78.7998h-310.21l-37.5303 -231.34h337.73l-13.9004 -78.7998h-416.87l34.79 220.35h-121.78l-110.87 -220.35h-92.7598l359.91 700h470.14zM265.511 299.14h95.5898l43.8398 278.12z" />
    <glyph glyph-name="B" unicode="B" horiz-adv-x="604" 
d="M205.03 700.03l268.92 0.0107422c102.19 0 155.551 -66.1797 155.551 -149.63c0 -11.9697 -1.09961 -24.3096 -3.30957 -36.8496c-14 -79.4404 -51.7002 -135.011 -115.23 -164.44c50.6699 -20.3096 77.9395 -69.04 77.9395 -128.04
c0 -11.7305 -1.08008 -23.8604 -3.27051 -36.2607c-21.1396 -119.92 -96.7393 -184.82 -213.64 -184.82h-290.4zM238.67 389.811l162.47 -0.00195312c74.2305 0 122.28 41.46 136.2 120.4c1.38965 7.91016 2.08984 15.6406 2.08984 23.1006
c0 49.9502 -31.3398 87.8506 -95.2998 87.8506h-164.67zM224.5 309.898l-40.791 -231.352h179.82c74.2305 0 122.28 41.46 136.2 120.4c1.40039 7.91992 2.10059 15.6504 2.10059 23.1104c0 49.9404 -31.3496 87.8408 -95.2998 87.8408h-182.03z" />
    <glyph glyph-name="C" unicode="C" horiz-adv-x="563" 
d="M106.62 231.22l43.9209 249.119c27.9697 158.66 140.91 235.63 280.521 235.63c107.04 0 172.32 -49.25 193.45 -123.55l-68.0898 -25.2695c-17.0195 47.0596 -61.8799 69.8496 -121.33 69.8496c-97.2305 0 -178.391 -55.1396 -197.381 -162.83l-43.9297 -249.11
c-2.4502 -13.9297 -3.64062 -26.8896 -3.64062 -38.8896c0 -80.6699 53.5 -118.12 132.8 -118.12c65.3096 0 123.229 28.6699 156.539 75.9902l60.8398 -36.8799c-46.9297 -74.2998 -124.84 -118.16 -226.399 -118.16c-127.33 0 -212.38 64.3701 -212.38 187.37
c0 17.1504 1.65039 35.4404 5.08008 54.8506z" />
    <glyph glyph-name="Cacute" unicode="&#x106;" horiz-adv-x="563" 
d="M449.27 782.38h-60.5693l75.5195 119.17h85.3799zM106.62 231.22l43.9209 249.118c27.9697 158.65 140.91 235.62 280.521 235.62c107.04 0 172.32 -49.25 193.45 -123.55l-68.0898 -25.2695c-17.0195 47.0703 -61.8799 69.8506 -121.33 69.8506
c-97.2305 0 -178.391 -55.1396 -197.381 -162.83l-43.9297 -249.11c-2.4502 -13.9297 -3.64062 -26.8799 -3.64062 -38.8799c0 -80.6797 53.5 -118.13 132.8 -118.13c65.3096 0 123.229 28.6699 156.539 75.9902l60.8398 -36.8701
c-46.9297 -74.2998 -124.84 -118.16 -226.399 -118.16c-127.33 0 -212.38 64.3604 -212.38 187.36c0 17.1504 1.65039 35.4404 5.08008 54.8604z" />
    <glyph glyph-name="Ccaron" unicode="&#x10c;" horiz-adv-x="563" 
d="M459.1 773.71h-81.5303l-102.88 139.52h71.0498l75.8398 -101.11l110.95 101.11h75.4902zM106.619 231.22l43.9209 249.118c27.9697 158.65 140.91 235.62 280.521 235.62c107.04 0 172.32 -49.25 193.45 -123.55l-68.0898 -25.2695
c-17.0195 47.0703 -61.8799 69.8506 -121.33 69.8506c-97.2305 0 -178.391 -55.1396 -197.381 -162.83l-43.9297 -249.11c-2.4502 -13.9297 -3.64062 -26.8799 -3.64062 -38.8799c0 -80.6797 53.5 -118.13 132.8 -118.13c65.3096 0 123.229 28.6699 156.539 75.9902
l60.8398 -36.8701c-46.9297 -74.2998 -124.84 -118.16 -226.399 -118.16c-127.33 0 -212.38 64.3604 -212.38 187.36c0 17.1504 1.65039 35.4404 5.08008 54.8604z" />
    <glyph glyph-name="Ccedilla" unicode="&#xc7;" horiz-adv-x="563" 
d="M106.62 231.22l43.9316 249.109c27.9697 158.66 140.91 235.63 280.521 235.63c107.04 0 172.32 -49.25 193.45 -123.55l-68.0898 -25.2695c-17.0195 47.0596 -61.8799 69.8496 -121.33 69.8496c-97.2305 0 -178.391 -55.1396 -197.381 -162.83l-43.9297 -249.11
c-2.4502 -13.9297 -3.64062 -26.8896 -3.64062 -38.8896c0 -80.6699 53.5 -118.12 132.8 -118.12c65.3096 0 123.229 28.6699 156.539 75.9902l60.8398 -36.8799c-42.7002 -65.3096 -109 -106.04 -194.71 -115.16c-17.9502 -1 -33.5205 -2 -48.4502 -1l-40.1104 -38
c14.8096 5 30.96 5 43.6602 4c41.9805 -1.76953 76.5703 -22.4795 76.5703 -67.7295c0 -5.69043 -0.549805 -11.7803 -1.7002 -18.2607c-12.5 -71 -80.2197 -90 -140.359 -90c-42.7998 0 -79.1396 15 -107.51 26l18.9502 37c26.1797 -15 56.8301 -20 78.6504 -23
c42.1201 0 85.6504 20 92.6406 60c0.509766 2.90039 0.759766 5.65039 0.759766 8.23047c0 20.5098 -15.8701 30.7695 -41.5205 30.7695c-19.4502 0 -41.6406 -5 -73.3604 -19l-17.5303 19l68.3896 75c-92.9502 16.3604 -153.141 78.1602 -153.141 181.561
c0 17.0898 1.65039 35.3203 5.06055 54.6602z" />
    <glyph glyph-name="Cdotaccent" unicode="&#x10a;" horiz-adv-x="563" 
d="M445.62 874.05c22.7197 0 38.7197 -16.6104 38.7197 -39.3604c0 -24.2598 -19.46 -45.1094 -43.0703 -45.1094c-23.6396 0 -40.3496 17.54 -40.3496 40.0801c0 25.3496 20.54 44.3896 44.7002 44.3896zM106.61 231.22l43.9209 249.118
c27.9805 158.65 140.921 235.62 280.521 235.62c107.05 0 172.33 -49.25 193.46 -123.55l-68.0898 -25.2695c-17.0303 47.0703 -61.8906 69.8506 -121.341 69.8506c-97.2305 0 -178.391 -55.1396 -197.381 -162.83l-43.9199 -249.11
c-2.45996 -13.9297 -3.63965 -26.8799 -3.63965 -38.8799c0 -80.6797 53.4902 -118.13 132.8 -118.13c65.2998 0 123.229 28.6699 156.529 75.9902l60.8496 -36.8701c-46.9297 -74.2998 -124.85 -118.16 -226.399 -118.16c-127.34 0 -212.39 64.3604 -212.39 187.36
c0 17.1504 1.66016 35.4404 5.08008 54.8604z" />
    <glyph glyph-name="D" unicode="D" horiz-adv-x="631" 
d="M205.02 700l233.761 0.000976562c142.61 0 211.971 -80.8203 211.971 -190.23c0 -16.3096 -1.54004 -33.25 -4.61035 -50.6602l-43.9102 -249.03c-28.9004 -163.89 -145.271 -210.08 -263.141 -210.08h-257.5zM279.38 621.201l-95.6504 -542.4h163.76
c83.1504 0 148.96 31.9004 167.57 137.45l43.9102 249.03c2.54004 14.4297 3.83984 28.04 3.83984 40.75c0 72.0703 -41.5996 115.17 -132.439 115.17h-150.99z" />
    <glyph glyph-name="Eth" unicode="&#xd0;" horiz-adv-x="650" 
d="M223.68 700l233.76 0.00195312c142.61 0 211.971 -80.8203 211.971 -190.23c0 -16.3096 -1.54004 -33.25 -4.61035 -50.6602l-43.9102 -249.03c-28.9004 -163.89 -145.28 -210.08 -263.15 -210.08h-257.5l54.6797 310.1h-90.25l13.9004 78.7998h90.25zM298.029 621.202
l-40.96 -232.301h148.38l-13.9004 -78.7998h-148.37l-40.79 -231.3h163.76c83.1504 0 148.95 31.9004 167.561 137.45l43.9102 249.03c2.5498 14.4297 3.83984 28.04 3.83984 40.75c0 72.0801 -41.5996 115.17 -132.43 115.17h-151z" />
    <glyph glyph-name="Dcaron" unicode="&#x10e;" horiz-adv-x="631" 
d="M495.69 773.71h-81.5303l-102.88 139.52h71.0498l75.8398 -101.11l110.95 101.11h75.4902zM205.021 700l233.761 0.000976562c142.61 0 211.971 -80.8203 211.971 -190.23c0 -16.3096 -1.54004 -33.25 -4.61035 -50.6602l-43.9102 -249.03
c-28.9004 -163.89 -145.28 -210.08 -263.15 -210.08h-257.49zM279.371 621.201l-95.6406 -542.4h163.75c83.1602 0 148.96 31.9004 167.57 137.45l43.9102 249.03c2.5498 14.4297 3.83984 28.04 3.83984 40.75c0 72.0703 -41.5996 115.17 -132.43 115.17h-151z" />
    <glyph glyph-name="Dcroat" unicode="&#x110;" horiz-adv-x="645" 
d="M221.65 700l233.771 0.0107422c142.61 0 211.971 -80.8203 211.971 -190.23c0 -16.3096 -1.54004 -33.2598 -4.61035 -50.6602l-43.9102 -249.03c-28.9004 -163.89 -145.28 -210.09 -263.16 -210.09h-257.49l57.4697 325.96h-86.0898l8.37988 47.5098h86.0996z
M296.021 621.211l-43.6904 -247.74h152.63l-8.37988 -47.5098h-152.63l-43.5801 -247.16h163.76c83.1504 0 148.96 31.9102 167.57 137.46l43.9102 249.03c2.54004 14.4297 3.83984 28.04 3.83984 40.75c0 72.0703 -41.5996 115.17 -132.439 115.17h-150.99z" />
    <glyph glyph-name="E" unicode="E" horiz-adv-x="567" 
d="M628.63 621.2l-349.249 -0.000976562l-40.9502 -232.26h322.79l-13.8896 -78.7998h-322.8l-40.79 -231.34h354.73l-13.9004 -78.7998h-442.98l123.43 700h437.51z" />
    <glyph glyph-name="Eacute" unicode="&#xc9;" horiz-adv-x="567" 
d="M463.17 782.38h-60.5801l75.5303 119.17h85.3701zM628.63 621.2l-349.249 -0.000976562l-40.9502 -232.26h322.79l-13.8896 -78.7998h-322.8l-40.79 -231.34h354.73l-13.9004 -78.7998h-442.98l123.43 700h437.51z" />
    <glyph glyph-name="Ecaron" unicode="&#x11a;" horiz-adv-x="567" 
d="M454.95 773.71h-81.5303l-102.88 139.52h71.0498l75.8398 -101.11l110.95 101.11h75.4902zM628.63 621.2l-349.249 0.00878906l-40.9502 -232.26h322.79l-13.8896 -78.7998h-322.8l-40.79 -231.35h354.73l-13.9004 -78.7998h-442.98l123.43 700h437.51z" />
    <glyph glyph-name="Ecircumflex" unicode="&#xca;" horiz-adv-x="567" 
d="M577.57 771.41h-71.3096l-73.21 101.11l-113.59 -101.11h-75.21l152.09 139.52h81.5195zM628.641 621.2l-349.249 -0.000976562l-40.96 -232.26h322.8l-13.9004 -78.7998h-322.79l-40.79 -231.34h354.72l-13.8896 -78.7998h-442.98l123.43 700h437.5z" />
    <glyph glyph-name="Edieresis" unicode="&#xcb;" horiz-adv-x="567" 
d="M333.68 874.1c22.7197 0 38.7109 -16.6104 38.7109 -39.3604c0 -24.2598 -19.4502 -45.1094 -43.0605 -45.1094c-23.6504 0 -40.3506 17.54 -40.3506 40.0801c0 25.3496 20.54 44.3896 44.7002 44.3896zM519.541 874.1c22.7197 0 38.7109 -16.6104 38.7109 -39.3604
c0 -24.2598 -19.4502 -45.1094 -43.0605 -45.1094c-23.6504 0 -40.3506 17.54 -40.3506 40.0801c0 25.3496 20.54 44.3896 44.7002 44.3896zM628.632 621.199l-349.249 -0.000976562l-40.96 -232.26h322.8l-13.9004 -78.7998h-322.79l-40.79 -231.34h354.72
l-13.8896 -78.7998h-442.98l123.43 700h437.5z" />
    <glyph glyph-name="Edotaccent" unicode="&#x116;" horiz-adv-x="567" 
d="M432.18 873.88c22.7197 0 38.7197 -16.6104 38.7197 -39.3604c0 -24.2598 -19.46 -45.1094 -43.0703 -45.1094c-23.6396 0 -40.3496 17.5303 -40.3496 40.0801c0 25.3496 20.54 44.3896 44.7002 44.3896zM628.63 621.2l-349.249 -0.000976562l-40.96 -232.26h322.8
l-13.9004 -78.7998h-322.79l-40.79 -231.34h354.72l-13.8896 -78.7998h-442.98l123.43 700h437.5z" />
    <glyph glyph-name="Egrave" unicode="&#xc8;" horiz-adv-x="567" 
d="M493.52 781.96h-56.5605l-58.2998 119.16h81.3604zM628.629 621.2l-349.249 -0.000976562l-40.9502 -232.26h322.79l-13.8896 -78.7998h-322.8l-40.79 -231.34h354.73l-13.9004 -78.7998h-442.98l123.43 700h437.51z" />
    <glyph glyph-name="Emacron" unicode="&#x112;" horiz-adv-x="567" 
d="M566.83 808.78h-242.62l8.37988 47.5098h242.62zM628.46 621.2l-349.249 -0.000976562l-40.9502 -232.26h322.79l-13.8896 -78.7998h-322.8l-40.79 -231.34h354.73l-13.9004 -78.7998h-442.98l123.43 700h437.51z" />
    <glyph glyph-name="Eogonek" unicode="&#x118;" horiz-adv-x="592" 
d="M628.5 621.27h-348.942l-40.9102 -232h322.51l-13.8896 -78.79h-322.51l-40.75 -231.09h354.41l-13.8896 -78.79l-87.3799 -2.59961c-20.2803 -18.4902 -97.3105 -68.9102 -97.3105 -124.59c0 -23.9199 17.0303 -33.4502 39.7607 -33.4502
c31.4502 0 58.1504 19.71 80.9102 47.04l35.6904 -21c-35.0898 -46 -80.7803 -69 -130.57 -69c-38.8203 0 -85.5 18.6504 -85.5 72.75c0 5.96973 0.570312 12.3799 1.78027 19.25c8.07031 46 68.9004 94 95.1504 111.6h-295.18l123.33 699.46h437.18z" />
    <glyph glyph-name="F" unicode="F" horiz-adv-x="553" 
d="M620.61 621.2l-341.221 -0.000976562l-40.96 -232.26h309.3l-13.9004 -78.7998h-309.3l-54.6797 -310.14h-88.2598l123.43 700h429.48z" />
    <glyph glyph-name="G" unicode="G" horiz-adv-x="629" 
d="M104.54 219.44l46.001 260.891c27.9805 158.65 139.511 235.62 282.241 235.62c109.51 0 174.939 -49.0195 196.189 -123.029l-73.1201 -26.1104c-19.75 48.3301 -56.9199 70.25 -123.86 70.25c-102.36 0 -174.58 -51.1699 -194.28 -162.9l-46 -260.89
c-2.26953 -12.8799 -3.33984 -24.7197 -3.33984 -35.5898c0 -83.1104 62.5898 -109.38 129.3 -109.38c81.6201 0 165.08 39.5195 184.76 151.14l14.8799 84.4004h-123.67l13.2197 74.9697h211.93l-66.79 -378.82h-66.3799l12.0898 75.2998
c-48.4902 -62.7803 -125 -86.2998 -192.36 -86.2998c-102.59 0 -205.29 53.8096 -205.29 181.869c0 15.1396 1.44043 31.3301 4.48047 48.5801z" />
    <glyph glyph-name="Gbreve" unicode="&#x11e;" horiz-adv-x="629" 
d="M570.85 905.66l41.4824 -6.14941c-13.6602 -77.46 -81.2002 -130.24 -156.44 -130.24c-72.2402 0 -122.54 47.21 -122.54 112.65c0 7.67969 0.700195 15.6201 2.12988 23.7598l40.9297 -6.15039c-5.65039 -48.9102 27.4297 -82.1699 76.9893 -82.1699
c54.4697 0 105.85 39.3896 117.449 88.2998zM104.552 219.44l46.001 260.891c27.9697 158.65 139.51 235.62 282.24 235.62c109.5 0 174.94 -49.0195 196.19 -123.029l-73.1299 -26.1104c-19.7402 48.3301 -56.9199 70.25 -123.85 70.25
c-102.37 0 -174.58 -51.1699 -194.29 -162.9l-46 -260.89c-2.26953 -12.8799 -3.33984 -24.7197 -3.33984 -35.5898c0 -83.1104 62.5898 -109.38 129.3 -109.38c81.6299 0 165.09 39.5195 184.77 151.14l14.8799 84.4004h-123.67l13.2197 74.9697h211.93l-66.7998 -378.82
h-66.3701l12.0898 75.2998c-48.4902 -62.7803 -125 -86.2998 -192.37 -86.2998c-102.58 0 -205.28 53.8096 -205.28 181.869c0 15.1396 1.42969 31.3301 4.47949 48.5801z" />
    <glyph glyph-name="Gcommaaccent" unicode="&#x122;" horiz-adv-x="629" 
d="M104.54 219.44l46.001 260.891c27.9805 158.65 139.511 235.62 282.241 235.62c109.51 0 174.939 -49.0195 196.189 -123.029l-73.1201 -26.1104c-19.75 48.3301 -56.9199 70.25 -123.86 70.25c-102.36 0 -174.58 -51.1699 -194.28 -162.9l-46 -260.89
c-2.26953 -12.8799 -3.33984 -24.7197 -3.33984 -35.5898c0 -83.1104 62.5898 -109.38 129.3 -109.38c81.6201 0 165.08 39.5195 184.76 151.14l14.8799 84.4004h-123.67l13.2197 74.9697h211.93l-66.79 -378.82h-66.3799l12.0898 75.2998
c-48.4902 -62.7803 -125 -86.2998 -192.36 -86.2998c-102.59 0 -205.29 53.8096 -205.29 181.869c0 15.1396 1.44043 31.3301 4.48047 48.5801zM229.091 -205.999l31.0498 55c-5.95996 5.87988 -10.9404 14.5801 -10.9404 24.9297
c0 18.9502 16.1504 34.0703 33.6602 34.0703c21.0801 0 35.9199 -19 32.1699 -40c-0.410156 -2 -1.87988 -7 -4.2998 -12l-42.2998 -62h-39.3398z" />
    <glyph glyph-name="Gdotaccent" unicode="&#x120;" horiz-adv-x="629" 
d="M453.05 876.57c22.7197 0 38.7109 -16.6104 38.7109 -39.3604c0 -24.2598 -19.4502 -45.1094 -43.0605 -45.1094c-23.6504 0 -40.3506 17.54 -40.3506 40.0801c0 25.3496 20.54 44.3896 44.7002 44.3896zM104.541 219.44l46.001 260.878
c27.9697 158.66 139.51 235.63 282.24 235.63c109.5 0 174.94 -49.0195 196.19 -123.039l-73.1299 -26.0996c-19.7402 48.3203 -56.9199 70.2402 -123.85 70.2402c-102.37 0 -174.58 -51.1602 -194.29 -162.9l-46 -260.88
c-2.26953 -12.8799 -3.33984 -24.7197 -3.33984 -35.5898c0 -83.1201 62.5898 -109.39 129.3 -109.39c81.6299 0 165.09 39.5303 184.77 151.141l14.8799 84.4102h-123.67l13.2197 74.9697h211.93l-66.7998 -378.82h-66.3701l12.0898 75.29
c-48.4902 -62.7695 -125 -86.2891 -192.37 -86.2891c-102.58 0 -205.28 53.7998 -205.28 181.859c0 15.1504 1.42969 31.3301 4.47949 48.5898z" />
    <glyph glyph-name="H" unicode="H" horiz-adv-x="652" 
d="M570.3 0h-88.2607l54.6904 310.14h-312.2l-54.6797 -310.14h-88.2598l123.43 700h88.2598l-54.8496 -311.06h312.19l54.8496 311.06h88.2598z" />
    <glyph glyph-name="Hbar" unicode="&#x126;" horiz-adv-x="687" 
d="M685.99 557.57h63.6006l-8.38965 -47.5703h-63.5898l-89.9297 -510h-88.25l54.6797 310.15h-312.19l-54.6904 -310.15h-88.2598l89.9297 510h-63.46l8.38965 47.5703h63.46l25.1104 142.43h88.2598l-25.1104 -142.43h312.19l25.1104 142.43h88.2598zM277.161 510
l-21.3496 -121.05h312.19l21.3496 121.05h-312.19z" />
    <glyph glyph-name="I" unicode="I" horiz-adv-x="251" 
d="M169.85 0h-88.2598l123.43 700h88.2598z" />
    <glyph glyph-name="IJ" unicode="&#x132;" horiz-adv-x="598" 
d="M169.85 0h-88.2598l123.43 700h88.2598zM671.76 699.51l-86.7197 -491.73c-25.4199 -144.17 -127.63 -215.99 -258.64 -215.99c-13.2598 0 -26.8096 0.740234 -40.5996 2.20996l8.20996 77.1504c8.87988 -0.870117 17.6797 -1.32031 26.3496 -1.32031
c86.2598 0 159.84 43.8203 177.52 144.11l85.6201 485.57h88.2598z" />
    <glyph glyph-name="Iacute" unicode="&#xcd;" horiz-adv-x="251" 
d="M278.32 782.38h-60.5801l75.5303 119.17h85.3701zM169.851 -0h-88.2598l123.43 700h88.2598z" />
    <glyph glyph-name="Icaron" unicode="&#x1cf;" horiz-adv-x="251" 
d="M306.25 773.71h-81.5303l-102.91 139.52h71.3301l75.5898 -101.11l110.95 101.11h75.4902zM169.85 -0h-88.2598l123.43 700h88.2598z" />
    <glyph glyph-name="Icircumflex" unicode="&#xce;" horiz-adv-x="251" 
d="M428.87 771.41h-71.3096l-73.21 101.11l-113.34 -101.11h-75.4297l152.06 139.52h81.5195zM169.851 0h-88.25l123.43 700h88.25z" />
    <glyph glyph-name="Idieresis" unicode="&#xcf;" horiz-adv-x="251" 
d="M184.97 874.1c22.7197 0 38.7207 -16.6104 38.7207 -39.3604c0 -24.2695 -19.4502 -45.1094 -43.0605 -45.1094c-23.8301 0 -40.5498 17.5303 -40.5498 40.0801c0 25.3496 20.5098 44.3896 44.8896 44.3896zM370.841 874.1c22.7197 0 38.7109 -16.6104 38.7109 -39.3604
c0 -24.2695 -19.4502 -45.1094 -43.0605 -45.1094c-23.6504 0 -40.3506 17.5303 -40.3506 40.0801c0 25.3398 20.54 44.3896 44.7002 44.3896zM169.842 -0.0107422h-88.25l123.43 700h88.25z" />
    <glyph glyph-name="Idotaccent" unicode="&#x130;" horiz-adv-x="251" 
d="M276.27 876.72c22.7197 0 38.7197 -16.6006 38.7197 -39.3506c0 -24.2598 -19.46 -45.1094 -43.0703 -45.1094c-23.6396 0 -40.3496 17.5303 -40.3496 40.0801c0 25.3398 20.54 44.3799 44.7002 44.3799zM169.84 0.00976562h-88.25l123.43 700h88.25z" />
    <glyph glyph-name="Igrave" unicode="&#xcc;" horiz-adv-x="251" 
d="M320.23 781.96h-56.5703l-58.2998 119.16h81.3701zM169.851 -0h-88.2598l123.43 700h88.2598z" />
    <glyph glyph-name="Imacron" unicode="&#x12a;" horiz-adv-x="251" 
d="M390.56 816.02h-242.62l8.37988 47.5098h242.61zM169.84 -0h-88.25l123.43 700h88.25z" />
    <glyph glyph-name="Iogonek" unicode="&#x12e;" horiz-adv-x="251" 
d="M293.26 700l-121.96 -702.002c-70.3604 -50 -87.1602 -85 -92.3701 -109c-1.0498 -4.98047 -1.5498 -9.53027 -1.5498 -13.6699c0 -23.2598 15.79 -33.4795 37.4297 -34.3291c32.5596 0 59.9492 19 83.2793 47l35.6904 -21c-35 -46 -80.71 -69 -130.64 -69
c-38.75 0 -85.4502 19.3604 -85.4502 73.3008c0 6.11035 0.599609 12.6699 1.87988 19.7002c3.5 20 19.7305 61 90.5703 107l-28.6396 2l123.52 700h88.2402z" />
    <glyph glyph-name="J" unicode="J" horiz-adv-x="347" 
d="M420.63 699.51l-86.7197 -491.73c-25.4199 -144.17 -127.63 -215.99 -258.64 -215.99c-13.2598 0 -26.8096 0.740234 -40.5996 2.20996l8.20996 77.1504c8.87988 -0.870117 17.6797 -1.32031 26.3496 -1.32031c86.2598 0 159.84 43.8203 177.52 144.11l85.6201 485.57
h88.2598z" />
    <glyph glyph-name="K" unicode="K" horiz-adv-x="605" 
d="M369.45 405.92l207.631 -405.92h-104.88l-168.69 336.69l-88.5898 -86.96l-45.0801 -249.73h-88.25l123.43 700h88.2803l-57.0801 -317.73l313.51 317.73h113.12z" />
    <glyph glyph-name="Kcommaaccent" unicode="&#x136;" horiz-adv-x="605" 
d="M369.45 405.91l207.63 -405.921h-104.88l-168.68 336.7l-88.5898 -86.9697l-45.0801 -249.72h-88.2598l123.43 700h88.2803l-57.0703 -317.73l313.5 317.73h113.12zM221.86 -206.011l31.04 55c-5.95996 5.87988 -10.9404 14.5898 -10.9404 24.9297
c0 18.9502 16.1602 34.0703 33.6602 34.0703c21.0801 0 35.9297 -19 32.1699 -40c-0.410156 -2 -1.87988 -7 -4.29004 -12l-42.2998 -62h-39.3398z" />
    <glyph glyph-name="L" unicode="L" horiz-adv-x="482" 
d="M183.74 78.7998h283.091l-13.9004 -78.7998h-371.34l123.43 700h88.2598z" />
    <glyph glyph-name="Lacute" unicode="&#x139;" horiz-adv-x="482" 
d="M301.81 782.38h-60.5801l75.5303 119.17h85.3701zM183.739 78.79h283.091l-13.9004 -78.7998h-371.34l123.43 700h88.2598z" />
    <glyph glyph-name="Lcaron" unicode="&#x13d;" horiz-adv-x="482" 
d="M413.44 623.6l41.3203 76.5195c-8.19043 7.33008 -14.4209 18.9697 -14.4209 33.2793c0 27.46 24.8896 51.9199 51.9297 51.9199c26.3604 0 45.6104 -20.3398 45.6104 -45.9697c0 -3.01953 -0.259766 -6.10938 -0.819336 -9.24902
c-0.889648 -5.08008 -3.29004 -12.6201 -7.20996 -19.4404l-58.7197 -87.0596h-57.6904zM183.741 78.7891h283.08l-13.8896 -78.7998h-371.34l123.43 700h88.25z" />
    <glyph glyph-name="Lcommaaccent" unicode="&#x13b;" horiz-adv-x="482" 
d="M183.74 78.7998h283.091l-13.9004 -78.7998h-371.34l123.43 700h88.2598zM180.821 -206l31.04 55c-5.95996 5.87988 -10.9404 14.5801 -10.9404 24.9297c0 18.9502 16.1504 34.0703 33.6602 34.0703c21.0801 0 35.9199 -19 32.1699 -40
c-0.410156 -2 -1.87988 -7 -4.2998 -12l-42.2998 -62h-39.3301z" />
    <glyph glyph-name="Ldot" unicode="&#x13f;" horiz-adv-x="482" 
d="M183.74 78.7998h283.091l-13.9004 -78.7998h-371.34l123.43 700h88.2598zM404.391 442.79c26.3604 0 45.6201 -20.3389 45.6201 -45.9688c0 -27.6699 -24.9004 -52.1104 -51.9404 -52.1104c-26.3799 0 -45.71 20.3398 -45.71 45.9795
c0 27.6396 24.9902 52.0996 52.0303 52.0996z" />
    <glyph glyph-name="Lslash" unicode="&#x141;" horiz-adv-x="535" 
d="M296.11 417.86l139.371 58.4795l21.3799 -69.79l-174.83 -73.3799l-45.2695 -254.37h283.08l-13.8896 -78.7998h-371.35l52.2598 293.87l-102.07 -42.7803l-17.54 70.9004l133.56 55.8799l57.2197 322.13h88.2695z" />
    <glyph glyph-name="M" unicode="M" horiz-adv-x="748" 
d="M669.23 0h-87.3613l88.4102 496.3l-256 -456.71h-65.25l-93.7998 456.71l-88.4199 -496.3h-87.3398l123.43 700h88.2402l111.4 -529.96l300.08 529.96h90.04z" />
    <glyph glyph-name="N" unicode="N" horiz-adv-x="633" 
d="M556.65 0h-91.0605l-207.51 522.97l-93.2305 -522.97h-88.2598l123.43 700h86.8301l210.19 -531.75l94.7803 531.75h88.2598z" />
    <glyph glyph-name="Nacute" unicode="&#x143;" horiz-adv-x="633" 
d="M470.37 779.83h-60.5693l75.5195 119.17h85.3799zM556.641 0h-91.0508l-207.51 522.97l-93.2402 -522.97h-88.25l123.43 700h86.8203l210.19 -531.75l94.79 531.75h88.25z" />
    <glyph glyph-name="Ncaron" unicode="&#x147;" horiz-adv-x="633" 
d="M494.74 773.71h-81.5303l-102.88 139.52h71.0498l75.8398 -101.11l110.95 101.11h75.4902zM556.64 -0h-91.0508l-207.51 522.97l-93.2402 -522.97h-88.25l123.43 700h86.8203l210.19 -531.75l94.79 531.75h88.25z" />
    <glyph glyph-name="Ncommaaccent" unicode="&#x145;" horiz-adv-x="633" 
d="M556.65 0h-91.0605l-207.51 522.97l-93.2305 -522.97h-88.2598l123.43 700h86.8301l210.19 -531.75l94.7803 531.75h88.2598zM230.37 -206l31.04 55c-5.95996 5.87988 -10.9404 14.5801 -10.9404 24.9297c0 18.9502 16.1504 34.0703 33.6602 34.0703
c21.0801 0 35.9199 -19 32.1699 -40c-0.410156 -2 -1.87988 -7 -4.2998 -12l-42.2998 -62h-39.3301z" />
    <glyph glyph-name="Eng" unicode="&#x14a;" horiz-adv-x="633" 
d="M680.07 700l-134.62 -764c-13.5 -76 -66.46 -115 -126.89 -132c-19.3799 -6 -37.96 -10 -59.3096 -11l4.79004 68c19.3701 2 35.7598 8 46.0098 16c29.3096 13 44.3896 41 49.3301 63l9.88965 48l-211.19 534.97l-93.2402 -522.97h-88.25l123.43 700h86.8203
l210.19 -531.76l94.79 531.76h88.25z" />
    <glyph glyph-name="Ntilde" unicode="&#xd1;" horiz-adv-x="633" 
d="M319.75 797.25l-24.8408 40.6807c23.8604 21.2598 71.6504 58.2998 111.71 58.2998c52.9697 0 79.4502 -40.75 119.73 -40.75c31.1396 0 66.9697 25.1504 81.5801 38.9307l24.46 -41.2305c-18.7197 -14.9404 -64.6699 -49.7002 -101.86 -49.7002
c-52.9697 0 -81.21 39.5996 -123.46 39.5996c-31.5498 0 -68.3496 -26.8799 -87.3193 -45.8301zM556.64 0.000976562h-91.0508l-207.51 522.97l-93.2402 -522.97h-88.25l123.43 700h86.8203l210.19 -531.75l94.79 531.75h88.25z" />
    <glyph glyph-name="O" unicode="O" horiz-adv-x="620" 
d="M104.36 218.42l45.999 260.891c27.9805 158.65 139.511 235.62 282.241 235.62c137.92 0 210.22 -74.4102 210.22 -188.34c0 -17.25 -1.66016 -35.4199 -5 -54.3701l-45.8398 -259.97c-29.8896 -169.52 -167.92 -224.26 -277.45 -224.26
c-102.36 0 -214.63 49.0098 -214.63 182.109c0 15.0195 1.42969 31.1094 4.45996 48.3193zM504.59 215.721l45.8398 259.97c2.73047 15.46 4.09082 29.9102 4.09082 43.29c0 75.5195 -43.3701 117.159 -129.311 117.159c-98.8604 0 -167.391 -49.3896 -186.95 -160.3
l-46 -260.88c-2.21973 -12.5996 -3.26953 -24.2295 -3.26953 -34.96c0 -84.1699 64.4805 -112.72 133.48 -112.72c79.2695 0 162.439 36.8203 182.119 148.44z" />
    <glyph glyph-name="Oacute" unicode="&#xd3;" horiz-adv-x="620" 
d="M460.29 779.83h-60.5693l75.5195 119.17h85.3799zM104.36 218.42l45.999 260.892c27.9805 158.66 139.511 235.63 282.241 235.63c137.92 0 210.22 -74.4199 210.22 -188.34c0 -17.2598 -1.66016 -35.4199 -5 -54.3701l-45.8398 -259.98
c-29.8896 -169.52 -167.92 -224.25 -277.45 -224.25c-102.36 0 -214.63 49 -214.63 182.1c0 15.0195 1.42969 31.1094 4.45996 48.3193zM504.59 215.722l45.8398 259.969c2.73047 15.4697 4.09082 29.9102 4.09082 43.29c0 75.5303 -43.3701 117.16 -129.311 117.16
c-98.8604 0 -167.391 -49.3896 -186.95 -160.29l-46 -260.89c-2.21973 -12.5898 -3.26953 -24.2295 -3.26953 -34.96c0 -84.1602 64.4805 -112.71 133.48 -112.71c79.2695 0 162.439 36.8203 182.119 148.431z" />
    <glyph glyph-name="Ocaron" unicode="&#x1d1;" horiz-adv-x="620" 
d="M490.4 773.71h-81.5205l-102.89 139.52h71.0596l75.8398 -101.11l110.94 101.11h75.4902zM104.36 218.42l46 260.892c27.9697 158.66 139.51 235.63 282.24 235.63c137.91 0 210.22 -74.4199 210.22 -188.34c0 -17.2598 -1.66016 -35.4199 -5 -54.3701l-45.8398 -259.98
c-29.8896 -169.52 -167.93 -224.25 -277.449 -224.25c-102.36 0 -214.641 49 -214.641 182.1c0 15.0195 1.42969 31.1094 4.46973 48.3193zM504.591 215.722l45.8398 259.969c2.71973 15.4697 4.08008 29.9102 4.08008 43.29c0 75.5303 -43.3701 117.16 -129.3 117.16
c-98.8604 0 -167.4 -49.3896 -186.95 -160.29l-46 -260.89c-2.21973 -12.5898 -3.26953 -24.2295 -3.26953 -34.96c0 -84.1602 64.4805 -112.71 133.48 -112.71c79.2598 0 162.439 36.8203 182.119 148.431z" />
    <glyph glyph-name="Ocircumflex" unicode="&#xd4;" horiz-adv-x="620" 
d="M613.03 771.41h-71.3193l-73.21 101.11l-113.59 -101.11h-75.21l152.09 139.52h81.5195zM104.361 218.42l46 260.891c27.9697 158.65 139.51 235.62 282.24 235.62c137.91 0 210.22 -74.4102 210.22 -188.34c0 -17.25 -1.66016 -35.4199 -5 -54.3701l-45.8398 -259.97
c-29.8896 -169.52 -167.93 -224.26 -277.449 -224.26c-102.36 0 -214.641 49.0098 -214.641 182.109c0 15.0195 1.42969 31.1094 4.46973 48.3193zM504.592 215.721l45.8398 259.97c2.71973 15.46 4.08008 29.9102 4.08008 43.29c0 75.5195 -43.3701 117.159 -129.3 117.159
c-98.8604 0 -167.4 -49.3896 -186.95 -160.3l-46 -260.88c-2.21973 -12.5996 -3.26953 -24.2295 -3.26953 -34.96c0 -84.1699 64.4805 -112.72 133.48 -112.72c79.2598 0 162.439 36.8203 182.119 148.44z" />
    <glyph glyph-name="Odieresis" unicode="&#xd6;" horiz-adv-x="620" 
d="M369.13 874.1c22.7197 0 38.7197 -16.6104 38.7197 -39.3604c0 -24.2598 -19.46 -45.1094 -43.0703 -45.1094c-23.6396 0 -40.3496 17.54 -40.3496 40.0801c0 25.3496 20.54 44.3896 44.7002 44.3896zM554.99 874.1c22.7197 0 38.7197 -16.6201 38.7197 -39.3701
c0 -24.2598 -19.46 -45.0996 -43.0703 -45.0996c-23.6396 0 -40.3496 17.5303 -40.3496 40.0801c0 25.3398 20.54 44.3896 44.7002 44.3896zM104.351 218.41l45.999 260.891c27.9805 158.65 139.511 235.62 282.241 235.62c137.92 0 210.22 -74.4102 210.22 -188.34
c0 -17.25 -1.66016 -35.4199 -5 -54.3701l-45.8398 -259.97c-29.8896 -169.52 -167.92 -224.26 -277.45 -224.26c-102.36 0 -214.63 49.0098 -214.63 182.109c0 15.0195 1.42969 31.1094 4.45996 48.3193zM504.58 215.711l45.8398 259.97
c2.73047 15.46 4.09082 29.9102 4.09082 43.29c0 75.5195 -43.3701 117.159 -129.311 117.159c-98.8604 0 -167.391 -49.3896 -186.95 -160.3l-46 -260.88c-2.21973 -12.5996 -3.26953 -24.2295 -3.26953 -34.96c0 -84.1699 64.4805 -112.72 133.48 -112.72
c79.2695 0 162.439 36.8203 182.119 148.44z" />
    <glyph glyph-name="Ograve" unicode="&#xd2;" horiz-adv-x="620" 
d="M512.49 779.83h-56.5596l-58.2305 119.17h81.29zM104.36 218.42l45.999 260.892c27.9805 158.66 139.511 235.63 282.241 235.63c137.92 0 210.22 -74.4199 210.22 -188.34c0 -17.2598 -1.66016 -35.4199 -5 -54.3701l-45.8398 -259.98
c-29.8896 -169.52 -167.92 -224.25 -277.45 -224.25c-102.36 0 -214.63 49 -214.63 182.1c0 15.0195 1.42969 31.1094 4.45996 48.3193zM504.59 215.722l45.8398 259.969c2.73047 15.4697 4.09082 29.9102 4.09082 43.29c0 75.5303 -43.3701 117.16 -129.311 117.16
c-98.8604 0 -167.391 -49.3896 -186.95 -160.29l-46 -260.89c-2.21973 -12.5898 -3.26953 -24.2295 -3.26953 -34.96c0 -84.1602 64.4805 -112.71 133.48 -112.71c79.2695 0 162.439 36.8203 182.119 148.431z" />
    <glyph glyph-name="Ohungarumlaut" unicode="&#x150;" horiz-adv-x="620" 
d="M392.84 778.98l71.8008 120.02h104.52l-94.6299 -120.02h-81.6904zM104.36 218.42l46 260.891c27.9697 158.65 139.51 235.62 282.24 235.62c137.91 0 210.22 -74.4102 210.22 -188.34c0 -17.25 -1.66016 -35.4199 -5 -54.3701l-45.8398 -259.97
c-29.8896 -169.52 -167.93 -224.26 -277.449 -224.26c-102.36 0 -214.641 49.0098 -214.641 182.109c0 15.0195 1.42969 31.1094 4.46973 48.3193zM504.591 215.721l45.8398 259.97c2.71973 15.46 4.08008 29.9102 4.08008 43.29c0 75.5195 -43.3701 117.159 -129.3 117.159
c-98.8604 0 -167.4 -49.3896 -186.95 -160.3l-46 -260.88c-2.21973 -12.5996 -3.26953 -24.2295 -3.26953 -34.96c0 -84.1699 64.4805 -112.72 133.48 -112.72c79.2598 0 162.439 36.8203 182.119 148.44z" />
    <glyph glyph-name="Omacron" unicode="&#x14c;" horiz-adv-x="620" 
d="M574.72 816.02h-242.62l8.37988 47.5098h242.62zM104.369 218.42l46 260.891c27.9697 158.65 139.51 235.62 282.24 235.62c137.91 0 210.22 -74.4102 210.22 -188.34c0 -17.25 -1.66016 -35.4199 -5 -54.3701l-45.8398 -259.97
c-29.8896 -169.52 -167.93 -224.26 -277.449 -224.26c-102.36 0 -214.641 49.0098 -214.641 182.109c0 15.0195 1.42969 31.1094 4.46973 48.3193zM504.6 215.721l45.8398 259.97c2.71973 15.46 4.08008 29.9102 4.08008 43.29c0 75.5195 -43.3701 117.159 -129.3 117.159
c-98.8604 0 -167.4 -49.3896 -186.95 -160.3l-46 -260.88c-2.21973 -12.5996 -3.26953 -24.2295 -3.26953 -34.96c0 -84.1699 64.4805 -112.72 133.48 -112.72c79.2598 0 162.439 36.8203 182.119 148.44z" />
    <glyph glyph-name="Oslash" unicode="&#xd8;" horiz-adv-x="620" 
d="M624.45 750l-42.0615 -80.3291c39.96 -32.9902 60.4404 -82.4404 60.4404 -143.07c0 -17.2598 -1.66016 -35.4199 -5 -54.3701l-45.8398 -259.98c-29.8896 -169.52 -167.93 -224.25 -277.449 -224.25c-27.7695 0 -56.2598 3.59961 -83.0498 11.5098l-25.9297 -49.5098
h-86.1797l43.6699 83.4004c-37.7002 29.0303 -63.1504 73.3398 -63.1504 136.7c0 15.0195 1.42969 31.1094 4.46973 48.3193l46 260.89c27.9697 158.65 139.51 235.62 282.24 235.62c30.4902 0 57.7803 -3.63965 81.7803 -10.54l23.8799 45.6104h86.1797zM237.539 473.151
l-46.0107 -260.89c-2.26953 -12.8799 -3.33984 -24.7197 -3.33984 -35.5898c0 -26.3203 6.28027 -46.9404 16.9805 -62.8301l270.88 517.32c-13.6699 3.30957 -29.1299 4.98926 -46.3604 4.98926c-101.22 0 -172.6 -52.0996 -192.149 -163zM504.809 218.432l45.8506 259.969
c2.80957 15.9404 4.20996 30.7207 4.20996 44.3311c0 26.0195 -5.12988 47.7393 -15.3994 64.9697l-269.74 -515.15c15.0801 -3.66016 31.2998 -5.25977 47.7598 -5.25977c81.6299 0 167.64 39.5303 187.319 151.141z" />
    <glyph glyph-name="Otilde" unicode="&#xd5;" horiz-adv-x="620" 
d="M315.41 797.25l-24.8408 40.6807c23.8604 21.2598 71.6504 58.2998 111.71 58.2998c52.9697 0 79.4502 -40.75 119.73 -40.75c31.1396 0 66.9697 25.1504 81.5801 38.9307l24.46 -41.2305c-18.7197 -14.9404 -64.6699 -49.7002 -101.86 -49.7002
c-52.9697 0 -81.21 39.5996 -123.46 39.5996c-31.5498 0 -68.3496 -26.8799 -87.3193 -45.8301zM104.359 218.431l46 260.891c27.9697 158.65 139.51 235.62 282.24 235.62c137.91 0 210.22 -74.4102 210.22 -188.34c0 -17.25 -1.66016 -35.4199 -5 -54.3701
l-45.8398 -259.97c-29.8896 -169.52 -167.93 -224.26 -277.449 -224.26c-102.36 0 -214.641 49.0098 -214.641 182.109c0 15.0195 1.42969 31.1094 4.46973 48.3193zM504.59 215.731l45.8398 259.97c2.71973 15.46 4.08008 29.9102 4.08008 43.29
c0 75.5195 -43.3701 117.159 -129.3 117.159c-98.8604 0 -167.4 -49.3896 -186.95 -160.3l-46 -260.88c-2.21973 -12.5996 -3.26953 -24.2295 -3.26953 -34.96c0 -84.1699 64.4805 -112.72 133.48 -112.72c79.2598 0 162.439 36.8203 182.119 148.44z" />
    <glyph glyph-name="OE" unicode="&#x152;" horiz-adv-x="945" 
d="M84.4404 219.44l45.9902 260.899c27.9805 158.66 139.511 235.63 282.241 235.63c82.6699 0 135.65 -31.2002 159.891 -81.6299l13.9102 65.6699h440.96l-13.9004 -78.7998h-352.7l-40.96 -232.26h322.8l-13.9004 -78.7998h-322.79l-40.79 -231.35h353.57
l-13.8896 -78.7998h-442.65l14.5596 64.6797c-48.5498 -55.6699 -120.99 -75.6797 -182.15 -75.6797c-102.36 0 -214.66 49.0195 -214.66 182.13c0 15.0098 1.42969 31.0996 4.46973 48.3096zM483.771 213.14l46.9492 266.3
c2.80957 15.9297 4.20996 30.7197 4.20996 44.3301c0 74.1504 -41.71 113.41 -125.18 113.41c-101.22 0 -172.6 -52.0996 -192.149 -163l-46 -260.89c-2.26953 -12.8799 -3.33984 -24.7197 -3.33984 -35.5898c0 -83.1104 62.5898 -109.38 129.3 -109.38
c79.9004 0 168.25 42.9697 186.21 144.819z" />
    <glyph glyph-name="P" unicode="P" horiz-adv-x="602" 
d="M205.02 700l256.521 0.000976562c117.86 0 177.62 -75.1396 177.62 -167.09c0 -12.9404 -1.17969 -26.2002 -3.5498 -39.6406c-23.0098 -130.49 -109.58 -204.891 -242.98 -204.841h-171.92l-50.8604 -288.43h-88.2598zM279.55 621.211l-44.749 -253.771h167.83
c81.4199 0 134.09 45.4404 149.35 131.99c1.53027 8.69043 2.2998 17.1709 2.2998 25.3613c0 54.8203 -34.4102 96.4199 -104.561 96.4199h-170.17z" />
    <glyph glyph-name="Thorn" unicode="&#xde;" horiz-adv-x="602" 
d="M268.81 561.24l168.25 -0.00878906c117.87 0 177.63 -75.1396 177.63 -167.09c0 -12.9404 -1.17969 -26.2002 -3.5498 -39.6406c-23 -130.48 -109.58 -204.881 -242.98 -204.831h-171.92l-26.3896 -149.67h-88.2598l123.43 700h88.2598zM254.909 482.441
l-44.7393 -253.771h167.83c81.4199 0 134.09 45.4404 149.35 131.99c1.53027 8.67969 2.2998 17.1699 2.2998 25.3604c0 54.8203 -34.4102 96.4199 -104.57 96.4199h-170.17z" />
    <glyph glyph-name="Q" unicode="Q" horiz-adv-x="620" 
d="M104.36 218.42l46.0107 260.893c27.9697 158.66 139.51 235.63 282.24 235.63c137.91 0 210.22 -74.4199 210.22 -188.34c0 -17.2598 -1.66016 -35.4199 -5 -54.3701l-45.8398 -259.98c-11.8604 -67.2305 -40.7207 -116.41 -78.0811 -151.28l41.29 -56.5703
l-50.9199 -38.4004l-42.2803 57.79c-47.0801 -25.5 -99.96 -35.7998 -147.47 -35.7998c-102.36 0 -214.63 49.0098 -214.63 182.109c0 15.0195 1.42969 31.1094 4.45996 48.3193zM504.602 215.723l45.8389 259.971c2.71973 15.4697 4.08008 29.9102 4.08008 43.29
c0 75.5303 -43.3701 117.16 -129.3 117.16c-98.8604 0 -167.4 -49.3896 -186.95 -160.29l-46 -260.89c-2.21973 -12.5898 -3.26953 -24.2295 -3.26953 -34.96c0 -84.1602 64.4805 -112.71 133.48 -112.71c31.79 0 64.2197 5.91992 92.9199 20.2197l-72.79 99.5195
l50.9004 38.9102l72.21 -98.9404c18.4404 22.0703 32.25 51.1602 38.8799 88.7197z" />
    <glyph glyph-name="R" unicode="R" horiz-adv-x="613" 
d="M205.02 700l256.513 -0.00976562c118.06 0 177.989 -74.4297 177.989 -165.489c0 -12.6396 -1.15039 -25.5996 -3.4707 -38.7295c-19.21 -108.94 -80.6104 -173.4 -183.11 -188.631l-29.4004 -1.44043l137.91 -305.7h-101.03l-127.62 293.72h-111.16l-51.79 -293.72
h-88.2598zM279.382 621.2l-43.8096 -248.471h167.83c81.4297 0 133.96 44.6602 148.89 129.37c1.46973 8.33008 2.20996 16.46 2.20996 24.3203c0 53.8799 -34.5703 94.8203 -104.95 94.7803h-170.17z" />
    <glyph glyph-name="Racute" unicode="&#x154;" horiz-adv-x="613" 
d="M456.54 779.83h-60.5801l75.5303 119.17h85.3701zM205.02 700l256.513 -0.00976562c118.06 0 177.989 -74.4297 177.989 -165.489c0 -12.6396 -1.15039 -25.5996 -3.4707 -38.7295c-19.21 -108.94 -80.6104 -173.4 -183.11 -188.631l-29.4004 -1.44043l137.91 -305.7
h-101.03l-127.62 293.72h-111.16l-51.79 -293.72h-88.2598zM279.382 621.2l-43.8096 -248.471h167.83c81.4297 0 133.96 44.6602 148.89 129.37c1.46973 8.33008 2.20996 16.46 2.20996 24.3203c0 53.8799 -34.5703 94.8203 -104.95 94.7803h-170.17z" />
    <glyph glyph-name="Rcaron" unicode="&#x158;" horiz-adv-x="613" 
d="M486.65 773.71h-81.5303l-102.88 139.52h71.0498l75.8398 -101.11l110.95 101.11h75.4902zM205.021 700l256.513 -0.00976562c118.06 0 177.989 -74.4297 177.989 -165.489c0 -12.6396 -1.15039 -25.5996 -3.4707 -38.7295
c-19.21 -108.94 -80.6104 -173.4 -183.11 -188.631l-29.4004 -1.44043l137.91 -305.7h-101.03l-127.62 293.72h-111.16l-51.79 -293.72h-88.2598zM279.383 621.2l-43.8096 -248.471h167.83c81.4297 0 133.96 44.6602 148.89 129.37
c1.46973 8.33008 2.20996 16.46 2.20996 24.3203c0 53.8799 -34.5703 94.8203 -104.95 94.7803h-170.17z" />
    <glyph glyph-name="Rcommaaccent" unicode="&#x156;" horiz-adv-x="613" 
d="M205.02 700l256.513 -0.00976562c118.06 0 177.989 -74.4297 177.989 -165.489c0 -12.6396 -1.15039 -25.5996 -3.4707 -38.7295c-19.21 -108.94 -80.6104 -173.4 -183.11 -188.631l-29.4004 -1.44043l137.91 -305.7h-101.03l-127.62 293.72h-111.16l-51.79 -293.72
h-88.2598zM279.382 621.2l-43.8096 -248.471h167.83c81.4297 0 133.96 44.6602 148.89 129.37c1.46973 8.33008 2.20996 16.46 2.20996 24.3203c0 53.8799 -34.5703 94.8203 -104.95 94.7803h-170.17zM223.353 -206.011l31.04 55
c-5.95996 5.87988 -10.9404 14.5898 -10.9404 24.9297c0 18.9502 16.1504 34.0703 33.6602 34.0703c21.0801 0 35.9199 -19 32.1699 -40c-0.410156 -2 -1.87988 -7 -4.2998 -12l-42.2998 -62h-39.3301z" />
    <glyph glyph-name="S" unicode="S" horiz-adv-x="576" 
d="M74.8604 190.77l83.8076 0.000976562c-1.03027 -6.91016 -1.57031 -13.7197 -1.57031 -20.3701c0 -56.4502 38.6699 -101.59 138.31 -101.59c113.33 0 174.811 53.5195 188.271 130.399c1 5.74023 1.48047 11.1602 1.48047 16.2803
c0 60.5 -67.4199 79.8604 -146.52 107.63c-108.22 33.5898 -193.489 71.46 -193.489 167.04c0 9.45996 0.839844 19.4902 2.57031 30.1299c19.7998 122.5 122.71 190.58 258.51 190.58c124.29 0 207.24 -57.7402 207.24 -160.471
c0 -10.0596 -0.799805 -20.5596 -2.42969 -31.4697h-84.04c1.25977 7.78027 1.87012 15.1201 1.87012 22.0303c0 64.5996 -53.2998 91.6094 -125.47 91.6094c-86.54 0 -158.18 -43.79 -170.58 -114.76c-0.860352 -4.99023 -1.28027 -9.73047 -1.28027 -14.25
c0 -49.3096 50.6602 -71.9395 140.45 -99.8398c124.12 -33.79 198.45 -84.5498 198.45 -179.479c0 -11.7305 -1.12988 -24.1309 -3.4502 -37.251c-18.9199 -107.34 -99.3301 -197.99 -271.44 -197.99c-145.71 0 -222.56 77.0098 -222.56 174.87
c0 8.80957 0.620117 17.79 1.87012 26.9004z" />
    <glyph glyph-name="Sacute" unicode="&#x15a;" horiz-adv-x="576" 
d="M437.64 779.83h-60.5801l75.5303 119.17h85.3701zM74.8594 190.771l83.8076 0.000976562c-1.03027 -6.91016 -1.57031 -13.7197 -1.57031 -20.3701c0 -56.4502 38.6699 -101.59 138.31 -101.59c113.33 0 174.811 53.5195 188.271 130.399
c1 5.74023 1.48047 11.1602 1.48047 16.2803c0 60.5 -67.4199 79.8604 -146.52 107.63c-108.22 33.5898 -193.489 71.46 -193.489 167.04c0 9.45996 0.839844 19.4902 2.57031 30.1299c19.7998 122.5 122.71 190.58 258.51 190.58c124.29 0 207.24 -57.7402 207.24 -160.471
c0 -10.0596 -0.799805 -20.5596 -2.42969 -31.4697h-84.04c1.25977 7.78027 1.87012 15.1201 1.87012 22.0303c0 64.5996 -53.2998 91.6094 -125.47 91.6094c-86.54 0 -158.18 -43.79 -170.58 -114.76c-0.860352 -4.99023 -1.28027 -9.73047 -1.28027 -14.25
c0 -49.3096 50.6602 -71.9395 140.45 -99.8398c124.12 -33.79 198.45 -84.5498 198.45 -179.479c0 -11.7305 -1.12988 -24.1309 -3.4502 -37.251c-18.9199 -107.34 -99.3301 -197.99 -271.44 -197.99c-145.71 0 -222.56 77.0098 -222.56 174.87
c0 8.80957 0.620117 17.79 1.87012 26.9004z" />
    <glyph glyph-name="Scaron" unicode="&#x160;" horiz-adv-x="576" 
d="M467.75 773.71h-81.5205l-102.89 139.52h71.0596l75.8398 -101.11l110.94 101.11h75.4902zM74.8594 190.77l83.8076 0.000976562c-1.03027 -6.91016 -1.57031 -13.7197 -1.57031 -20.3701c0 -56.4502 38.6699 -101.59 138.31 -101.59
c113.33 0 174.811 53.5195 188.271 130.399c1 5.74023 1.48047 11.1602 1.48047 16.2803c0 60.5 -67.4199 79.8604 -146.52 107.63c-108.22 33.5898 -193.489 71.46 -193.489 167.04c0 9.45996 0.839844 19.4902 2.57031 30.1299c19.7998 122.5 122.71 190.58 258.51 190.58
c124.29 0 207.24 -57.7402 207.24 -160.471c0 -10.0596 -0.799805 -20.5596 -2.42969 -31.4697h-84.04c1.25977 7.78027 1.87012 15.1201 1.87012 22.0303c0 64.5996 -53.2998 91.6094 -125.47 91.6094c-86.54 0 -158.18 -43.79 -170.58 -114.76
c-0.860352 -4.99023 -1.28027 -9.73047 -1.28027 -14.25c0 -49.3096 50.6602 -71.9395 140.45 -99.8398c124.12 -33.79 198.45 -84.5498 198.45 -179.479c0 -11.7305 -1.12988 -24.1309 -3.4502 -37.251c-18.9199 -107.34 -99.3301 -197.99 -271.44 -197.99
c-145.71 0 -222.56 77.0098 -222.56 174.87c0 8.80957 0.620117 17.79 1.87012 26.9004z" />
    <glyph glyph-name="Scedilla" unicode="&#x15e;" horiz-adv-x="576" 
d="M74.8604 190.77l83.8057 -0.00878906c-1.03027 -6.91016 -1.57031 -13.7197 -1.57031 -20.3701c0 -56.4502 38.6699 -101.59 138.31 -101.59c113.33 0 174.811 53.5195 188.271 130.399c1 5.74023 1.48047 11.1602 1.48047 16.2803
c0 60.5 -67.4199 79.8604 -146.52 107.63c-108.22 33.5898 -193.489 71.46 -193.489 167.04c0 9.45996 0.839844 19.4902 2.57031 30.1299c19.7998 122.5 122.71 190.58 258.51 190.58c124.29 0 207.24 -57.7402 207.24 -160.46
c0 -10.0596 -0.799805 -20.5498 -2.42969 -31.4697h-84.04c1.25977 7.78027 1.87012 15.1201 1.87012 22.0303c0 64.5996 -53.2998 91.6094 -125.47 91.6094c-86.54 0 -158.18 -43.7998 -170.58 -114.76c-0.860352 -4.99023 -1.28027 -9.73047 -1.28027 -14.25
c0 -49.3096 50.6602 -71.9395 140.45 -99.8398c124.12 -33.79 198.45 -84.5498 198.45 -179.479c0 -11.7305 -1.12988 -24.1309 -3.4502 -37.251c-18.7002 -106.05 -97.3105 -195.99 -265.12 -197.99l-32.6299 -34c11.5 3.30957 24.1201 5.25 36.3301 5.25
c44.5098 0 83.9297 -20.9404 83.9297 -69.8408c0 -5.75 -0.540039 -11.8799 -1.69043 -18.4102c-12.5 -71 -80.29 -90 -140.43 -90c-42.7998 0 -79.0596 16 -107.43 27l18.9502 37c26.1797 -15 56.8301 -21 78.6504 -23c42.1201 0 85.6504 20 92.6406 60
c4.4502 25 -13.3398 39 -39.2998 39c-17.4805 0 -43.4102 -6 -74.8105 -19l-17.5195 19l60.6904 68c-123.04 11.3701 -186.26 85.0605 -186.26 173.891c0 8.83008 0.620117 17.7998 1.87012 26.8799z" />
    <glyph glyph-name="Scommaaccent" unicode="&#x218;" horiz-adv-x="584" 
d="M74.8604 190.77h83.8076c-1.03027 -6.91016 -1.57031 -13.7197 -1.57031 -20.3701c0 -56.46 38.6699 -101.59 138.31 -101.59c113.33 0 174.811 53.5195 188.271 130.399c1 5.74023 1.48047 11.1504 1.48047 16.2705c0 60.5 -67.4199 79.8604 -146.52 107.641
c-108.22 33.5898 -193.489 71.4502 -193.489 167.04c0 9.45996 0.839844 19.4795 2.57031 30.1191c19.7998 122.51 122.71 190.59 258.51 190.59c124.29 0 207.24 -57.75 207.24 -160.47c0 -10.0703 -0.799805 -20.5605 -2.42969 -31.4805h-84.04
c1.25977 7.78027 1.87012 15.1201 1.87012 22.0303c0 64.6104 -53.2998 91.6104 -125.47 91.6104c-86.54 0 -158.18 -43.79 -170.58 -114.75c-0.860352 -4.99023 -1.28027 -9.73047 -1.28027 -14.25c0 -49.4502 50.96 -72.0498 140.94 -100.02
c123.95 -33.7305 197.96 -84.5107 197.96 -179.271c0 -11.7402 -1.12988 -24.1504 -3.4502 -37.2803c-18.9199 -107.34 -99.3301 -197.99 -271.44 -197.99c-145.71 0 -222.56 77.0098 -222.56 174.87c0 8.80957 0.620117 17.79 1.87012 26.9004zM215.888 -206l31.04 55
c-5.95996 5.87988 -10.9404 14.5801 -10.9404 24.9297c0 18.9502 16.1602 34.0703 33.6602 34.0703c21.0801 0 35.9297 -19 32.1699 -40c-0.410156 -2 -1.87988 -7 -4.2998 -12l-42.2998 -62h-39.3301z" />
    <glyph glyph-name="T" unicode="T" horiz-adv-x="530" 
d="M598.68 621.2h-186.089l-109.53 -621.2h-88.2598l109.54 621.2h-179.7l13.8896 78.7998h454.05z" />
    <glyph glyph-name="Tbar" unicode="&#x166;" horiz-adv-x="530" 
d="M598.68 621.2h-186.089l-41.8701 -237.44h98.3398l-8.37988 -47.5098h-98.3398l-59.29 -336.25h-88.25l59.29 336.25h-91.96l8.37988 47.5098h91.96l41.8701 237.44h-179.7l13.8896 78.7998h454.05z" />
    <glyph glyph-name="Tcaron" unicode="&#x164;" horiz-adv-x="530" 
d="M445.2 773.71h-81.5205l-102.89 139.52h71.0596l75.8398 -101.11l110.94 101.11h75.4902zM598.68 621.2h-186.089l-109.53 -621.2h-88.2598l109.54 621.2h-179.7l13.8896 78.7998h454.05z" />
    <glyph glyph-name="Tcedilla" unicode="&#x162;" horiz-adv-x="530" 
d="M598.68 621.2l-186.09 -0.0107422l-109.39 -621.2l-24.8496 -3l-38.8398 -39c14.5195 4 30.5293 6 42.999 5c42.4697 -0.889648 77.2393 -23.0596 77.2393 -69.3291c0 -5.83008 -0.55957 -12.0498 -1.71973 -18.6602c-12.5 -71 -80.2197 -90 -140.35 -90
c-42.7998 0 -79.1396 16 -107.51 27l18.9502 37c26.1797 -15 56.8301 -21 78.6504 -23c42.1201 0 85.6504 20 92.6406 60c0.509766 2.90039 0.759766 5.65039 0.759766 8.23047c0 20.5098 -15.8701 30.7695 -41.5205 30.7695c-19.4502 0 -41.6406 -5 -73.3604 -19
l-17.5098 19l63.6904 73l-17.8096 2l109.68 621.2h-179.7l13.8896 78.7998h454.05z" />
    <glyph glyph-name="uni021A" unicode="&#x21a;" horiz-adv-x="524" 
d="M598.68 621.2h-186.089l-109.53 -621.2h-88.2598l109.54 621.2h-179.7l13.8896 78.7998h454.05zM183.181 -206l31.04 55c-5.95996 5.87988 -10.9404 14.5801 -10.9404 24.9297c0 18.9502 16.1602 34.0703 33.6602 34.0703c21.0801 0 35.9297 -19 32.1699 -40
c-0.410156 -2 -1.87988 -7 -4.29004 -12l-42.2998 -62h-39.3398z" />
    <glyph glyph-name="U" unicode="U" horiz-adv-x="627" 
d="M682.32 700.47l-85.8994 -487.159c-29.8896 -169.56 -167.93 -224.3 -277.43 -224.3c-102.33 0 -214.65 49.0098 -214.65 182.14c0 15.0195 1.42969 31.1094 4.45996 48.3193l84.8203 481.01h88.25l-85.9004 -487.18
c-2.26953 -12.8799 -3.33984 -24.7197 -3.33984 -35.5898c0 -83.1104 62.5898 -109.38 129.3 -109.38c81.6299 0 167.64 39.5195 187.319 151.14l84.8203 481h88.25z" />
    <glyph glyph-name="Uacute" unicode="&#xda;" horiz-adv-x="627" 
d="M463.02 779.83h-60.5693l75.5195 119.17h85.3799zM682.32 700.47l-85.8994 -487.159c-29.8896 -169.56 -167.93 -224.3 -277.43 -224.3c-102.33 0 -214.65 49.0098 -214.65 182.14c0 15.0195 1.42969 31.1094 4.45996 48.3193l84.8203 481.01h88.25l-85.9004 -487.18
c-2.26953 -12.8799 -3.33984 -24.7197 -3.33984 -35.5898c0 -83.1104 62.5898 -109.38 129.3 -109.38c81.6299 0 167.64 39.5195 187.319 151.14l84.8203 481h88.25z" />
    <glyph glyph-name="Ucaron" unicode="&#x1d3;" horiz-adv-x="627" 
d="M492.83 773.71h-81.5205l-102.89 139.52h71.0596l75.8398 -101.11l110.94 101.11h75.4902zM682.319 700.47l-85.8965 -487.159c-29.9004 -169.56 -167.94 -224.3 -277.431 -224.3c-102.34 0 -214.66 49.0098 -214.66 182.14c0 15.0195 1.42969 31.1094 4.46973 48.3193
l84.8096 481.01h88.2598l-85.9004 -487.18c-2.26953 -12.8799 -3.33984 -24.7197 -3.33984 -35.5898c0 -83.1104 62.5898 -109.38 129.3 -109.38c81.6201 0 167.64 39.5195 187.319 151.14l84.8096 481h88.2598z" />
    <glyph glyph-name="Ucircumflex" unicode="&#xdb;" horiz-adv-x="627" 
d="M615.46 771.41h-71.3193l-73.21 101.11l-113.59 -101.11h-75.21l152.09 139.52h81.5195zM682.32 700.47l-85.8965 -487.159c-29.9004 -169.56 -167.94 -224.3 -277.431 -224.3c-102.34 0 -214.66 49.0098 -214.66 182.14c0 15.0195 1.42969 31.1094 4.46973 48.3193
l84.8096 481.01h88.2598l-85.9004 -487.18c-2.26953 -12.8799 -3.33984 -24.7197 -3.33984 -35.5898c0 -83.1104 62.5898 -109.38 129.3 -109.38c81.6201 0 167.64 39.5195 187.319 151.14l84.8096 481h88.2598z" />
    <glyph glyph-name="Udieresis" unicode="&#xdc;" horiz-adv-x="627" 
d="M371.56 874.1c22.7197 0 38.7197 -16.6104 38.7197 -39.3604c0 -24.2598 -19.46 -45.1094 -43.0703 -45.1094c-23.6396 0 -40.3496 17.54 -40.3496 40.0801c0 25.3496 20.54 44.3896 44.7002 44.3896zM557.42 874.1c22.7197 0 38.7197 -16.6104 38.7197 -39.3604
c0 -24.2598 -19.46 -45.1094 -43.0703 -45.1094c-23.6396 0 -40.3496 17.54 -40.3496 40.0801c0 25.3496 20.54 44.3896 44.7002 44.3896zM682.32 700.46l-85.8965 -487.159c-29.9004 -169.56 -167.94 -224.3 -277.431 -224.3c-102.34 0 -214.66 49.0098 -214.66 182.14
c0 15.0195 1.42969 31.1094 4.46973 48.3193l84.8096 481.01h88.2598l-85.9004 -487.18c-2.26953 -12.8799 -3.33984 -24.7197 -3.33984 -35.5898c0 -83.1104 62.5898 -109.38 129.3 -109.38c81.6201 0 167.64 39.5195 187.319 151.14l84.8096 481h88.2598z" />
    <glyph glyph-name="Udieresisacute" unicode="&#x1d7;" horiz-adv-x="647" 
d="M516.65 894.1h-60.5693l75.5195 119.17h85.3799zM381.741 859.43c22.7197 0 38.7197 -16.6201 38.7197 -39.3701c0 -24.2598 -19.46 -45.0996 -43.0703 -45.0996c-23.6396 0 -40.3496 17.5303 -40.3496 40.0801c0 25.3398 20.54 44.3896 44.7002 44.3896zM567.602 859.42
c22.7197 0 38.7197 -16.6104 38.7197 -39.3604c0 -24.2598 -19.46 -45.1094 -43.0703 -45.1094c-23.6396 0 -40.3496 17.54 -40.3496 40.0801c0 25.3496 20.54 44.3896 44.7002 44.3896zM682.321 700.46l-85.8965 -487.159c-29.9004 -169.56 -167.94 -224.3 -277.431 -224.3
c-102.34 0 -214.66 49.0098 -214.66 182.14c0 15.0195 1.42969 31.1094 4.46973 48.3193l84.8096 481.01h88.2598l-85.9004 -487.18c-2.26953 -12.8799 -3.33984 -24.7197 -3.33984 -35.5898c0 -83.1104 62.5898 -109.38 129.3 -109.38
c81.6201 0 167.64 39.5195 187.319 151.14l84.8096 481h88.2598z" />
    <glyph glyph-name="Udieresiscaron" unicode="&#x1d9;" horiz-adv-x="627" 
d="M515.44 901.9h-81.5303l-102.88 139.52h71.0498l75.8398 -101.12l110.95 101.12h75.4902zM370.04 865.49c22.7197 0 38.7197 -16.6104 38.7197 -39.3604c0 -24.2598 -19.46 -45.1094 -43.0703 -45.1094c-23.6396 0 -40.3496 17.5303 -40.3496 40.0801
c0 25.3496 20.54 44.3896 44.7002 44.3896zM555.9 865.49c22.7197 0 38.7197 -16.6104 38.7197 -39.3604c0 -24.2598 -19.46 -45.1094 -43.0703 -45.1094c-23.6396 0 -40.3496 17.5303 -40.3496 40.0801c0 25.3496 20.54 44.3896 44.7002 44.3896zM682.32 700.471
l-85.8965 -487.159c-29.9004 -169.56 -167.94 -224.3 -277.431 -224.3c-102.34 0 -214.66 49.0098 -214.66 182.14c0 15.0195 1.42969 31.1094 4.46973 48.3193l84.8096 481.01h88.2598l-85.9004 -487.18c-2.26953 -12.8799 -3.33984 -24.7197 -3.33984 -35.5898
c0 -83.1104 62.5898 -109.38 129.3 -109.38c81.6201 0 167.64 39.5195 187.319 151.14l84.8096 481h88.2598z" />
    <glyph glyph-name="Udieresisgrave" unicode="&#x1db;" horiz-adv-x="647" 
d="M528.28 894.45h-56.5693l-58.2305 119.17h81.2998zM381.741 859.42c22.7197 0 38.7109 -16.6104 38.7109 -39.3604c0 -24.2598 -19.4502 -45.1094 -43.0605 -45.1094c-23.6504 0 -40.3506 17.54 -40.3506 40.0801c0 25.3496 20.54 44.3896 44.7002 44.3896z
M567.603 859.42c22.7197 0 38.7109 -16.6201 38.7109 -39.3701c0 -24.2598 -19.4502 -45.0996 -43.0605 -45.0996c-23.6504 0 -40.3506 17.5303 -40.3506 40.0801c0 25.3398 20.54 44.3896 44.7002 44.3896zM682.313 700.46l-85.8994 -487.17
c-29.8896 -169.55 -167.93 -224.29 -277.43 -224.29c-102.33 0 -214.65 49.0098 -214.65 182.14c0 15.0195 1.42969 31.1094 4.45996 48.3193l84.8203 481h88.25l-85.9004 -487.17c-2.26953 -12.8799 -3.33984 -24.7197 -3.33984 -35.5898
c0 -83.1201 62.5898 -109.39 129.3 -109.39c81.6299 0 167.64 39.5303 187.319 151.141l84.8203 481.01h88.25z" />
    <glyph glyph-name="Udieresismacron" unicode="&#x1d5;" horiz-adv-x="647" 
d="M608.88 909.13h-242.61l8.37012 47.5098h242.62zM381.739 859.42c22.7197 0 38.7109 -16.6104 38.7109 -39.3604c0 -24.2598 -19.4502 -45.1094 -43.0605 -45.1094c-23.6504 0 -40.3506 17.54 -40.3506 40.0801c0 25.3496 20.54 44.3896 44.7002 44.3896zM567.601 859.42
c22.7197 0 38.7109 -16.6201 38.7109 -39.3701c0 -24.2598 -19.4502 -45.0996 -43.0605 -45.0996c-23.6504 0 -40.3506 17.5303 -40.3506 40.0801c0 25.3398 20.54 44.3896 44.7002 44.3896zM682.312 700.46l-85.8994 -487.17
c-29.8896 -169.55 -167.93 -224.29 -277.43 -224.29c-102.33 0 -214.65 49.0098 -214.65 182.14c0 15.0195 1.42969 31.1094 4.45996 48.3193l84.8203 481h88.25l-85.9004 -487.17c-2.26953 -12.8799 -3.33984 -24.7197 -3.33984 -35.5898
c0 -83.1201 62.5898 -109.39 129.3 -109.39c81.6299 0 167.64 39.5303 187.319 151.141l84.8203 481.01h88.25z" />
    <glyph glyph-name="Ugrave" unicode="&#xd9;" horiz-adv-x="627" 
d="M502.43 781.96h-56.5605l-58.2998 119.16h81.3604zM682.319 700.47l-85.8994 -487.17c-29.8896 -169.55 -167.93 -224.29 -277.43 -224.29c-102.33 0 -214.65 49.0098 -214.65 182.14c0 15.0195 1.42969 31.1094 4.45996 48.3193l84.8203 481h88.25l-85.9004 -487.17
c-2.26953 -12.8799 -3.33984 -24.7197 -3.33984 -35.5898c0 -83.1201 62.5898 -109.39 129.3 -109.39c81.6299 0 167.64 39.5303 187.319 151.141l84.8203 481.01h88.25z" />
    <glyph glyph-name="Uhungarumlaut" unicode="&#x170;" horiz-adv-x="647" 
d="M416.14 781.54h-57.2305l71.8203 120.01h80.04zM550.909 781.54h-57.2305l71.8203 120.01h80.04zM682.309 700.47l-85.8994 -487.17c-29.8896 -169.55 -167.93 -224.29 -277.43 -224.29c-102.33 0 -214.65 49.0098 -214.65 182.14
c0 15.0195 1.42969 31.1094 4.45996 48.3193l84.8203 481h88.25l-85.9004 -487.17c-2.26953 -12.8799 -3.33984 -24.7197 -3.33984 -35.5898c0 -83.1201 62.5898 -109.39 129.3 -109.39c81.6299 0 167.64 39.5303 187.319 151.141l84.8203 481.01h88.25z" />
    <glyph glyph-name="Umacron" unicode="&#x16a;" horiz-adv-x="647" 
d="M586.18 808.78h-242.61l8.37012 47.5098h242.62zM682.319 700.471l-85.8994 -487.17c-29.8896 -169.55 -167.93 -224.29 -277.43 -224.29c-102.33 0 -214.65 49.0098 -214.65 182.14c0 15.0195 1.42969 31.1094 4.45996 48.3193l84.8203 481h88.25l-85.9004 -487.17
c-2.26953 -12.8799 -3.33984 -24.7197 -3.33984 -35.5898c0 -83.1201 62.5898 -109.39 129.3 -109.39c81.6299 0 167.64 39.5303 187.319 151.141l84.8203 481.01h88.25z" />
    <glyph glyph-name="Uogonek" unicode="&#x172;" horiz-adv-x="647" 
d="M693.81 700.47l-85.9004 -487.142c-23.2998 -132.15 -113.31 -190.24 -197.79 -212.32c-75.79 -51 -93.3896 -87 -99.1094 -113c-1.0498 -4.99023 -1.5498 -9.52051 -1.5498 -13.6201c0 -23.9004 17.0195 -33.4199 39.8291 -33.4199
c31.4502 0 58.1807 19.71 80.9502 47.04l35.6904 -21c-35.04 -46 -80.7705 -69 -130.641 -69c-38.8604 0 -85.5801 18.6504 -85.5801 72.7607c0 5.96973 0.570312 12.3799 1.79004 19.2402c3.37988 20 16.2695 55 81.2197 101c-29.5498 -2 -49.8096 2 -69.1592 7
c-78.9297 17.2305 -147.67 70.0303 -147.67 173.7c0 14.8604 1.41016 30.7705 4.40039 47.7607l84.8203 481.01h88.25l-85.9004 -487.18c-2.26953 -12.8799 -3.33984 -24.7197 -3.33984 -35.5898c0 -83.1104 62.5898 -109.38 129.3 -109.38
c81.6299 0 167.64 39.5195 187.319 151.14l84.8203 481h88.25z" />
    <glyph glyph-name="Uring" unicode="&#x16e;" horiz-adv-x="627" 
d="M475.16 952.91c58.8896 0 102.93 -45.4199 102.93 -102.97c0 -67.8604 -65.71 -131.38 -133.28 -131.38c-59.4297 0 -102.89 46.6396 -102.89 103.439c0 68.5703 66.5303 130.91 133.24 130.91zM478.101 907.4c-46.7598 0 -92.3105 -40.8203 -92.3105 -89.7402
c0 -31.0996 22.6699 -54.1797 55.96 -54.1797c46.2402 0 91.8506 42.1504 91.8506 90.4004c0 31.0996 -22.6396 53.5195 -55.5 53.5195zM682.31 700.46l-85.8994 -487.17c-29.8896 -169.55 -167.93 -224.29 -277.43 -224.29c-102.33 0 -214.65 49.0098 -214.65 182.14
c0 15.0195 1.42969 31.1094 4.45996 48.3193l84.8203 481h88.25l-85.9004 -487.17c-2.26953 -12.8799 -3.33984 -24.7197 -3.33984 -35.5898c0 -83.1201 62.5898 -109.39 129.3 -109.39c81.6299 0 167.64 39.5303 187.319 151.141l84.8203 481.01h88.25z" />
    <glyph glyph-name="V" unicode="V" horiz-adv-x="592" 
d="M351.85 0h-126.02l-85.9902 700h89.6904l73.46 -605.46l288.26 605.46h92.3496z" />
    <glyph glyph-name="W" unicode="W" horiz-adv-x="829" 
d="M637.97 0h-112.71l-20.9902 498.35l-197.81 -498.35h-112.71l-42.5498 700h90.9199l26.2803 -589.8l227.1 589.8h85.5l18.1396 -590.38l233.64 590.38h93.4502z" />
    <glyph glyph-name="Wacute" unicode="&#x1e82;" horiz-adv-x="829" 
d="M585.2 779.08h-60.5693l75.5195 119.16h85.3799zM637.971 0h-112.71l-20.9902 498.35l-197.81 -498.35h-112.71l-42.5498 700h90.9199l26.2803 -589.8l227.1 589.8h85.5l18.1396 -590.38l233.64 590.38h93.4502z" />
    <glyph glyph-name="Wcircumflex" unicode="&#x174;" horiz-adv-x="829" 
d="M717.63 771.41h-71.3096l-73.2002 101.11l-113.59 -101.11h-75.2197l152.09 139.52h81.5195zM637.98 0h-112.71l-20.9902 498.35l-197.81 -498.35h-112.71l-42.5498 700h90.9199l26.2803 -589.8l227.1 589.8h85.5l18.1396 -590.38l233.64 590.38h93.4502z" />
    <glyph glyph-name="Wdieresis" unicode="&#x1e84;" horiz-adv-x="829" 
d="M473.74 874.1c22.7197 0 38.7109 -16.6104 38.7109 -39.3604c0 -24.2598 -19.4502 -45.1094 -43.0605 -45.1094c-23.6504 0 -40.3506 17.54 -40.3506 40.0801c0 25.3496 20.54 44.3896 44.7002 44.3896zM659.602 874.1c22.7197 0 38.7109 -16.6201 38.7109 -39.3701
c0 -24.2598 -19.4502 -45.0996 -43.0605 -45.0996c-23.6504 0 -40.3506 17.5303 -40.3506 40.0801c0 25.3398 20.54 44.3896 44.7002 44.3896zM637.973 -0.00976562h-112.72l-20.9805 498.35l-197.81 -498.35h-112.72l-42.54 700h90.9199l26.2695 -589.8l227.11 589.8h85.5
l18.1396 -590.38l233.63 590.38h93.4502z" />
    <glyph glyph-name="Wgrave" unicode="&#x1e80;" horiz-adv-x="829" 
d="M586.51 781.53h-56.5693l-58.2305 119.16h81.2998zM637.971 0h-112.71l-20.9902 498.35l-197.81 -498.35h-112.71l-42.5498 700h90.9199l26.2803 -589.8l227.1 589.8h85.5l18.1396 -590.38l233.64 590.38h93.4502z" />
    <glyph glyph-name="X" unicode="X" horiz-adv-x="628" 
d="M438.71 362.75l160.859 -362.75h-101.51l-130.69 293.23l-234.46 -293.23h-106.71l291.86 362.78l-149 337.22h99.79l116.94 -279.28l217.35 279.28h105.57z" />
    <glyph glyph-name="Y" unicode="Y" horiz-adv-x="594" 
d="M398.95 325.43l-58.3887 -325.43h-88.2803l58.0801 323.68l-158.69 376.32h99.6797l114.8 -291.71l219.49 291.71h105.64z" />
    <glyph glyph-name="Yacute" unicode="&#xdd;" horiz-adv-x="594" 
d="M446.97 779.83h-60.5693l75.5195 119.17h85.3799zM398.95 325.43l-58.3887 -325.43h-88.2803l58.0801 323.68l-158.69 376.32h99.6797l114.8 -291.71l219.49 291.71h105.64z" />
    <glyph glyph-name="Ycircumflex" unicode="&#x176;" horiz-adv-x="594" 
d="M599.71 771.41h-71.3193l-73.21 101.11l-113.59 -101.11h-75.21l152.09 139.52h81.5195zM398.94 325.43l-58.3906 -325.43h-88.2695l58.0801 323.68l-158.69 376.32h99.6699l114.8 -291.71l219.49 291.71h105.65z" />
    <glyph glyph-name="Ydieresis" unicode="&#x178;" horiz-adv-x="594" 
d="M355.81 874.1c22.7197 0 38.7197 -16.6104 38.7197 -39.3604c0 -24.2598 -19.46 -45.1094 -43.0703 -45.1094c-23.6396 0 -40.3496 17.54 -40.3496 40.0801c0 25.3496 20.54 44.3896 44.7002 44.3896zM541.67 874.1c22.7197 0 38.7197 -16.6201 38.7197 -39.3701
c0 -24.2598 -19.46 -45.0996 -43.0703 -45.0996c-23.6396 0 -40.3496 17.5303 -40.3496 40.0801c0 25.3398 20.54 44.3896 44.7002 44.3896zM398.939 325.42l-58.3887 -325.43h-88.2803l58.0801 323.68l-158.69 376.32h99.6797l114.8 -291.71l219.49 291.71h105.64z" />
    <glyph glyph-name="Ygrave" unicode="&#x1ef2;" horiz-adv-x="594" 
d="M486.94 781.96h-56.5605l-58.2998 119.16h81.3604zM398.939 325.43l-58.3906 -325.43h-88.2695l58.0801 323.68l-158.69 376.32h99.6699l114.8 -291.71l219.49 291.71h105.65z" />
    <glyph glyph-name="Z" unicode="Z" horiz-adv-x="583" 
d="M649.87 643.66l-473.31 -564.86h378.19l-13.9004 -78.7998h-498.58l8.88965 56.3301l473.32 564.87h-350.42l13.8896 78.7998h470.81z" />
    <glyph glyph-name="Zacute" unicode="&#x179;" horiz-adv-x="583" 
d="M459.36 779.83h-60.5693l75.5195 119.17h85.3799zM649.881 643.66l-473.32 -564.86h378.19l-13.8896 -78.7998h-498.58l8.88965 56.3301l473.31 564.87h-350.42l13.9004 78.7998h470.81z" />
    <glyph glyph-name="Zcaron" unicode="&#x17d;" horiz-adv-x="583" 
d="M474.33 773.71h-81.5303l-102.88 139.52h71.0498l75.8398 -101.11l110.95 101.11h75.4902zM649.87 643.66l-473.31 -564.86h378.19l-13.9004 -78.7998h-498.58l8.88965 56.3301l473.32 564.87h-350.42l13.8896 78.7998h470.81z" />
    <glyph glyph-name="Zdotaccent" unicode="&#x17b;" horiz-adv-x="583" 
d="M453.54 876.54c22.7197 0 38.7197 -16.6006 38.7197 -39.3506c0 -24.2695 -19.46 -45.1094 -43.0703 -45.1094c-23.6396 0 -40.3496 17.5303 -40.3496 40.0703c0 25.3496 20.54 44.3896 44.7002 44.3896zM649.87 643.67l-473.32 -564.86h378.19l-13.8896 -78.7998
h-498.58l8.88965 56.3301l473.31 564.87h-350.42l13.9004 78.7998h470.81z" />
    <glyph glyph-name="a" unicode="a" 
d="M442.76 0h-66.5195l4.5 24.1602c-42.71 -22.8799 -93.3604 -32.1602 -138.65 -32.1602c-88.9502 0 -170.311 38.6904 -170.311 137.471c0 11.4902 1.09961 23.7998 3.41992 36.96l30.2402 171.49c22.9697 130.28 117.489 171.13 208.56 171.13
c52.4102 0 103.79 -15.0703 141.24 -34.4004l8.91992 26.3496h66.9404zM369.94 83.46l64.8799 337.938c-25.5303 11.8701 -66.5898 21.0098 -105.62 21.0098c-72.2305 0 -126.221 -32.6699 -140.94 -116.14l-29.5303 -166.93
c-1.41992 -8.2998 -2.09961 -16.04 -2.09961 -23.2402c0 -53.5996 38.1104 -77.1094 98.5508 -77.1094c41.2197 0 81.5098 9.57031 114.76 24.4707z" />
    <glyph glyph-name="a.ss01" horiz-adv-x="497" 
d="M187.07 407.98l-39.9482 46.8301c31.3203 24.8604 72.1006 44.5801 124.891 51.4697c13.1904 1.71973 27.1201 2.63965 41.8398 2.63965c146.73 0 185.631 -67.1602 185.631 -149.04c0 -20.5 -2.44043 -41.9199 -6.23047 -63.4502l-52.6504 -298.87h-66.5303l4.5 24.4404
c-42.71 -22 -93.3496 -32 -138.649 -32c-94.6602 1.78027 -173.7 38.7705 -173.7 139.16c0 12.4297 1.20996 25.8301 3.75977 40.2598c23.0195 130.59 128.869 160.46 230.329 160.46c36.8496 0 74.3496 -3.41016 110.279 -5.17969
c2.67969 13.2803 4.43945 26.2207 4.43945 38.3506c0 43.7598 -22.8701 77.1895 -108.25 77.1895c-47.1299 0 -87.4102 -13.1396 -119.71 -32.2598zM368.262 83.6406l36.7012 178.062c-30.7305 4.09961 -62.9902 7.11914 -91.0205 7.11914
c-80.0098 0 -151.99 -24.2803 -167.49 -112.15c-1.48047 -8.40039 -2.19043 -16.1504 -2.19043 -23.3008c0 -58.8604 48.2002 -76.5303 110.391 -76.5303c40.3496 0 81.6191 11.0703 113.609 26.8008z" />
    <glyph glyph-name="aacute" unicode="&#xe1;" 
d="M371.64 580.83h-60.5693l75.5195 119.17h85.3799zM442.761 0h-66.5195l4.5 24.1602c-42.71 -22.8799 -93.3604 -32.1602 -138.65 -32.1602c-88.9502 0 -170.311 38.6904 -170.311 137.471c0 11.4902 1.09961 23.7998 3.41992 36.96l30.2402 171.49
c22.9697 130.28 117.489 171.13 208.56 171.13c52.4102 0 103.79 -15.0703 141.24 -34.4004l8.91992 26.3496h66.9404zM369.941 83.46l64.8799 337.938c-25.5303 11.8701 -66.5898 21.0098 -105.62 21.0098c-72.2305 0 -126.221 -32.6699 -140.94 -116.14l-29.5303 -166.93
c-1.41992 -8.2998 -2.09961 -16.04 -2.09961 -23.2402c0 -53.5996 38.1104 -77.1094 98.5508 -77.1094c41.2197 0 81.5098 9.57031 114.76 24.4707z" />
    <glyph glyph-name="abreve" unicode="&#x103;" 
d="M477.64 706.66l41.4824 -6.14941c-13.6602 -77.46 -81.2002 -130.24 -156.44 -130.24c-72.2402 0 -122.54 47.21 -122.54 112.65c0 7.67969 0.700195 15.6201 2.12988 23.7598l40.9297 -6.15039c-5.65039 -48.9102 27.4297 -82.1699 76.9893 -82.1699
c54.4697 0 105.85 39.3896 117.449 88.2998zM442.762 0.000976562h-66.5195l4.5 24.1602c-42.71 -22.8799 -93.3604 -32.1602 -138.65 -32.1602c-88.9502 0 -170.311 38.6904 -170.311 137.471c0 11.4902 1.09961 23.7998 3.41992 36.96l30.2402 171.49
c22.9697 130.28 117.489 171.13 208.56 171.13c52.4102 0 103.79 -15.0703 141.24 -34.4004l8.91992 26.3496h66.9404zM369.942 83.4609l64.8799 337.938c-25.5303 11.8701 -66.5898 21.0098 -105.62 21.0098c-72.2305 0 -126.221 -32.6699 -140.94 -116.14
l-29.5303 -166.93c-1.41992 -8.2998 -2.09961 -16.04 -2.09961 -23.2402c0 -53.5996 38.1104 -77.1094 98.5508 -77.1094c41.2197 0 81.5098 9.57031 114.76 24.4707z" />
    <glyph glyph-name="acaron" unicode="&#x1ce;" 
d="M401.75 574.71h-81.5205l-102.89 139.52h71.0596l75.8398 -101.11l110.94 101.11h75.4902zM442.749 -0h-66.5205l4.5 24.1602c-42.71 -22.8799 -93.3496 -32.1602 -138.649 -32.1602c-88.9502 0 -170.311 38.6904 -170.311 137.471
c0 11.4902 1.09961 23.7998 3.41992 36.96l30.2402 171.49c22.9805 130.28 117.49 171.13 208.57 171.13c52.4004 0 103.79 -15.0703 141.24 -34.4004l8.91992 26.3496h66.9297zM369.938 83.46l64.8809 337.938c-25.54 11.8701 -66.5996 21.0098 -105.63 21.0098
c-72.2305 0 -126.221 -32.6699 -140.931 -116.14l-29.54 -166.93c-1.41016 -8.2998 -2.10059 -16.04 -2.10059 -23.2402c0 -53.5996 38.1201 -77.1094 98.5605 -77.1094c41.2197 0 81.5098 9.57031 114.76 24.4707z" />
    <glyph glyph-name="acircumflex" unicode="&#xe2;" 
d="M524.38 572.41h-71.3193l-73.21 101.11l-113.59 -101.11h-75.21l152.09 139.52h81.5195zM442.761 0h-66.5195l4.5 24.1602c-42.71 -22.8799 -93.3604 -32.1602 -138.65 -32.1602c-88.9502 0 -170.311 38.6904 -170.311 137.471c0 11.4902 1.09961 23.7998 3.41992 36.96
l30.2402 171.49c22.9697 130.28 117.489 171.13 208.56 171.13c52.4102 0 103.79 -15.0703 141.24 -34.4004l8.91992 26.3496h66.9404zM369.941 83.46l64.8799 337.938c-25.5303 11.8701 -66.5898 21.0098 -105.62 21.0098c-72.2305 0 -126.221 -32.6699 -140.94 -116.14
l-29.5303 -166.93c-1.41992 -8.2998 -2.09961 -16.04 -2.09961 -23.2402c0 -53.5996 38.1104 -77.1094 98.5508 -77.1094c41.2197 0 81.5098 9.57031 114.76 24.4707z" />
    <glyph glyph-name="adieresis" unicode="&#xe4;" 
d="M280.48 675.11c22.7197 0 38.7197 -16.6201 38.7197 -39.3701c0 -24.2598 -19.46 -45.0996 -43.0703 -45.0996c-23.6396 0 -40.3496 17.5303 -40.3496 40.0801c0 25.3398 20.54 44.3896 44.7002 44.3896zM466.341 675.101c22.7197 0 38.7197 -16.6104 38.7197 -39.3604
c0 -24.2598 -19.46 -45.1094 -43.0703 -45.1094c-23.6396 0 -40.3496 17.54 -40.3496 40.0801c0 25.3496 20.54 44.3896 44.7002 44.3896zM442.751 -0.00976562h-66.5205l4.5 24.1699c-42.71 -22.8799 -93.3496 -32.1699 -138.649 -32.1699
c-88.9502 0 -170.311 38.6904 -170.311 137.471c0 11.5 1.09961 23.8096 3.41992 36.96l30.2402 171.49c22.9805 130.29 117.49 171.13 208.57 171.13c52.4004 0 103.79 -15.0703 141.24 -34.3906l8.91992 26.3398h66.9297zM369.94 83.46l64.8809 337.938
c-25.54 11.8701 -66.5996 21 -105.63 21c-72.2305 0 -126.221 -32.6699 -140.931 -116.13l-29.54 -166.93c-1.41016 -8.2998 -2.10059 -16.04 -2.10059 -23.2402c0 -53.5996 38.1201 -77.1191 98.5605 -77.1191c41.2197 0 81.5098 9.57031 114.76 24.4805z" />
    <glyph glyph-name="agrave" unicode="&#xe0;" 
d="M423.84 580.83h-56.5596l-58.2305 119.17h81.29zM442.761 0h-66.5195l4.5 24.1602c-42.71 -22.8799 -93.3604 -32.1602 -138.65 -32.1602c-88.9502 0 -170.311 38.6904 -170.311 137.471c0 11.4902 1.09961 23.7998 3.41992 36.96l30.2402 171.49
c22.9697 130.28 117.489 171.13 208.56 171.13c52.4102 0 103.79 -15.0703 141.24 -34.4004l8.91992 26.3496h66.9404zM369.941 83.46l64.8799 337.938c-25.5303 11.8701 -66.5898 21.0098 -105.62 21.0098c-72.2305 0 -126.221 -32.6699 -140.94 -116.14l-29.5303 -166.93
c-1.41992 -8.2998 -2.09961 -16.04 -2.09961 -23.2402c0 -53.5996 38.1104 -77.1094 98.5508 -77.1094c41.2197 0 81.5098 9.57031 114.76 24.4707z" />
    <glyph glyph-name="amacron" unicode="&#x101;" 
d="M486.07 617.02h-242.62l8.37988 47.5098h242.62zM442.76 -0h-66.5195l4.5 24.1602c-42.71 -22.8799 -93.3604 -32.1602 -138.65 -32.1602c-88.9502 0 -170.311 38.6904 -170.311 137.471c0 11.4902 1.09961 23.7998 3.41992 36.96l30.2402 171.49
c22.9697 130.28 117.489 171.13 208.56 171.13c52.4102 0 103.79 -15.0703 141.24 -34.4004l8.91992 26.3496h66.9404zM369.94 83.46l64.8799 337.938c-25.5303 11.8701 -66.5898 21.0098 -105.62 21.0098c-72.2305 0 -126.221 -32.6699 -140.94 -116.14l-29.5303 -166.93
c-1.41992 -8.2998 -2.09961 -16.04 -2.09961 -23.2402c0 -53.5996 38.1104 -77.1094 98.5508 -77.1094c41.2197 0 81.5098 9.57031 114.76 24.4707z" />
    <glyph glyph-name="aogonek" unicode="&#x105;" 
d="M75.1904 166.42l30.2471 171.491c22.9805 130.29 117.49 171.13 208.57 171.13c52.4004 0 103.79 -15.0703 141.24 -34.3906l8.91992 26.3398h66.9404l-88.8096 -504l-17.6396 -6c-54.1104 -42 -68.3701 -72 -73.3701 -95
c-1.05957 -5.12988 -1.55957 -9.78027 -1.55957 -13.9902c0 -23.6602 15.79 -33.1602 37.4404 -34.0098c32.5596 0 60.0195 20 83.3594 47l35.6904 -21c-35.0195 -45 -80.8193 -70 -130.72 -70c-38.8496 0 -85.5 20.2695 -85.5 73.9492
c0 5.94043 0.570312 12.2803 1.78027 19.0498c3.53027 21 17.4004 57 82.7607 105.06l6.2002 22.1104c-42.71 -22.8799 -93.3604 -32.1699 -138.65 -32.1699c-88.96 0 -170.32 38.6904 -170.32 137.471c0 11.5 1.09961 23.8096 3.41992 36.96zM369.947 83.4609
l64.8799 337.938c-25.54 11.8701 -66.5996 21 -105.63 21c-72.2305 0 -126.221 -32.6699 -140.94 -116.13l-29.5303 -166.93c-1.41992 -8.2998 -2.09961 -16.04 -2.09961 -23.2402c0 -53.5996 38.1104 -77.1191 98.5605 -77.1191c41.2197 0 81.5098 9.57031 114.76 24.4805z
" />
    <glyph glyph-name="aring" unicode="&#xe5;" 
d="M384.08 753.91c58.9004 0 102.939 -45.4199 102.939 -102.97c0 -67.8604 -65.7197 -131.38 -133.29 -131.38c-59.4297 0 -102.89 46.6396 -102.89 103.439c0 68.5703 66.5303 130.91 133.24 130.91zM387.029 708.4c-46.7598 0 -92.3105 -40.8184 -92.3105 -89.7285
c0 -31.1104 22.6699 -54.1807 55.96 -54.1807c46.2402 0 91.8398 42.1396 91.8398 90.3994c0 31.0996 -22.6396 53.5098 -55.4893 53.5098zM442.759 -0.00878906h-66.5195l4.5 24.1602c-42.71 -22.8799 -93.3604 -32.1602 -138.65 -32.1602
c-88.9502 0 -170.311 38.6904 -170.311 137.471c0 11.4902 1.09961 23.7998 3.41992 36.96l30.2402 171.49c22.9697 130.28 117.489 171.13 208.56 171.13c52.4102 0 103.79 -15.0703 141.24 -34.4004l8.91992 26.3496h66.9404zM369.939 83.4512l64.8799 337.938
c-25.5303 11.8701 -66.5898 21.0098 -105.62 21.0098c-72.2305 0 -126.221 -32.6699 -140.94 -116.14l-29.5303 -166.93c-1.41992 -8.2998 -2.09961 -16.04 -2.09961 -23.2402c0 -53.5996 38.1104 -77.1094 98.5508 -77.1094c41.2197 0 81.5098 9.57031 114.76 24.4707z" />
    <glyph glyph-name="atilde" unicode="&#xe3;" 
d="M226.76 598.25l-24.8311 40.6807c23.8496 21.2598 71.6396 58.2998 111.699 58.2998c52.9697 0 79.46 -40.75 119.729 -40.75c31.1504 0 66.9707 25.1504 81.5908 38.9307l24.46 -41.2305c-18.7197 -14.9404 -64.6797 -49.7002 -101.859 -49.7002
c-52.9697 0 -81.2197 39.5996 -123.47 39.5996c-31.5498 0 -68.3496 -26.8799 -87.3193 -45.8301zM442.759 0.000976562h-66.5195l4.5 24.1699c-42.71 -22.8799 -93.3604 -32.1699 -138.65 -32.1699c-88.9502 0 -170.311 38.6904 -170.311 137.471
c0 11.5 1.09961 23.8096 3.41992 36.96l30.2402 171.49c22.9697 130.29 117.489 171.13 208.56 171.13c52.4102 0 103.79 -15.0703 141.24 -34.3906l8.91992 26.3398h66.9404zM369.939 83.4707l64.8799 337.938c-25.5303 11.8701 -66.5898 21 -105.62 21
c-72.2305 0 -126.221 -32.6699 -140.94 -116.13l-29.5303 -166.93c-1.41992 -8.2998 -2.09961 -16.04 -2.09961 -23.2402c0 -53.5996 38.1104 -77.1191 98.5508 -77.1191c41.2197 0 81.5098 9.57031 114.76 24.4805z" />
    <glyph glyph-name="ae" unicode="&#xe6;" horiz-adv-x="812" 
d="M529.29 501l-8.80957 -46.7705c30.0801 31.4297 71.8701 49.2393 119.14 54.2197c9.24023 0.980469 18.7002 1.46094 28.3203 1.46094c107.64 0 166.59 -57.04 166.59 -139.55c0 -16.1797 -2.26953 -33.3398 -6.87988 -51.2402
c-24.2402 -93.5195 -106.37 -125.979 -190.55 -125.979c-45.5303 0 -91.6602 9.5 -129.54 23.9697l-14.5596 -67.46c-1.54004 -8.70996 -2.28027 -16.7402 -2.28027 -24.1104c0 -50.4902 34.9502 -70.4199 89.5801 -70.4199c50.5996 0 97.5693 16.1797 135.02 40.6494
l43.3398 -44.29c-48.04 -38.5 -108.39 -61.4805 -184.33 -61.4805c-58.7402 0 -100.83 16.1904 -122.6 47.4707l-8.96973 -37.4697h-66.5195l4.5 24.1602c-42.71 -22.8799 -93.3604 -32.1602 -138.65 -32.1602c-88.9502 0 -170.311 38.6904 -170.311 137.471
c0 11.4902 1.09961 23.7998 3.41992 36.96l30.2402 171.49c22.9697 130.28 117.489 171.13 208.56 171.13c52.4102 0 103.79 -15.0703 141.24 -34.4004l8.91992 26.3496h65.1299zM369.931 83.4795l64.8809 337.938c-25.5303 11.8701 -66.5898 21 -105.63 21
c-72.2305 0 -126.221 -32.6699 -140.931 -116.13l-29.54 -166.93c-1.41016 -8.2998 -2.10059 -16.04 -2.10059 -23.2402c0 -53.5996 38.1201 -77.1191 98.5605 -77.1191c41.2197 0 81.5098 9.57031 114.76 24.4805zM528.021 333.898l-10.3594 -56.8496
c23.5303 -12.7803 68.21 -25.9199 112.8 -25.9199c55.3398 0 110.55 20.25 125.05 86.5898c2.17969 9.92969 3.25 19.2197 3.25 27.8496c0 48.46 -33.7998 75.7803 -94.79 75.7803c-71.04 0 -123.55 -37.1299 -135.95 -107.45z" />
    <glyph glyph-name="b" unicode="b" 
d="M269.96 700l-40.5889 -215.648c37.7402 14.7598 86.5703 24.6895 128.29 24.6895c83.75 0 163.13 -35.3604 163.13 -136.601c0 -12.5303 -1.20996 -26.0801 -3.79004 -40.6904l-30.2402 -171.49c-22.46 -127.38 -124.79 -168.26 -216.4 -168.26
c-50.7803 0 -98.54 12.9805 -132.86 35.8604l-8.96973 -27.8604h-66.9404l123.43 700h84.9404zM402.711 165.512l29.5381 166.941c2.12012 12.0303 3.15039 22.8799 3.15039 32.6299c0 57.9199 -36.1201 77.3398 -93.25 77.3398
c-44.5195 0 -89.2891 -10.7402 -118.959 -22.6201l-64.9297 -338.17c28.0498 -14.9102 65.0098 -22.6406 100.75 -22.6406c74.04 0 130.91 36.4199 143.7 106.52z" />
    <glyph glyph-name="c" unicode="c" horiz-adv-x="446" 
d="M80.7803 198.12l19.5186 110.661c23.2402 131.83 110.61 201.11 229.83 201.11c76.6904 0 123.311 -32.9404 149.101 -79.8408l-68.9404 -23.8799c-21.9902 24.46 -49.9199 33.9697 -81.4795 33.9697c-70.8799 0 -128.35 -44.7002 -144.72 -137.521l-19.5098 -110.66
c-2.59961 -14.71 -3.83984 -28.0596 -3.83984 -40.0996c0 -63.9697 35.1396 -91.2598 90.1699 -91.2598c37.0498 0 73.3896 15.1699 103.62 39.6299l61.8096 -35.1396c-42.04 -46.8896 -95.5596 -74.0898 -166.76 -74.0898c-108.31 0 -173.34 56.79 -173.34 158.09
c0 15.3398 1.49023 31.6895 4.54004 49.0293z" />
    <glyph glyph-name="cacute" unicode="&#x107;" horiz-adv-x="446" 
d="M338.15 580.83h-60.5801l75.5303 119.17h85.3701zM80.7803 198.12l19.5186 110.671c23.2402 131.83 110.61 201.1 229.83 201.1c76.6904 0 123.311 -32.9404 149.101 -79.8301l-68.9404 -23.8799c-21.9902 24.46 -49.9199 33.9697 -81.4795 33.9697
c-70.8799 0 -128.35 -44.7002 -144.72 -137.53l-19.5098 -110.66c-2.59961 -14.71 -3.83984 -28.0498 -3.83984 -40.0996c0 -63.9697 35.1396 -91.2598 90.1699 -91.2598c37.0498 0 73.3896 15.1797 103.62 39.6396l61.8096 -35.1396
c-42.04 -46.9004 -95.5596 -74.1006 -166.76 -74.1006c-108.31 0 -173.34 56.7998 -173.34 158.1c0 15.3301 1.49023 31.6904 4.54004 49.0205z" />
    <glyph glyph-name="ccaron" unicode="&#x10d;" horiz-adv-x="446" 
d="M368.26 574.71h-81.5205l-102.89 139.52h71.0596l75.8398 -101.11l110.94 101.11h75.4902zM80.7793 198.12l19.5186 110.671c23.2402 131.83 110.61 201.1 229.83 201.1c76.6904 0 123.311 -32.9404 149.101 -79.8301l-68.9404 -23.8799
c-21.9902 24.46 -49.9199 33.9697 -81.4795 33.9697c-70.8799 0 -128.35 -44.7002 -144.72 -137.53l-19.5098 -110.66c-2.59961 -14.71 -3.83984 -28.0498 -3.83984 -40.0996c0 -63.9697 35.1396 -91.2598 90.1699 -91.2598c37.0498 0 73.3896 15.1797 103.62 39.6396
l61.8096 -35.1396c-42.04 -46.9004 -95.5596 -74.1006 -166.76 -74.1006c-108.31 0 -173.34 56.7998 -173.34 158.1c0 15.3301 1.49023 31.6904 4.54004 49.0205z" />
    <glyph glyph-name="ccedilla" unicode="&#xe7;" horiz-adv-x="446" 
d="M80.7803 198.12l19.5186 110.671c23.25 131.83 110.61 201.11 229.841 201.11c76.6797 0 123.31 -32.9404 149.1 -79.8408l-68.9404 -23.8799c-22 24.46 -49.9297 33.9697 -81.4893 33.9697c-70.8799 0 -128.35 -44.7002 -144.72 -137.521l-19.5098 -110.66
c-2.58984 -14.71 -3.83984 -28.0596 -3.83984 -40.0996c0 -63.9697 35.1504 -91.2598 90.1807 -91.2598c37.04 0 73.3896 15.1699 103.62 39.6299l61.7998 -35.1396c-37.1104 -34.7002 -78.0107 -57.5605 -123.411 -68.1006c-17.75 -4 -34.54 -5 -52.4404 -6l-39.6699 -36
c10.54 3.41992 21.6904 4.96973 31.8506 4.96973c4.70996 0 9.20996 -0.330078 13.3496 -0.969727c41.2402 -1.76953 74.96 -23.2295 74.96 -68.5498c0 -5.75977 -0.540039 -11.9102 -1.69043 -18.4502c-12.5 -71 -80.2197 -90 -140.35 -90
c-42.8096 0 -79.1494 16 -107.51 27l18.9502 37c26.1699 -15 56.8203 -21 78.6406 -23c42.1201 0 85.6504 20 92.6406 60c0.509766 2.90039 0.759766 5.62012 0.759766 8.16992c0 20.3496 -15.9297 29.8301 -41.5996 29.8301c-19.4404 0 -41.5605 -4 -73.2803 -18
l-17.5303 19l67.9805 74c-76.2402 14.7402 -121.721 68.5703 -121.721 153.34c0 15.2695 1.46973 31.5498 4.50977 48.7803z" />
    <glyph glyph-name="cdotaccent" unicode="&#x10b;" horiz-adv-x="446" 
d="M337.76 675.1c22.7197 0 38.7197 -16.6104 38.7197 -39.3604c0 -24.2598 -19.46 -45.1094 -43.0703 -45.1094c-23.6396 0 -40.3496 17.54 -40.3496 40.0801c0 25.3496 20.54 44.3896 44.7002 44.3896zM80.7793 198.109l19.5088 110.671
c23.25 131.83 110.61 201.1 229.841 201.1c76.6797 0 123.31 -32.9404 149.1 -79.8301l-68.9404 -23.8799c-22 24.46 -49.9297 33.9697 -81.4893 33.9697c-70.8799 0 -128.35 -44.7002 -144.72 -137.53l-19.5098 -110.66
c-2.58984 -14.71 -3.83984 -28.0498 -3.83984 -40.0996c0 -63.9697 35.1504 -91.2598 90.1807 -91.2598c37.04 0 73.3896 15.1797 103.62 39.6396l61.7998 -35.1396c-42.0303 -46.9004 -95.5498 -74.1006 -166.75 -74.1006c-108.32 0 -173.351 56.7998 -173.351 158.1
c0 15.3301 1.49023 31.6904 4.5498 49.0205z" />
    <glyph glyph-name="d" unicode="d" 
d="M442.76 0l-66.5303 -0.000976562l4.5 24.1602c-42.71 -22.8799 -93.3604 -32.1602 -138.65 -32.1602c-88.9502 0 -170.311 38.6904 -170.311 137.471c0 11.4902 1.09961 23.7998 3.41992 36.96l30.2402 171.49c23.3896 132.64 121.26 171.18 209.6 171.18
c47.2305 0 92.7109 -12.46 125.301 -27.25l40.9805 218.15h84.8799zM369.93 83.459l64.8799 337.938c-25.5303 11.8701 -66.5898 21.0098 -105.62 21.0098c-72.2305 0 -126.221 -32.6699 -140.94 -116.14l-29.5303 -166.93
c-1.41992 -8.2998 -2.09961 -16.04 -2.09961 -23.2402c0 -53.5996 38.1104 -77.1094 98.5508 -77.1094c41.2197 0 81.5098 9.57031 114.76 24.4707z" />
    <glyph glyph-name="eth" unicode="&#xf0;" horiz-adv-x="579" 
d="M616.22 687.82l-64.7461 -54.54c30.5898 -37.0098 44.79 -85.46 44.79 -134.99c0 -15.5098 -1.38965 -31.1299 -4.10938 -46.5303l-42.54 -241.27c-22.1104 -125.37 -136.86 -222.48 -261.761 -222.48c-116.3 0 -196.99 82.1699 -196.99 191.09
c0 13.1904 1.17969 26.7705 3.62988 40.6406c20.4199 115.82 131.63 206.83 255.39 206.83c53.1396 0 113.199 -21.2002 140.6 -83.1201l23.4297 119.84c1.76953 10.0498 2.78906 20.7695 2.78906 31.6895c0 27.2305 -6.33984 55.75 -23.2002 78.5498l-63.7998 -56.5801
l-28.6201 32.8604l61.2998 50.4199c-20.21 16.2197 -49.1396 26.1699 -87.2197 26.1699c-62.3799 0 -115.11 -25.8896 -143.931 -48.1494l-45.25 63.4297c34.8496 26.04 104.729 63.5098 189.979 63.5098c63.3203 0 109.601 -17.4199 141.99 -42.9697l69.6299 58.4502z
M352.304 353.94c-87.29 0 -160.87 -65.7402 -175.58 -149.2c-1.58984 -8.99023 -2.35938 -17.75 -2.35938 -26.2002c0 -64.2695 44.6201 -111.239 116.43 -111.239c95.6299 0 177.14 81.2998 177.14 175.31c0 67.1797 -44.7803 111.33 -115.63 111.33z" />
    <glyph glyph-name="dcaron" unicode="&#x10f;" horiz-adv-x="613" 
d="M617.77 623.61l41.3291 76.5088c-8.2002 7.33008 -14.4199 18.9697 -14.4199 33.29c0 27.46 24.8799 51.9102 51.9199 51.9102c26.3604 0 45.6104 -20.3301 45.6104 -45.96c0 -3.01953 -0.259766 -6.10938 -0.819336 -9.24902
c-0.889648 -5.08984 -3.29004 -12.6201 -7.20996 -19.4502l-58.7197 -87.0498h-57.6904zM442.759 -0.000976562l-66.5293 -0.000976562l4.5 24.1602c-42.71 -22.8799 -93.3496 -32.1602 -138.649 -32.1602c-88.9502 0 -170.311 38.6904 -170.311 137.471
c0 11.4902 1.09961 23.7998 3.41992 36.96l30.2402 171.49c23.3896 132.64 121.26 171.18 209.6 171.18c47.2402 0 92.71 -12.46 125.31 -27.25l40.9697 218.15h84.8799zM369.939 83.458l64.8809 337.938c-25.54 11.8701 -66.5996 21.0098 -105.63 21.0098
c-72.2305 0 -126.221 -32.6699 -140.931 -116.14l-29.54 -166.93c-1.41016 -8.2998 -2.10059 -16.04 -2.10059 -23.2402c0 -53.5996 38.1201 -77.1094 98.5605 -77.1094c41.2197 0 81.5098 9.57031 114.76 24.4707z" />
    <glyph glyph-name="dcroat" unicode="&#x111;" horiz-adv-x="530" 
d="M553.49 627.98l63.3213 -0.000976562l-8.37012 -47.4697h-63.3301l-102.36 -580.52h-66.5195l4.49023 24.1699c-42.7002 -22.8799 -93.3506 -32.1699 -138.641 -32.1699c-88.9502 0 -170.311 38.6904 -170.311 137.471c0 11.5 1.09961 23.8096 3.41992 36.96
l30.2402 171.5c23.3799 132.64 121.26 171.18 209.609 171.18c47.2305 0 92.7002 -12.46 125.29 -27.25l19.9102 98.6602h-124.45l8.37012 47.4697h124.45l12.7002 72.0195h84.8799zM369.932 83.46l64.8701 337.938c-25.5303 11.8701 -66.5898 21 -105.62 21
c-72.2305 0 -126.221 -32.6602 -140.94 -116.13l-29.5303 -166.93c-1.41992 -8.2998 -2.09961 -16.04 -2.09961 -23.2305c0 -53.5996 38.1201 -77.1191 98.5605 -77.1191c41.2197 0 81.5098 9.57031 114.76 24.4707z" />
    <glyph glyph-name="e" unicode="e" horiz-adv-x="473" 
d="M74.8096 164.24l28.6094 162.362c17.29 98.0195 78.4902 160.31 169.57 178.069c17.8203 3.46973 36.79 5.23926 56.79 5.23926c107.64 0 166.59 -57.04 166.59 -139.55c0 -16.1797 -2.26953 -33.3398 -6.87988 -51.2402
c-24.1797 -93.3096 -106.93 -125.63 -191.569 -125.63c-46.0801 0 -92.71 9.58008 -130.76 24.1104l-12.3301 -67.9502c-1.53027 -8.70996 -2.28027 -16.7402 -2.28027 -24.1104c0 -50.4902 34.96 -70.4199 89.5898 -70.4199c50.5996 0 97.5693 16.1797 135.02 40.6494
l43.3398 -44.29c-48.0498 -38.5 -108.39 -61.4805 -184.34 -61.4805c-112.13 0 -164.7 57.2803 -164.7 137.63c0 11.75 1.12012 23.9902 3.35059 36.6104zM187.159 333.043l-10.3594 -56.8496c23.5303 -12.7695 68.21 -25.9199 112.8 -25.9199
c55.3398 0 110.55 20.25 125.05 86.5898c2.17969 9.92969 3.25 19.2295 3.25 27.8496c0 48.4697 -33.7998 75.79 -94.79 75.79c-71.04 0 -123.55 -37.1299 -135.95 -107.46z" />
    <glyph glyph-name="e.ss01" horiz-adv-x="473" 
d="M74.8096 164.24l28.6201 162.352c17.79 100.93 82.1602 163.979 177.8 179.539c15.4102 2.5 31.6406 3.78027 48.6104 3.78027c110.78 0 163.63 -56.4502 163.63 -143.36c0 -14.04 -1.37988 -28.8799 -4.12012 -44.3994l-17.9004 -101.53h-304.1l-12.5195 -70.9697
c-1.53027 -8.70996 -2.28027 -16.7402 -2.28027 -24.1104c0 -50.4902 34.96 -70.4199 89.5898 -70.4199c50.5996 0 97.5693 16.1797 135.02 40.6494l43.3398 -44.29c-48.0498 -38.5 -108.39 -61.4805 -184.34 -61.4805c-112.13 0 -164.7 57.2803 -164.7 137.63
c0 11.75 1.12012 23.9902 3.35059 36.6104zM401.56 276.642l9.58008 54.3799c1.99023 11.25 2.91992 21.46 2.91992 30.71c0 61.4902 -41.0898 80.54 -86.6094 80.54c-62.8398 0 -124.6 -33.21 -139.75 -119.14l-8.2002 -46.4902h222.06z" />
    <glyph glyph-name="eacute" unicode="&#xe9;" horiz-adv-x="473" 
d="M354.72 580.83h-60.5693l75.5195 119.17h85.3799zM74.8105 164.24l28.6094 162.362c17.29 98.0195 78.4902 160.31 169.57 178.069c17.8203 3.46973 36.79 5.23926 56.79 5.23926c107.64 0 166.59 -57.04 166.59 -139.55c0 -16.1797 -2.26953 -33.3398 -6.87988 -51.2402
c-24.1797 -93.3096 -106.93 -125.63 -191.569 -125.63c-46.0801 0 -92.71 9.58008 -130.76 24.1104l-12.3301 -67.9502c-1.53027 -8.70996 -2.28027 -16.7402 -2.28027 -24.1104c0 -50.4902 34.96 -70.4199 89.5898 -70.4199c50.5996 0 97.5693 16.1797 135.02 40.6494
l43.3398 -44.29c-48.0498 -38.5 -108.39 -61.4805 -184.34 -61.4805c-112.13 0 -164.7 57.2803 -164.7 137.63c0 11.75 1.12012 23.9902 3.35059 36.6104zM187.16 333.043l-10.3594 -56.8496c23.5303 -12.7695 68.21 -25.9199 112.8 -25.9199
c55.3398 0 110.55 20.25 125.05 86.5898c2.17969 9.92969 3.25 19.2295 3.25 27.8496c0 48.4697 -33.7998 75.79 -94.79 75.79c-71.04 0 -123.55 -37.1299 -135.95 -107.46z" />
    <glyph glyph-name="ecaron" unicode="&#x11b;" horiz-adv-x="473" 
d="M384.83 574.71h-81.5205l-102.89 139.52h71.0596l75.8398 -101.11l110.94 101.11h75.4902zM74.8096 164.24l28.6094 162.362c17.29 98.0195 78.4902 160.31 169.57 178.069c17.8203 3.46973 36.79 5.23926 56.79 5.23926c107.64 0 166.59 -57.04 166.59 -139.55
c0 -16.1797 -2.26953 -33.3398 -6.87988 -51.2402c-24.1797 -93.3096 -106.93 -125.63 -191.569 -125.63c-46.0801 0 -92.71 9.58008 -130.76 24.1104l-12.3301 -67.9502c-1.53027 -8.70996 -2.28027 -16.7402 -2.28027 -24.1104
c0 -50.4902 34.96 -70.4199 89.5898 -70.4199c50.5996 0 97.5693 16.1797 135.02 40.6494l43.3398 -44.29c-48.0498 -38.5 -108.39 -61.4805 -184.34 -61.4805c-112.13 0 -164.7 57.2803 -164.7 137.63c0 11.75 1.12012 23.9902 3.35059 36.6104zM187.159 333.043
l-10.3594 -56.8496c23.5303 -12.7695 68.21 -25.9199 112.8 -25.9199c55.3398 0 110.55 20.25 125.05 86.5898c2.17969 9.92969 3.25 19.2295 3.25 27.8496c0 48.4697 -33.7998 75.79 -94.79 75.79c-71.04 0 -123.55 -37.1299 -135.95 -107.46z" />
    <glyph glyph-name="ecircumflex" unicode="&#xea;" horiz-adv-x="473" 
d="M507.46 572.41h-71.3193l-73.21 101.11l-113.59 -101.11h-75.21l152.09 139.52h81.5195zM74.8105 164.24l28.6094 162.362c17.29 98.0195 78.4902 160.31 169.57 178.069c17.8203 3.46973 36.79 5.23926 56.79 5.23926c107.64 0 166.59 -57.04 166.59 -139.55
c0 -16.1797 -2.26953 -33.3398 -6.87988 -51.2402c-24.1797 -93.3096 -106.93 -125.63 -191.569 -125.63c-46.0801 0 -92.71 9.58008 -130.76 24.1104l-12.3301 -67.9502c-1.53027 -8.70996 -2.28027 -16.7402 -2.28027 -24.1104
c0 -50.4902 34.96 -70.4199 89.5898 -70.4199c50.5996 0 97.5693 16.1797 135.02 40.6494l43.3398 -44.29c-48.0498 -38.5 -108.39 -61.4805 -184.34 -61.4805c-112.13 0 -164.7 57.2803 -164.7 137.63c0 11.75 1.12012 23.9902 3.35059 36.6104zM187.16 333.043
l-10.3594 -56.8496c23.5303 -12.7695 68.21 -25.9199 112.8 -25.9199c55.3398 0 110.55 20.25 125.05 86.5898c2.17969 9.92969 3.25 19.2295 3.25 27.8496c0 48.4697 -33.7998 75.79 -94.79 75.79c-71.04 0 -123.55 -37.1299 -135.95 -107.46z" />
    <glyph glyph-name="edieresis" unicode="&#xeb;" horiz-adv-x="473" 
d="M263.56 675.1c22.7197 0 38.7109 -16.6104 38.7109 -39.3604c0 -24.2598 -19.4502 -45.1094 -43.0605 -45.1094c-23.6504 0 -40.3506 17.54 -40.3506 40.0801c0 25.3496 20.54 44.3896 44.7002 44.3896zM449.421 675.1c22.7197 0 38.7109 -16.6201 38.7109 -39.3701
c0 -24.2598 -19.4502 -45.0996 -43.0605 -45.0996c-23.6504 0 -40.3506 17.5303 -40.3506 40.0801c0 25.3398 20.54 44.3896 44.7002 44.3896zM74.8018 164.229l28.6094 162.362c17.29 98.0195 78.4902 160.31 169.57 178.069c17.8203 3.46973 36.79 5.23926 56.79 5.23926
c107.64 0 166.59 -57.04 166.59 -139.55c0 -16.1797 -2.26953 -33.3398 -6.87988 -51.2402c-24.1797 -93.3096 -106.93 -125.63 -191.569 -125.63c-46.0801 0 -92.71 9.58008 -130.76 24.1104l-12.3301 -67.9502c-1.53027 -8.70996 -2.28027 -16.7402 -2.28027 -24.1104
c0 -50.4902 34.96 -70.4199 89.5898 -70.4199c50.5996 0 97.5693 16.1797 135.02 40.6494l43.3398 -44.29c-48.0498 -38.5 -108.39 -61.4805 -184.34 -61.4805c-112.13 0 -164.7 57.2803 -164.7 137.63c0 11.75 1.12012 23.9902 3.35059 36.6104zM187.151 333.032
l-10.3594 -56.8496c23.5303 -12.7695 68.21 -25.9199 112.8 -25.9199c55.3398 0 110.55 20.25 125.05 86.5898c2.17969 9.92969 3.25 19.2295 3.25 27.8496c0 48.4697 -33.7998 75.79 -94.79 75.79c-71.04 0 -123.55 -37.1299 -135.95 -107.46z" />
    <glyph glyph-name="edotaccent" unicode="&#x117;" horiz-adv-x="473" 
d="M354.34 675.1c22.7197 0 38.7109 -16.6104 38.7109 -39.3604c0 -24.2598 -19.4502 -45.1094 -43.0605 -45.1094c-23.6504 0 -40.3506 17.54 -40.3506 40.0801c0 25.3496 20.54 44.3896 44.7002 44.3896zM74.8008 164.239l28.6201 162.359
c17.2803 98.0098 78.4805 160.3 169.57 178.06c17.8203 3.48047 36.7803 5.25 56.7803 5.25c107.65 0 166.591 -57.0498 166.591 -139.55c0 -16.1797 -2.25977 -33.3398 -6.87012 -51.2402c-24.1904 -93.3096 -106.94 -125.63 -191.57 -125.63
c-46.0801 0 -92.7197 9.58008 -130.76 24.1104l-12.3301 -67.96c-1.54004 -8.70996 -2.28027 -16.7295 -2.28027 -24.0996c0 -50.4902 34.9502 -70.4199 89.5801 -70.4199c50.5996 0 97.5693 16.1699 135.02 40.6504l43.3398 -44.29
c-48.04 -38.5 -108.39 -61.4902 -184.33 -61.4902c-112.13 0 -164.71 57.29 -164.71 137.63c0 11.75 1.12988 23.9902 3.34961 36.6201zM187.161 333.039l-10.3691 -56.8496c23.54 -12.7803 68.21 -25.9199 112.8 -25.9199c55.3398 0 110.55 20.25 125.06 86.5898
c2.17969 9.92969 3.25 19.2197 3.25 27.8496c0 48.46 -33.8096 75.7803 -94.7998 75.7803c-71.0303 0 -123.54 -37.1299 -135.94 -107.45z" />
    <glyph glyph-name="egrave" unicode="&#xe8;" horiz-adv-x="473" 
d="M406.92 580.83h-56.5693l-58.2305 119.17h81.2998zM74.8105 164.24l28.6094 162.362c17.29 98.0195 78.4902 160.31 169.57 178.069c17.8203 3.46973 36.79 5.23926 56.79 5.23926c107.64 0 166.59 -57.04 166.59 -139.55
c0 -16.1797 -2.26953 -33.3398 -6.87988 -51.2402c-24.1797 -93.3096 -106.93 -125.63 -191.569 -125.63c-46.0801 0 -92.71 9.58008 -130.76 24.1104l-12.3301 -67.9502c-1.53027 -8.70996 -2.28027 -16.7402 -2.28027 -24.1104
c0 -50.4902 34.96 -70.4199 89.5898 -70.4199c50.5996 0 97.5693 16.1797 135.02 40.6494l43.3398 -44.29c-48.0498 -38.5 -108.39 -61.4805 -184.34 -61.4805c-112.13 0 -164.7 57.2803 -164.7 137.63c0 11.75 1.12012 23.9902 3.35059 36.6104zM187.16 333.043
l-10.3594 -56.8496c23.5303 -12.7695 68.21 -25.9199 112.8 -25.9199c55.3398 0 110.55 20.25 125.05 86.5898c2.17969 9.92969 3.25 19.2295 3.25 27.8496c0 48.4697 -33.7998 75.79 -94.79 75.79c-71.04 0 -123.55 -37.1299 -135.95 -107.46z" />
    <glyph glyph-name="emacron" unicode="&#x113;" horiz-adv-x="473" 
d="M469.14 617.02h-242.62l8.37988 47.5098h242.62zM74.8096 164.239l28.6094 162.362c17.29 98.0195 78.4902 160.31 169.57 178.069c17.8203 3.46973 36.79 5.23926 56.79 5.23926c107.64 0 166.59 -57.04 166.59 -139.55c0 -16.1797 -2.26953 -33.3398 -6.87988 -51.2402
c-24.1797 -93.3096 -106.93 -125.63 -191.569 -125.63c-46.0801 0 -92.71 9.58008 -130.76 24.1104l-12.3301 -67.9502c-1.53027 -8.70996 -2.28027 -16.7402 -2.28027 -24.1104c0 -50.4902 34.96 -70.4199 89.5898 -70.4199c50.5996 0 97.5693 16.1797 135.02 40.6494
l43.3398 -44.29c-48.0498 -38.5 -108.39 -61.4805 -184.34 -61.4805c-112.13 0 -164.7 57.2803 -164.7 137.63c0 11.75 1.12012 23.9902 3.35059 36.6104zM187.159 333.042l-10.3594 -56.8496c23.5303 -12.7695 68.21 -25.9199 112.8 -25.9199
c55.3398 0 110.55 20.25 125.05 86.5898c2.17969 9.92969 3.25 19.2295 3.25 27.8496c0 48.4697 -33.7998 75.79 -94.79 75.79c-71.04 0 -123.55 -37.1299 -135.95 -107.46z" />
    <glyph glyph-name="eogonek" unicode="&#x119;" horiz-adv-x="473" 
d="M74.8096 164.24l28.6094 161.98c17.2803 98.0195 78.4805 160.31 169.57 178.069c17.8203 3.46973 36.7803 5.23926 56.7803 5.23926c107.65 0 166.591 -57.04 166.591 -139.55c0 -16.1797 -2.25977 -33.3398 -6.87012 -51.2402
c-24.1904 -93.3096 -106.94 -125.63 -191.57 -125.63c-46.0801 0 -92.7197 9.58008 -130.76 24.1104l-12.3301 -67.9502c-1.54004 -8.71973 -2.28027 -16.7393 -2.28027 -24.1094c0 -50.4902 34.9502 -70.4199 89.5801 -70.4199c50.5996 0 97.5693 16.1699 135.02 40.6504
l43.3398 -44.29c-26.2197 -21.0098 -56.0596 -37.4395 -89.96 -48.0996c-67.4805 -50 -83.6406 -83 -89.1211 -107c-1.05957 -5.13965 -1.55957 -9.7998 -1.55957 -14.0098c0 -23.6504 15.79 -33.1406 37.4297 -33.9902c32.5596 0 60.0195 20 83.3594 47l35.6904 -21
c-35.0195 -45 -80.8193 -70 -130.72 -70c-38.8496 0 -85.5 20.2695 -85.5 73.9492c0 5.92969 0.570312 12.2793 1.78027 19.0488c3.34961 20 15.8594 52 70.6094 95c-22.0303 0 -42.46 2 -60.9297 6c-78.2695 13.79 -119.989 61.4502 -119.989 131.15
c0 11.1504 1.07031 22.8604 3.23047 35.0908zM187.159 332.661l-10.3691 -56.8496c23.54 -12.7695 68.21 -25.9199 112.8 -25.9199c55.3398 0 110.55 20.25 125.06 86.5898c2.17969 9.92969 3.25 19.2295 3.25 27.8496c0 48.4697 -33.8096 75.79 -94.7998 75.79
c-71.0303 0 -123.54 -37.1299 -135.94 -107.46z" />
    <glyph glyph-name="f" unicode="f" horiz-adv-x="301" 
d="M31.5098 -187l129.159 732.621c22.2803 126.35 112.511 165.649 191.94 165.649c19.3096 0 35.0898 -2.16016 50.0996 -5.02051l-6.45996 -67.8604c-8 1.28027 -15.9902 1.9707 -23.5498 1.9707c-7.65039 0 -14.8701 -0.700195 -21.2598 -2.21973
c-47.4805 -4.48047 -95.7002 -35.2705 -108.82 -109.28l-4.92969 -27.8604h122.9l-11.6396 -66.04h-122.91l-109.61 -621.96h-84.9199z" />
    <glyph glyph-name="g" unicode="g" 
d="M76.7197 175.1l29.1592 165.337c22.46 127.38 124.79 168.41 216.4 168.41c50.7803 0 98.54 -13.1299 132.86 -36.0098l8.96973 27.8701h66.9404l-93.3096 -529.71c-20.4902 -116 -101.641 -166 -197.36 -166c-66.3799 0 -124.71 20 -173.14 55l38.1504 46
c33.9297 -23.1396 72.7598 -36.0596 114.899 -36.0596c68.2197 0 117.47 27.4404 131.239 101.061l9.91016 53.5801c-36.9102 -16.1396 -83.4697 -24.54 -126.39 -24.54c-86.8096 0 -162.1 36.3604 -162.1 134.57c0 12.4805 1.20996 25.9609 3.76953 40.4912z
M370.369 86.0664l64.0117 332.988c-28.04 14.9102 -65.0098 22.6406 -100.75 22.6406c-74.04 0 -130.91 -36.4199 -143.7 -106.52l-28.6201 -161.76c-2.12012 -12.0303 -3.15039 -22.8799 -3.15039 -32.6299c0 -57.9199 36.1201 -77.3301 93.25 -77.3301
c44.5195 0 89.2891 10.7402 118.959 22.6104z" />
    <glyph glyph-name="gbreve" unicode="&#x11f;" 
d="M473.33 706.66l41.4805 -6.14941c-13.6602 -77.46 -81.2002 -130.24 -156.44 -130.24c-72.2402 0 -122.53 47.21 -122.53 112.65c0 7.67969 0.69043 15.6201 2.13086 23.7598l40.9199 -6.15039c-5.63965 -48.9102 27.4404 -82.1699 77 -82.1699
c54.4697 0 105.84 39.3896 117.439 88.2998zM76.7207 175.101l29.1533 165.348c22.46 127.38 124.79 168.41 216.4 168.41c50.7803 0 98.5498 -13.1299 132.87 -36.0098l8.96973 27.8604h66.9297l-93.2998 -529.71c-20.4902 -116 -101.641 -166 -197.371 -166
c-66.3701 0 -124.71 20 -173.13 55l38.1504 46c33.9297 -23.1396 72.75 -36.0498 114.89 -36.0498c68.2197 0 117.47 27.4297 131.239 101.05l9.76953 53.3096c-36.9102 -16.1396 -83.3203 -24.2695 -126.23 -24.2695c-86.8203 0 -162.12 36.3604 -162.12 134.57
c0 12.4805 1.21973 25.9609 3.7793 40.4912zM370.364 86.0684l64.0205 332.998c-28.0498 14.9004 -65.0195 22.6309 -100.75 22.6309c-74.0498 0 -130.92 -36.4199 -143.7 -106.51l-28.6299 -161.77c-2.12012 -12.0303 -3.13965 -22.8701 -3.13965 -32.6299
c0 -57.9199 36.1201 -77.3301 93.2402 -77.3301c44.5195 0 89.2891 10.7402 118.959 22.6104z" />
    <glyph glyph-name="gcommaaccent" unicode="&#x123;" 
d="M425.83 708l-31.04 -55.5703c5.95996 -5.37988 10.9404 -13.8496 10.9404 -24.5801c0 -17.8301 -15.9199 -33.9199 -33.6602 -33.9199c-21.0801 0 -35.9297 18.5996 -32.1699 39.8896c0.410156 2.32031 1.87988 7.16992 4.2998 12.1504l42.2998 62.0303h39.3301z
M76.7197 175.1l29.1611 165.348c22.46 127.38 124.79 168.41 216.4 168.41c50.7803 0 98.54 -13.1299 132.86 -36.0098l8.96973 27.8604h66.9404l-93.3096 -529.71c-20.4902 -116 -101.641 -166 -197.36 -166c-66.3799 0 -124.71 20 -173.14 55l38.1504 46
c33.9297 -23.1396 72.7598 -36.0498 114.899 -36.0498c68.2197 0 117.47 27.4297 131.239 101.05l9.79004 53.3096c-36.9004 -16.1396 -83.3408 -24.2695 -126.261 -24.2695c-86.8203 0 -162.11 36.3604 -162.11 134.57c0 12.4805 1.20996 25.9609 3.76953 40.4912z
M370.371 86.0674l64.0117 332.998c-28.04 14.9004 -65.0098 22.6309 -100.75 22.6309c-74.04 0 -130.91 -36.4199 -143.7 -106.51l-28.6201 -161.77c-2.12012 -12.0303 -3.15039 -22.8701 -3.15039 -32.6299c0 -57.9199 36.1201 -77.3301 93.25 -77.3301
c44.5195 0 89.2891 10.7402 118.959 22.6104z" />
    <glyph glyph-name="gdotaccent" unicode="&#x121;" 
d="M366.96 675.11c22.7197 0 38.7109 -16.6104 38.7109 -39.3604c0 -24.2695 -19.4502 -45.1094 -43.0605 -45.1094c-23.6504 0 -40.3506 17.5303 -40.3506 40.0801c0 25.3398 20.54 44.3896 44.7002 44.3896zM76.7207 175.101l29.1602 165.348
c22.46 127.38 124.79 168.41 216.4 168.41c50.7803 0 98.54 -13.1299 132.86 -36.0098l8.96973 27.8701h66.9404l-93.3096 -529.71c-20.4902 -116 -101.641 -166 -197.36 -166c-66.3799 0 -124.71 20 -173.14 55l38.1504 46
c33.9297 -23.1396 72.7598 -36.0596 114.899 -36.0596c68.2197 0 117.47 27.4404 131.239 101.061l9.91016 53.2998c-36.9004 -16.1396 -83.46 -24.2695 -126.38 -24.2695c-86.8203 0 -162.11 36.3604 -162.11 134.58c0 12.4805 1.20996 25.9502 3.76953 40.4805z
M370.371 86.0781l64.0117 332.988c-28.04 14.9102 -65.0098 22.6406 -100.75 22.6406c-74.04 0 -130.91 -36.4199 -143.7 -106.52l-28.6201 -161.76c-2.12012 -12.0303 -3.15039 -22.8799 -3.15039 -32.6299c0 -57.9199 36.1201 -77.3301 93.25 -77.3301
c44.5195 0 89.2891 10.7402 118.959 22.6104z" />
    <glyph glyph-name="h" unicode="h" horiz-adv-x="520" 
d="M274.96 700l-40.7822 -216.769c40.0098 18.1699 85.5195 25.8096 125.479 25.8096c85.8701 0 166.271 -36.2998 166.271 -136.52c0 -12.0703 -1.16016 -25.0703 -3.62988 -39.0508l-58.7998 -333.47h-84.8799l59.0303 334.74
c1.92969 10.9697 2.87012 20.9795 2.87012 30.0898c0 56.3896 -35.9697 78.1592 -94.4297 78.1592c-42.2197 0 -84.0195 -10.1699 -118.27 -24.9199l-76.3496 -418.07h-84.8799l123.43 700h84.9404z" />
    <glyph glyph-name="hbar" unicode="&#x127;" horiz-adv-x="544" 
d="M285.46 623.58l170.039 -0.0078125l-8.26953 -46.8799h-169.86l-19.1104 -93.2402c40.0098 18.1699 85.5195 25.8096 125.46 25.8096c85.8896 0 166.29 -36.2998 166.29 -136.52c0 -12.0703 -1.16016 -25.0703 -3.62988 -39.0508l-58.7998 -333.47h-84.8799
l59.0303 334.75c1.92969 10.9697 2.87012 20.9795 2.87012 30.0898c0 56.3799 -35.9697 78.1494 -94.4297 78.1494c-42.2197 0 -84.0195 -10.1602 -118.27 -24.9102l-76.3496 -418.07h-84.8799l101.64 576.47h-76.0303l8.26953 46.8799h76.0303l13.5098 76.6504h84.8799z
" />
    <glyph glyph-name="i" unicode="i" horiz-adv-x="220" 
d="M232.73 709.35c25.9697 0 42.9004 -17.1807 42.9004 -41.6807c0 -25.4404 -18.0703 -50.4902 -48.1807 -50.4902c-26.0703 0 -43.6201 18.0303 -43.6201 42.8506c0 32.0898 24.3701 49.3203 48.9004 49.3203zM155.142 0.0390625h-84.8799l88.3203 500.91h84.8799z" />
    <glyph glyph-name="dotlessi" unicode="&#x131;" horiz-adv-x="171" 
d="M129.85 0.0400391h-84.8799l88.3301 500.91h84.8799z" />
    <glyph glyph-name="iacute" unicode="&#xed;" horiz-adv-x="174" 
d="M197.98 580.83h-60.5693l75.5195 119.17h85.3701zM129.852 0.0400391h-84.8799l88.3301 500.91h84.8799z" />
    <glyph glyph-name="icaron" unicode="&#x1d0;" horiz-adv-x="171" 
d="M233.51 574.71h-81.5205l-102.82 139.52h71.2305l75.5996 -101.11l110.94 101.11h75.4902zM129.85 0.0400391h-84.8799l88.3301 500.91h84.8799z" />
    <glyph glyph-name="icircumflex" unicode="&#xee;" horiz-adv-x="171" 
d="M356.14 572.41h-71.3193l-73.21 101.11l-113.34 -101.11h-75.3398l151.97 139.52h81.5195zM129.851 0.0400391h-84.8799l88.3301 500.91h84.8799z" />
    <glyph glyph-name="idieresis" unicode="&#xef;" horiz-adv-x="171" 
d="M111.95 675.1c22.7197 0 38.7207 -16.6201 38.7207 -39.3701c0 -24.2598 -19.46 -45.0996 -43.0703 -45.0996c-23.7402 0 -40.4502 17.5303 -40.4502 40.0801c0 25.3496 20.5303 44.3896 44.7998 44.3896zM298.102 675.09c22.7197 0 38.7109 -16.6104 38.7109 -39.3604
c0 -24.2598 -19.4502 -45.1094 -43.0605 -45.1094c-23.6504 0 -40.3506 17.54 -40.3506 40.0801c0 25.3496 20.54 44.3896 44.7002 44.3896zM129.843 0.0302734h-84.8799l88.3301 500.91h84.8799z" />
    <glyph glyph-name="igrave" unicode="&#xec;" horiz-adv-x="171" 
d="M245.86 580.83h-56.5703l-58.1602 119.17h81.2305zM129.85 0.0400391h-84.8799l88.3203 500.91h84.8799z" />
    <glyph glyph-name="ij" unicode="&#x133;" horiz-adv-x="438" 
d="M450.57 709.4c25.9697 0 42.9004 -17.1807 42.9004 -41.6807c0 -25.4502 -18.0703 -50.5 -48.1807 -50.5c-26.0801 0 -43.6201 18.0303 -43.6201 42.8506c0 32.0898 24.3701 49.3301 48.9004 49.3301zM232.731 709.35c25.9697 0 42.9004 -17.1807 42.9004 -41.6807
c0 -25.4502 -18.0703 -50.5 -48.1807 -50.5c-26.0703 0 -43.6201 18.0303 -43.6201 42.8506c0 32.0898 24.3701 49.3301 48.9004 49.3301zM461.302 500.989l-97.4385 -553c-13.9004 -79 -68.6006 -121 -134.62 -137c-17.8701 -3 -33.9697 -6 -51.5801 -6l4.7998 68
c18.7402 1 36.6201 6 50.8105 17c29.3496 17 43.9092 48 49.2588 79l93.8896 532h84.8799zM155.133 0.0292969h-84.8799l88.3301 500.91h84.8799z" />
    <glyph glyph-name="imacron" unicode="&#x12b;" horiz-adv-x="171" 
d="M313.6 604.25h-242.74l8.37988 47.5098h242.74zM129.85 0.0400391h-84.8799l88.3301 500.91h84.8799z" />
    <glyph glyph-name="iogonek" unicode="&#x12f;" horiz-adv-x="171" 
d="M202.44 675.1c22.7197 0 38.7197 -16.6104 38.7197 -39.3604c0 -24.2598 -19.46 -45.1094 -43.0703 -45.1094c-23.6396 0 -40.3496 17.54 -40.3496 40.0801c0 25.3496 20.54 44.3896 44.7002 44.3896zM217.95 499.8l-86.6787 -501.819
c-70.8496 -50 -87.1699 -85 -92.7695 -110c-1 -4.88965 -1.48047 -9.34961 -1.48047 -13.3896c0 -24.0703 16.9297 -33.6406 39.9297 -33.6406c31.46 0 58.1797 19.71 80.9492 47.04l35.7002 -21c-35.0098 -46 -80.7197 -69 -130.64 -69
c-38.6904 0 -85.6904 18.7305 -85.6904 73.0703c0 5.88965 0.549805 12.1895 1.71973 18.9297c4 21 20 62 91.1201 108l-25.2305 2.04004l88.21 499.77h84.8604z" />
    <glyph glyph-name="j" unicode="j" horiz-adv-x="218" 
d="M230.28 709.4c25.9697 0 42.8906 -17.1807 42.8906 -41.6807c0 -25.4502 -18.0703 -50.5 -48.1807 -50.5c-26.0703 0 -43.6201 18.0303 -43.6201 42.8506c0 32.0898 24.3701 49.3301 48.9102 49.3301zM241.001 500.989l-97.4395 -553
c-13.9102 -79 -68.6104 -121 -134.521 -137c-18.04 -3 -34.04 -6 -52.04 -6l5 68c18 1 35 5 48.3604 14c30.5 17 46.0801 49 51.8701 82l93.8896 532h84.8799z" />
    <glyph glyph-name="k" unicode="k" horiz-adv-x="507" 
d="M202.88 297.31l243.161 210.9h104.94l-229.68 -205.92l168 -302.29h-93.4902l-132.66 243.82l-78.7803 -63l-32.9004 -180.82h-84.8799l123.43 700h84.8896z" />
    <glyph glyph-name="kcommaaccent" unicode="&#x137;" horiz-adv-x="507" 
d="M202.88 297.31l243.161 210.9h104.94l-229.68 -205.92l168 -302.29h-93.4902l-132.66 243.82l-78.7803 -63l-32.9004 -180.82h-84.8799l123.43 700h84.8896zM180.041 -206l31.0498 55c-5.95996 5.87988 -10.9404 14.5801 -10.9404 24.9297
c0 18.9502 16.1504 34.0703 33.6602 34.0703c21.0801 0 35.9199 -19 32.1699 -40c-0.410156 -2 -1.87988 -7 -4.2998 -12l-42.2998 -62h-39.3398z" />
    <glyph glyph-name="l" unicode="l" horiz-adv-x="208" 
d="M151.47 0h-84.8799l123.43 700h84.8799z" />
    <glyph glyph-name="lacute" unicode="&#x13a;" horiz-adv-x="208" 
d="M279.66 780.24h-60.5801l75.5303 119.17h85.3701zM151.47 0h-84.8799l123.43 700h84.8799z" />
    <glyph glyph-name="lcaron" unicode="&#x13e;" horiz-adv-x="321" 
d="M326.48 623.6l41.3203 76.5195c-8.19043 7.33008 -14.4209 18.9697 -14.4209 33.2793c0 27.46 24.8896 51.9199 51.9297 51.9199c26.3604 0 45.6104 -20.3398 45.6104 -45.9697c0 -3.01953 -0.259766 -6.10938 -0.819336 -9.24902
c-0.889648 -5.08008 -3.29004 -12.6201 -7.20996 -19.4404l-58.7197 -87.0596h-57.6904zM151.471 -0.0107422h-84.8799l123.43 700h84.8799z" />
    <glyph glyph-name="lcommaaccent" unicode="&#x13c;" horiz-adv-x="208" 
d="M151.47 0h-84.8799l123.43 700h84.8799zM34.8203 -206l31.04 55c-5.95996 5.87988 -10.9404 14.5801 -10.9404 24.9297c0 18.9502 16.1504 34.0703 33.6602 34.0703c21.0801 0 35.9199 -19 32.1699 -40c-0.410156 -2 -1.87988 -7 -4.2998 -12l-42.2998 -62h-39.3301z" />
    <glyph glyph-name="ldot" unicode="&#x140;" horiz-adv-x="338" 
d="M151.47 0h-84.8799l123.43 700h84.8799zM330.67 386.91c26.3604 0 45.6094 -20.3301 45.6094 -45.96c0 -27.6797 -24.8896 -52.1094 -51.9297 -52.1094c-26.3799 0 -45.71 20.3398 -45.71 45.9795c0 27.6396 24.9902 52.0898 52.0303 52.0898z" />
    <glyph glyph-name="lslash" unicode="&#x142;" horiz-adv-x="384" 
d="M291.32 418.26l138.41 58.0908l21.3799 -69.79l-173.88 -72.9902l-59.2402 -333.57h-88.2598l52.3301 294.27l-103.02 -43.1699l-17.5303 70.9004l134.51 56.2695l57.1504 321.73h88.2598z" />
    <glyph glyph-name="m" unicode="m" horiz-adv-x="769" 
d="M215.94 501l-4.58984 -23.752c45.3701 22.3799 93.3701 31.8799 134.55 31.8799c58.4102 0 106.33 -19.6904 126.87 -51.6904c54.1104 30.54 96.1504 47.3496 140.91 50.9492c6.11035 0.490234 12.2705 0.730469 18.5107 0.730469
c80.9199 0 143.25 -46.7598 143.25 -136.439c0 -12.2598 -1.16016 -25.3301 -3.61035 -39.2002l-58.7998 -333.47h-84.1396l58.7197 333.02c2.41992 13.75 3.62012 26.0703 3.62012 37.0303c0 50.0801 -25.0703 71.7803 -73.0801 71.7803
c-35.0703 0 -54.7207 -5.69043 -121.86 -36.9902c2.40039 -15.5898 -3.00977 -53.8994 -7.41016 -78.8496l-57.4902 -326h-84.1396l61.96 351.4c1.71973 9.78027 2.55957 18.6299 2.55957 26.6104c0 46.6104 -28.6699 63.8301 -78.1299 63.8301
c-41 0 -82.2695 -10.7598 -111.56 -23.7793l-76.3398 -418.06h-84.1504l88.3398 501h66.0098z" />
    <glyph glyph-name="n" unicode="n" horiz-adv-x="515" 
d="M216.48 501l-4.67969 -24.3389c40.25 20.5195 85.3398 30.2891 126.17 32.1289c4.84961 0.219727 9.64941 0.330078 14.3691 0.330078c89.4199 0 168.45 -39.8496 168.45 -138.029c0 -11.7002 -1.12012 -24.2305 -3.48047 -37.6201l-58.7998 -333.47h-84.8799
l59.0195 334.74c1.87012 10.5996 2.78027 20.3096 2.78027 29.1592c0 56.5498 -36.96 78.5098 -96.1602 78.5098c-41.6396 0 -82.7695 -9.59961 -116.449 -24.3398l-76.3496 -418.07h-84.8799l88.3398 501h66.5498z" />
    <glyph glyph-name="nacute" unicode="&#x144;" horiz-adv-x="515" 
d="M376.17 580.83h-60.5693l75.5195 119.17h85.3701zM216.49 501l-4.67969 -24.3389c40.25 20.5195 85.3301 30.2891 126.16 32.1289c4.86035 0.219727 9.65039 0.330078 14.3701 0.330078c89.4297 0 168.449 -39.8496 168.449 -138.029
c0 -11.7002 -1.12012 -24.2305 -3.48047 -37.6201l-58.7998 -333.47h-84.8799l59.0303 334.74c1.87012 10.5996 2.77051 20.3096 2.77051 29.1592c0 56.5498 -36.9502 78.5098 -96.1504 78.5098c-41.6504 0 -82.7803 -9.59961 -116.45 -24.3398l-76.3496 -418.07h-84.8799
l88.3398 501h66.5498z" />
    <glyph glyph-name="ncaron" unicode="&#x148;" horiz-adv-x="515" 
d="M406.28 574.71h-81.5303l-102.88 139.52h71.0498l75.8398 -101.11l110.95 101.11h75.4902zM216.48 501l-4.67969 -24.3389c40.25 20.5195 85.3398 30.2891 126.17 32.1289c4.84961 0.219727 9.64941 0.330078 14.3691 0.330078
c89.4199 0 168.45 -39.8496 168.45 -138.029c0 -11.7002 -1.12012 -24.2305 -3.48047 -37.6201l-58.7998 -333.47h-84.8799l59.0195 334.74c1.87012 10.5996 2.78027 20.3096 2.78027 29.1592c0 56.5498 -36.96 78.5098 -96.1602 78.5098
c-41.6396 0 -82.7695 -9.59961 -116.449 -24.3398l-76.3496 -418.07h-84.8799l88.3398 501h66.5498z" />
    <glyph glyph-name="ncommaaccent" unicode="&#x146;" horiz-adv-x="515" 
d="M216.48 501l-4.67969 -24.3389c40.25 20.5195 85.3398 30.2891 126.17 32.1289c4.84961 0.219727 9.64941 0.330078 14.3691 0.330078c89.4199 0 168.45 -39.8496 168.45 -138.029c0 -11.7002 -1.12012 -24.2305 -3.48047 -37.6201l-58.7998 -333.47h-84.8799
l59.0195 334.74c1.87012 10.5996 2.78027 20.3096 2.78027 29.1592c0 56.5498 -36.96 78.5098 -96.1602 78.5098c-41.6396 0 -82.7695 -9.59961 -116.449 -24.3398l-76.3496 -418.07h-84.8799l88.3398 501h66.5498zM180.801 -205.999l31.04 55
c-5.95996 5.87988 -10.9404 14.5898 -10.9404 24.9297c0 18.9502 16.1602 34.0703 33.6602 34.0703c21.0801 0 35.9297 -19 32.1699 -40c-0.410156 -2 -1.87988 -7 -4.29004 -12l-42.2998 -62h-39.3398z" />
    <glyph glyph-name="eng" unicode="&#x14b;" horiz-adv-x="517" 
d="M216.48 501l-4.65918 -24.3379c40.25 20.5195 85.3301 30.2793 126.16 32.1289c4.84961 0.219727 9.64941 0.319336 14.3594 0.319336c89.4297 0 168.449 -39.8398 168.449 -138.02c0 -11.7002 -1.12012 -24.2305 -3.48047 -37.6201l-70 -397.47
c-13.7998 -78 -67.8193 -119 -131.6 -135c-18.46 -4 -35.6299 -7 -54.5996 -8l4.7998 68c17.3701 2 32.4004 7 41.8604 14c38.1904 14 52.5303 49 58.2002 82l66.6797 377.74c1.87012 10.5996 2.77051 20.3096 2.77051 29.1592c0 56.5498 -36.9502 78.5098 -96.1504 78.5098
c-41.6504 0 -82.7705 -9.59961 -116.45 -24.3398l-76.3496 -418.07h-84.8799l88.3398 501h66.5498z" />
    <glyph glyph-name="ntilde" unicode="&#xf1;" horiz-adv-x="515" 
d="M231.28 598.25l-24.832 40.6807c23.8496 21.2598 71.6396 58.2998 111.699 58.2998c52.9697 0 79.4502 -40.75 119.73 -40.75c31.1504 0 66.9707 25.1504 81.5908 38.9307l24.46 -41.2305c-18.7197 -14.9404 -64.6797 -49.7002 -101.859 -49.7002
c-52.9697 0 -81.2197 39.5996 -123.47 39.5996c-31.5498 0 -68.3496 -26.8799 -87.3193 -45.8301zM216.479 501.001l-4.67969 -24.3281c40.25 20.5195 85.3301 30.2793 126.16 32.1289c4.86035 0.219727 9.65039 0.319336 14.3701 0.319336
c89.4297 0 168.449 -39.8398 168.449 -138.02c0 -11.7002 -1.12012 -24.2305 -3.48047 -37.6201l-58.7998 -333.48h-84.8799l59.0303 334.75c1.87012 10.5996 2.77051 20.2998 2.77051 29.1602c0 56.5498 -36.9502 78.5098 -96.1504 78.5098
c-41.6504 0 -82.7803 -9.59961 -116.45 -24.3496l-76.3496 -418.07h-84.8799l88.3398 501h66.5498z" />
    <glyph glyph-name="o" unicode="o" horiz-adv-x="491" 
d="M79.8701 192.97l21.2188 120.41c19.25 109.17 81.29 177.18 181.021 193.72c15.79 2.62012 32.5205 3.9502 50.1709 3.9502c113.59 0 171.38 -61.8604 171.38 -156.46c0 -15.0098 -1.4502 -30.8398 -4.37012 -47.3799l-21.2305 -120.41
c-17.2803 -98 -83.9004 -195.8 -227.33 -195.8c-126.97 0 -174.66 75.7402 -174.66 159.74c0 13.9502 1.32031 28.1299 3.80078 42.2295zM393.979 190.26l21.2305 120.41c2.32031 13.1396 3.4707 25.4199 3.4707 36.7803c0 59.5703 -31.6699 93.8398 -93.0703 93.8398
c-78.2803 0 -124.7 -44.2998 -140.061 -131.38l-21.2305 -120.41c-1.99023 -11.2998 -3.04004 -22.3701 -3.04004 -32.9902c0 -53.79 27.0303 -95.7998 95.71 -95.7998c82.4502 0 124.87 60.7803 136.99 129.55z" />
    <glyph glyph-name="oacute" unicode="&#xf3;" horiz-adv-x="491" 
d="M363.71 580.83h-60.5693l75.5195 119.17h85.3799zM79.8711 192.97l21.2188 120.41c19.25 109.17 81.29 177.18 181.021 193.72c15.79 2.62012 32.5205 3.9502 50.1709 3.9502c113.59 0 171.38 -61.8604 171.38 -156.46c0 -15.0098 -1.4502 -30.8398 -4.37012 -47.3799
l-21.2305 -120.41c-17.2803 -98 -83.9004 -195.8 -227.33 -195.8c-126.97 0 -174.66 75.7402 -174.66 159.74c0 13.9502 1.32031 28.1299 3.80078 42.2295zM394.27 192.97l21.2305 120.409c2.41016 13.6699 3.61035 26.3398 3.61035 37.96
c0 58.0898 -30.0098 89.9502 -88.9697 89.9502c-80.6396 0 -129.899 -47 -145.26 -134.08l-21.2305 -120.41c-2.08008 -11.8398 -3.19043 -23.3496 -3.19043 -34.29c0 -52.4199 25.5303 -91.7998 91.6104 -91.7998c84.8096 0 130.069 63.4805 142.199 132.261z" />
    <glyph glyph-name="ocaron" unicode="&#x1d2;" horiz-adv-x="491" 
d="M391.06 574.71h-81.5303l-102.88 139.52h71.0498l75.8398 -101.11l110.95 101.11h75.4902zM79.8691 192.97l21.2197 120.41c19.25 109.17 81.2803 177.18 181.021 193.72c15.7803 2.62012 32.5107 3.9502 50.1611 3.9502c113.6 0 171.39 -61.8604 171.39 -156.46
c0 -15.0098 -1.45996 -30.8398 -4.37012 -47.3799l-21.2305 -120.41c-17.2803 -98 -83.9004 -195.8 -227.341 -195.8c-126.97 0 -174.649 75.7402 -174.649 159.74c0 13.9502 1.30957 28.1299 3.7998 42.2295zM394.259 192.97l21.2305 120.409
c2.41016 13.6699 3.61035 26.3398 3.61035 37.96c0 58.0898 -30.0098 89.9502 -88.96 89.9502c-80.6504 0 -129.91 -47 -145.26 -134.08l-21.2305 -120.41c-2.08984 -11.8398 -3.2002 -23.3496 -3.2002 -34.29c0 -52.4199 25.54 -91.7998 91.6201 -91.7998
c84.8096 0 130.069 63.4805 142.189 132.261z" />
    <glyph glyph-name="ocircumflex" unicode="&#xf4;" horiz-adv-x="491" 
d="M513.68 572.41h-71.3193l-73.2002 101.11l-113.59 -101.11h-75.21l152.09 139.52h81.5195zM79.8701 192.97l21.2188 120.41c19.25 109.17 81.29 177.18 181.021 193.72c15.79 2.62012 32.5205 3.9502 50.1709 3.9502c113.59 0 171.38 -61.8604 171.38 -156.46
c0 -15.0098 -1.4502 -30.8398 -4.37012 -47.3799l-21.2305 -120.41c-17.2803 -98 -83.9004 -195.8 -227.33 -195.8c-126.97 0 -174.66 75.7402 -174.66 159.74c0 13.9502 1.32031 28.1299 3.80078 42.2295zM394.269 192.97l21.2305 120.409
c2.41016 13.6699 3.61035 26.3398 3.61035 37.96c0 58.0898 -30.0098 89.9502 -88.9697 89.9502c-80.6396 0 -129.899 -47 -145.26 -134.08l-21.2305 -120.41c-2.08008 -11.8398 -3.19043 -23.3496 -3.19043 -34.29c0 -52.4199 25.5303 -91.7998 91.6104 -91.7998
c84.8096 0 130.069 63.4805 142.199 132.261z" />
    <glyph glyph-name="odieresis" unicode="&#xf6;" horiz-adv-x="491" 
d="M269.79 675.1c22.7197 0 38.7109 -16.6104 38.7109 -39.3604c0 -24.2598 -19.4502 -45.1094 -43.0605 -45.1094c-23.6504 0 -40.3506 17.54 -40.3506 40.0801c0 25.3496 20.54 44.3896 44.7002 44.3896zM455.651 675.1c22.7197 0 38.7109 -16.6201 38.7109 -39.3701
c0 -24.2598 -19.4502 -45.0996 -43.0605 -45.0996c-23.6504 0 -40.3506 17.5303 -40.3506 40.0801c0 25.3398 20.54 44.3896 44.7002 44.3896zM79.873 192.95l21.2197 120.41c19.25 109.18 81.2803 177.18 181.021 193.729c15.7803 2.62012 32.5107 3.9502 50.1611 3.9502
c113.6 0 171.39 -61.8701 171.39 -156.47c0 -15 -1.45996 -30.8301 -4.37012 -47.3701l-21.2305 -120.41c-17.2803 -98.0098 -83.9004 -195.8 -227.341 -195.8c-126.97 0 -174.649 75.7402 -174.649 159.74c0 13.9502 1.30957 28.1299 3.7998 42.2197zM394.263 192.95
l21.2305 120.41c2.41016 13.6797 3.61035 26.3496 3.61035 37.9697c0 58.0801 -30.0098 89.9404 -88.96 89.9404c-80.6504 0 -129.91 -47 -145.26 -134.08l-21.2305 -120.41c-2.08984 -11.8301 -3.2002 -23.3398 -3.2002 -34.2803
c0 -52.4297 25.54 -91.7998 91.6201 -91.7998c84.8096 0 130.069 63.4805 142.189 132.25z" />
    <glyph glyph-name="ograve" unicode="&#xf2;" horiz-adv-x="491" 
d="M413.15 580.83h-56.5693l-58.2305 119.17h81.2998zM79.8711 192.97l21.2188 120.41c19.25 109.17 81.29 177.18 181.021 193.72c15.79 2.62012 32.5205 3.9502 50.1709 3.9502c113.59 0 171.38 -61.8604 171.38 -156.46c0 -15.0098 -1.4502 -30.8398 -4.37012 -47.3799
l-21.2305 -120.41c-17.2803 -98 -83.9004 -195.8 -227.33 -195.8c-126.97 0 -174.66 75.7402 -174.66 159.74c0 13.9502 1.32031 28.1299 3.80078 42.2295zM394.27 192.97l21.2305 120.409c2.41016 13.6699 3.61035 26.3398 3.61035 37.96
c0 58.0898 -30.0098 89.9502 -88.9697 89.9502c-80.6396 0 -129.899 -47 -145.26 -134.08l-21.2305 -120.41c-2.08008 -11.8398 -3.19043 -23.3496 -3.19043 -34.29c0 -52.4199 25.5303 -91.7998 91.6104 -91.7998c84.8096 0 130.069 63.4805 142.199 132.261z" />
    <glyph glyph-name="ohungarumlaut" unicode="&#x151;" horiz-adv-x="491" 
d="M299.94 579.98h-57.2207l71.8203 120.02h80.0303zM434.71 579.98h-57.2207l71.8203 120.02h80.0303zM79.8691 192.971l21.2197 120.41c19.25 109.17 81.2803 177.18 181.021 193.72c15.7803 2.62012 32.5107 3.9502 50.1611 3.9502
c113.6 0 171.39 -61.8604 171.39 -156.46c0 -15.0098 -1.45996 -30.8398 -4.37012 -47.3799l-21.2305 -120.41c-17.2803 -98 -83.9004 -195.8 -227.341 -195.8c-126.97 0 -174.649 75.7402 -174.649 159.74c0 13.9502 1.30957 28.1299 3.7998 42.2295zM394.259 192.971
l21.2305 120.409c2.41016 13.6699 3.61035 26.3398 3.61035 37.96c0 58.0898 -30.0098 89.9502 -88.96 89.9502c-80.6504 0 -129.91 -47 -145.26 -134.08l-21.2305 -120.41c-2.08984 -11.8398 -3.2002 -23.3496 -3.2002 -34.29c0 -52.4199 25.54 -91.7998 91.6201 -91.7998
c84.8096 0 130.069 63.4805 142.189 132.261z" />
    <glyph glyph-name="omacron" unicode="&#x14d;" horiz-adv-x="491" 
d="M473.63 604.25h-242.61l8.37988 47.5098h242.61zM79.8799 192.97l21.2197 120.41c19.25 109.17 81.2803 177.18 181.021 193.72c15.7803 2.62012 32.5107 3.9502 50.1611 3.9502c113.6 0 171.39 -61.8604 171.39 -156.46c0 -15.0098 -1.45996 -30.8398 -4.37012 -47.3799
l-21.2305 -120.41c-17.2803 -98 -83.9004 -195.8 -227.341 -195.8c-126.97 0 -174.649 75.7402 -174.649 159.74c0 13.9502 1.30957 28.1299 3.7998 42.2295zM394.27 192.97l21.2305 120.409c2.41016 13.6699 3.61035 26.3398 3.61035 37.96
c0 58.0898 -30.0098 89.9502 -88.96 89.9502c-80.6504 0 -129.91 -47 -145.26 -134.08l-21.2305 -120.41c-2.08984 -11.8398 -3.2002 -23.3496 -3.2002 -34.29c0 -52.4199 25.54 -91.7998 91.6201 -91.7998c84.8096 0 130.069 63.4805 142.189 132.261z" />
    <glyph glyph-name="oslash" unicode="&#xf8;" horiz-adv-x="491" 
d="M477.24 551l-35.5 -67.8105c41.1396 -26.9102 61.9297 -71.8701 61.9297 -128.601c0 -15.0098 -1.45996 -30.8398 -4.37012 -47.3799l-21.2305 -120.41c-17.2803 -98 -83.9004 -195.8 -227.341 -195.8c-23.5498 0 -44.3799 2.61035 -62.6797 7.39062l-25.3203 -48.3896
h-60.6396l36.6396 70.0195c-44.2803 29.6396 -62.6504 78.5898 -62.6504 130.72c0 13.9502 1.32031 28.1299 3.80078 42.2197l21.2305 120.41c22.2998 126.45 101.99 197.681 231.181 197.681c22.0596 0 42.0098 -2.33984 59.8496 -6.79004l24.4502 46.7402h60.6504z
M184.891 307.209l-21.2383 -120.41c-2.08008 -11.8301 -3.19043 -23.3398 -3.19043 -34.2803c0 -23.2305 5.00977 -43.9004 16.3496 -59.71l180.93 345.74c-8.36035 1.82031 -17.5508 2.74023 -27.5908 2.74023c-80.6396 0 -129.899 -47 -145.26 -134.08zM394.272 192.969
l21.2305 120.41c2.41016 13.6699 3.61035 26.3398 3.61035 37.96c0 24.2803 -5.24023 43.9805 -15.6504 58.6904l-181.14 -346.15c8.83008 -2.07031 18.7305 -3.16016 29.75 -3.16016c84.8096 0 130.069 63.4805 142.199 132.25z" />
    <glyph glyph-name="otilde" unicode="&#xf5;" horiz-adv-x="491" 
d="M216.06 598.25l-24.8311 40.6807c23.8496 21.2598 71.6396 58.2998 111.699 58.2998c52.9697 0 79.46 -40.75 119.729 -40.75c31.1504 0 66.9707 25.1504 81.5908 38.9307l24.46 -41.2305c-18.7197 -14.9404 -64.6797 -49.7002 -101.859 -49.7002
c-52.9697 0 -81.2197 39.5996 -123.47 39.5996c-31.5498 0 -68.3496 -26.8799 -87.3193 -45.8301zM79.8682 192.971l21.2197 120.41c19.25 109.18 81.2803 177.18 181.021 193.729c15.7803 2.62012 32.5107 3.9502 50.1611 3.9502c113.6 0 171.39 -61.8701 171.39 -156.47
c0 -15 -1.45996 -30.8301 -4.37012 -47.3701l-21.2305 -120.41c-17.2803 -98.0098 -83.9004 -195.8 -227.341 -195.8c-126.97 0 -174.649 75.7402 -174.649 159.74c0 13.9502 1.30957 28.1299 3.7998 42.2197zM394.258 192.971l21.2305 120.41
c2.41016 13.6797 3.61035 26.3496 3.61035 37.9697c0 58.0801 -30.0098 89.9404 -88.96 89.9404c-80.6504 0 -129.91 -47 -145.26 -134.08l-21.2305 -120.41c-2.08984 -11.8301 -3.2002 -23.3398 -3.2002 -34.2803c0 -52.4297 25.54 -91.7998 91.6201 -91.7998
c84.8096 0 130.069 63.4805 142.189 132.25z" />
    <glyph glyph-name="oe" unicode="&#x153;" horiz-adv-x="791" 
d="M79.8701 192.97l21.2197 120.431c22.2998 126.45 101.99 197.67 230.84 197.67c77.0596 0 125.619 -31.8496 142.889 -81.6494c32.4697 45.6602 81.0693 71.25 138.31 78.4004c11.1904 1.40039 22.7207 2.10059 34.5205 2.10059
c107.65 0 166.591 -57.0498 166.591 -139.55c0 -16.1797 -2.25977 -33.3398 -6.87012 -51.2402c-24.2402 -93.5195 -106.38 -125.989 -190.55 -125.989c-45.54 0 -91.6699 9.5 -129.55 23.9697l-14.5596 -67.4502c-1.54004 -8.70996 -2.28027 -16.7402 -2.28027 -24.1104
c0 -50.4902 34.9502 -70.4199 89.5801 -70.4199c50.5996 0 97.5693 16.1797 135.02 40.6494l43.3398 -44.29c-48.04 -38.5 -108.39 -61.4805 -184.33 -61.4805c-75.6504 0 -125.29 26.7002 -136.83 77c-37.9199 -46.3604 -91.9297 -76.0107 -166.479 -76.0107
c-126.97 0 -174.66 75.7402 -174.66 159.74c0 13.9502 1.32031 28.1299 3.80078 42.2295zM506.52 331.551l-12.5498 -55.3398c22.5596 -12.2402 65.0195 -24.1104 108.329 -24.1104c57.96 0 117.43 21.2695 132.63 91.3799c2.16016 9.70996 3.23047 18.7695 3.23047 27.1299
c0 45.9102 -32.0596 71.1006 -90.8291 71.1006c-73.4004 0 -128.82 -39.8398 -140.811 -110.16zM394.27 193.001l21.2305 120.409c2.41016 13.6699 3.61035 26.3398 3.61035 37.96c0 58.0898 -30.0098 89.9502 -88.9697 89.9502c-80.6396 0 -129.899 -47 -145.26 -134.08
l-21.2305 -120.41c-2.08008 -11.8398 -3.19043 -23.3496 -3.19043 -34.29c0 -52.4199 25.5303 -91.7998 91.6104 -91.7998c84.8096 0 130.069 63.4805 142.199 132.261z" />
    <glyph glyph-name="p" unicode="p" horiz-adv-x="509" 
d="M221.36 500.42l-4.50098 -24.1709c42.71 22.8799 93.3496 32.3203 138.649 32.3203c88.9502 0 170.311 -38.8096 170.311 -137.619c0 -11.4902 -1.09961 -23.7998 -3.41992 -36.96l-30.2402 -171.49c-23.2197 -131.65 -119.779 -170.5 -209.329 -171.5
c-47.3203 0 -92.9307 12.71 -125.581 27.5898l-41.2695 -219.59h-84.8398l123.69 701.42h66.5303zM409.329 174.139l29.5488 166.932c1.41016 8.2998 2.10059 16.04 2.10059 23.2402c0 53.5996 -38.1201 77.1191 -98.5605 77.1191
c-41.2197 0 -81.5098 -9.57031 -114.76 -24.4805l-64.8896 -337.94c25.54 -11.8701 66.5898 -21 105.63 -21c72.2305 0 126.221 32.6699 140.931 116.13z" />
    <glyph glyph-name="thorn" unicode="&#xfe;" horiz-adv-x="529" 
d="M277.68 699.17l-40.6006 -215.75c37.8701 15 86.8203 24.8604 128.61 24.8604c83.4404 0 162.82 -35.4102 162.82 -136.66c0 -12.54 -1.20996 -26.0801 -3.79004 -40.7002l-29.9004 -169.56c-22.9502 -130.2 -122.57 -169.36 -211.891 -169.36
c-45.5996 0 -88.7393 10.0098 -122.509 28.3398l-37.7197 -199.34h-84.8398l154.89 878.17h84.9297zM411.869 172.28l28.0713 159.2c2.12012 12.0303 3.13965 22.8799 3.13965 32.6299c0 57.9199 -36.1201 77.3301 -93.2402 77.3301
c-44.5195 0 -89.2891 -10.7305 -118.959 -22.6006l-64.8604 -337.68c28.4697 -14.7402 66.2793 -22.71 102.439 -22.71c73.96 0 129.6 35.54 143.409 113.83z" />
    <glyph glyph-name="q" unicode="q" 
d="M75.5898 168.67l30.2686 171.619c22.46 127.37 124.79 168.4 216.4 168.4c50.7803 0 98.54 -13.1299 132.86 -36.0098l8.96973 27.8701h66.9404l-123.76 -701.57h-84.9404l40.9004 217.18c-37.9297 -15.1504 -86.9697 -25.1699 -128.81 -25.1699
c-84.3604 0.889648 -162.62 36.5801 -162.62 137.021c0 12.5303 1.21973 26.0605 3.79004 40.6602zM369.438 80.7393l64.9316 338.169c-28.0498 14.9102 -65.0195 22.6406 -100.75 22.6406c-74.0498 0 -130.92 -36.4199 -143.7 -106.52l-29.54 -166.94
c-2.12012 -12.0303 -3.15039 -22.8701 -3.15039 -32.6299c0 -57.9199 36.1201 -77.3301 93.25 -77.3301c44.5195 0 89.2891 10.7402 118.959 22.6104z" />
    <glyph glyph-name="r" unicode="r" horiz-adv-x="347" 
d="M217.07 505.68l-9.71973 -64.7988c40.4902 50.8701 90.0498 69.3799 152.84 69.3799c22.2002 0 40.29 -2.45996 56.5205 -7.13965l-9.57031 -68.4297c-15.2197 3.83008 -30.5293 5.88965 -45.3096 5.88965c-7.5498 0 -14.96 -0.540039 -22.1504 -1.66016
c-75.2002 -4.19043 -124.67 -49.9502 -139.26 -132.681l-54 -306.24h-84.8301l89.1699 505.68h66.3096z" />
    <glyph glyph-name="racute" unicode="&#x155;" horiz-adv-x="347" 
d="M288.77 580.83h-60.5801l75.5303 119.17h85.3701zM217.069 505.68l-9.71875 -64.7891c40.4902 50.8701 90.04 69.3701 152.83 69.3701c22.2002 0 40.2998 -2.4502 56.5303 -7.14062l-9.57031 -68.4297c-15.3301 3.87012 -30.7803 5.9502 -45.7305 5.9502
c-7.12988 0 -14.1494 -0.480469 -20.9795 -1.46094c-75.6104 -4.0498 -125.36 -49.8594 -140.011 -132.93l-54 -306.25h-84.8301l89.1699 505.68h66.3096z" />
    <glyph glyph-name="rcaron" unicode="&#x159;" horiz-adv-x="347" 
d="M318.88 574.71h-81.5303l-102.88 139.52h71.0498l75.8398 -101.11l110.95 101.11h75.4902zM217.069 505.68l-9.71973 -64.7891c40.4902 50.8701 90.04 69.3701 152.83 69.3701c22.2002 0 40.2998 -2.4502 56.5303 -7.14062l-9.57031 -68.4297
c-15.2695 3.84961 -30.6494 5.91992 -45.5098 5.91992c-7.34961 0 -14.5596 -0.509766 -21.5791 -1.55957c-75.4004 -4.12012 -125.011 -49.9004 -139.631 -132.801l-54 -306.25h-84.8301l89.1699 505.68h66.3096z" />
    <glyph glyph-name="rcommaaccent" unicode="&#x157;" horiz-adv-x="347" 
d="M217.07 505.68l-9.72949 -64.7979c40.4902 50.8701 90.04 69.3799 152.83 69.3799c22.2002 0 40.2998 -2.45996 56.5303 -7.13965l-9.57031 -68.4297c-15.1797 3.80957 -30.4199 5.86914 -45.1201 5.86914c-7.74023 0 -15.3398 -0.570312 -22.7002 -1.76074
c-74.9902 -4.25977 -124.33 -49.9902 -138.89 -132.561l-54 -306.24h-84.8301l89.1699 505.68h66.3096zM26.8809 -205.998l31.04 55c-5.95996 5.87988 -10.9404 14.5801 -10.9404 24.9297c0 18.9502 16.1504 34.0703 33.6602 34.0703c21.0801 0 35.9199 -19 32.1699 -40
c-0.410156 -2 -1.87988 -7 -4.2998 -12l-42.2998 -62h-39.3301z" />
    <glyph glyph-name="s" unicode="s" horiz-adv-x="451" 
d="M59.1396 134.43l81.9717 0.0214844c-3.2002 -42.3301 19.9297 -77.5205 91.5195 -77.5205c69.9502 0 121.51 44.8701 121.51 98.2998c0 43.3604 -45.5195 55.46 -99.6797 72.0498c-75.0703 18.1504 -143.851 43.2207 -143.851 119.65
c0 8.20996 0.790039 17.0195 2.45996 26.4795c13.0898 74.2305 72.5 138.2 197.67 138.2c113.88 0 159.93 -54.3203 159.93 -119.69c0 -7.17969 -0.55957 -14.5 -1.63965 -21.8896h-81.4697c0.780273 4.37988 1.2002 8.80957 1.2002 13.1992
c0 30.1396 -19.8096 58.5996 -78.9395 58.5996c-73.2305 0 -109.19 -43.5195 -115.761 -81.0498c-0.530273 -3.03027 -0.780273 -5.91016 -0.780273 -8.66992c0 -33.1201 36.9902 -47.7402 92.5703 -63.8906c87.3896 -20.25 153.51 -52.0596 153.51 -129.43
c0 -85.7305 -67.3896 -170.79 -204.29 -170.79c-120.51 0 -176.84 56.8701 -176.84 130.061c0 5.37012 0.30957 10.8398 0.90918 16.3701z" />
    <glyph glyph-name="sacute" unicode="&#x15b;" horiz-adv-x="451" 
d="M341.26 580.83h-60.5801l75.5303 119.17h85.3701zM59.1396 134.43l81.9717 0.0214844c-3.2002 -42.3301 19.9297 -77.5205 91.5195 -77.5205c69.9502 0 121.51 44.8701 121.51 98.2998c0 43.3604 -45.5195 55.46 -99.6797 72.0498
c-75.0703 18.1504 -143.851 43.2207 -143.851 119.65c0 8.20996 0.790039 17.0195 2.45996 26.4795c13.0898 74.2305 72.5 138.2 197.67 138.2c113.88 0 159.93 -54.3203 159.93 -119.69c0 -7.17969 -0.55957 -14.5 -1.63965 -21.8896h-81.4697
c0.780273 4.37988 1.2002 8.80957 1.2002 13.1992c0 30.1396 -19.8096 58.5996 -78.9395 58.5996c-73.2305 0 -109.19 -43.5195 -115.761 -81.0498c-0.530273 -3.03027 -0.780273 -5.91016 -0.780273 -8.66992c0 -33.1201 36.9902 -47.7402 92.5703 -63.8906
c87.3896 -20.25 153.51 -52.0596 153.51 -129.43c0 -85.7305 -67.3896 -170.79 -204.29 -170.79c-120.51 0 -176.84 56.8701 -176.84 130.061c0 5.37012 0.30957 10.8398 0.90918 16.3701z" />
    <glyph glyph-name="scaron" unicode="&#x161;" horiz-adv-x="451" 
d="M371.37 574.71h-81.5303l-102.88 139.52h71.0498l75.8398 -101.11l110.95 101.11h75.4902zM59.1396 134.43l81.9609 0.0214844c-3.2002 -42.3301 19.9297 -77.5205 91.5293 -77.5205c69.9404 0 121.5 44.8701 121.5 98.2998c0 43.3604 -45.5195 55.46 -99.6699 72.0498
c-75.0703 18.1504 -143.86 43.2207 -143.86 119.65c0 8.20996 0.799805 17.0195 2.46973 26.4795c13.0898 74.2305 72.5 138.2 197.66 138.2c113.88 0 159.93 -54.3203 159.93 -119.69c0 -7.17969 -0.549805 -14.5 -1.63965 -21.8896h-81.46
c0.780273 4.37988 1.2002 8.80957 1.2002 13.1992c0 30.1396 -19.8203 58.5996 -78.9502 58.5996c-73.2305 0 -109.181 -43.5195 -115.761 -81.0498c-0.519531 -3.03027 -0.779297 -5.91016 -0.779297 -8.66992c0 -33.1201 36.9902 -47.7402 92.5801 -63.8906
c87.3799 -20.25 153.5 -52.0596 153.5 -129.43c0 -85.7305 -67.3896 -170.79 -204.29 -170.79c-120.5 0 -176.83 56.8701 -176.83 130.061c0 5.37012 0.299805 10.8398 0.910156 16.3701z" />
    <glyph glyph-name="scedilla" unicode="&#x15f;" horiz-adv-x="451" 
d="M59.1396 134.43l81.9697 0.0175781c-3.2002 -42.3301 19.9297 -77.5205 91.5293 -77.5205c69.9404 0 121.511 44.8701 121.511 98.2998c0 43.3604 -45.5195 55.46 -99.6797 72.0498c-75.0703 18.1504 -143.851 43.2207 -143.851 119.65
c0 8.20996 0.790039 17.0195 2.45996 26.4795c13.0898 74.2305 72.5 138.2 197.67 138.2c113.88 0 159.93 -54.3301 159.93 -119.67c0 -7.17969 -0.55957 -14.4893 -1.63965 -21.8789h-81.4697c0.780273 4.37988 1.2002 8.7998 1.2002 13.1797
c0 30.1201 -19.8203 58.5801 -78.9502 58.5801c-73.2305 0 -109.181 -43.5195 -115.761 -81.0498c-0.519531 -3.03027 -0.779297 -5.91016 -0.779297 -8.66992c0 -33.1201 36.9902 -47.7402 92.5703 -63.8906c87.3896 -20.25 153.51 -52.0596 153.51 -129.43
c0 -70.96 -47.2998 -139.229 -136.24 -161.779c-17.29 -5 -35.9902 -8 -57.5205 -9l-35.9297 -37c11.3896 4.16016 23.8799 6.25 35.9697 6.25c44.8701 0 84.3105 -20.9199 84.3105 -69.75c0 -5.76953 -0.549805 -11.9395 -1.70996 -18.499
c-12.5 -71 -80.29 -91 -140.43 -91c-42.7998 0 -79.0596 16 -107.42 27l18.9502 37c26.1699 -15 56.8203 -20 78.6504 -22c42.1201 -1 85.6504 19 92.6309 59c4.5498 26 -14.0703 39 -40.9004 39c-17.3896 0 -42.2598 -5 -73.21 -19l-17.5195 19l62.8096 72
c-98.1602 8.32031 -143.57 62.1406 -143.57 128.021c0 5.40039 0.30957 10.8701 0.90918 16.4102z" />
    <glyph glyph-name="scommaaccent" unicode="&#x219;" horiz-adv-x="451" 
d="M59.1396 134.43l81.9707 0.0107422c-3.2002 -42.3398 19.9297 -77.5303 91.5195 -77.5303c69.9502 0 121.51 44.8701 121.51 98.3105c0 43.1396 -45.0498 55.2998 -98.9697 71.8193c-75.3096 18.2305 -144.56 43.25 -144.56 119.91
c0 8.20996 0.799805 17.0098 2.45996 26.46c13.0898 74.2305 72.5 138.2 197.67 138.2c113.88 0 159.93 -54.3203 159.93 -119.69c0 -7.17969 -0.55957 -14.5 -1.63965 -21.8896h-81.4697c0.780273 4.37988 1.2002 8.80957 1.2002 13.1992
c0 30.1396 -19.8096 58.5996 -78.9395 58.5996c-73.2305 0 -109.19 -43.5195 -115.761 -81.0498c-0.530273 -3.03027 -0.780273 -5.91016 -0.780273 -8.66992c0 -33.1201 36.9902 -47.7402 92.5703 -63.8906c87.3896 -20.25 153.51 -52.0596 153.51 -129.43
c0 -85.7305 -67.3896 -170.79 -204.29 -170.79c-120.51 0 -176.84 56.8701 -176.84 130.061c0 5.37012 0.30957 10.8398 0.90918 16.3701zM149.69 -206l31.0498 55c-5.95996 5.87988 -10.9404 14.5898 -10.9404 24.9297c0 18.9502 16.1504 34.0703 33.6602 34.0703
c21.0801 0 35.9199 -19 32.1699 -40c-0.410156 -2 -1.87988 -7 -4.2998 -12l-42.2998 -62h-39.3398z" />
    <glyph glyph-name="germandbls" unicode="&#xdf;" horiz-adv-x="568" 
d="M78.7197 0l92.0576 522.151c19.8301 112.43 102.99 187.18 234.54 187.18c122.05 0 179.76 -60.9404 179.76 -147.2c0 -12.3203 -1.17969 -25.1699 -3.50977 -38.4199c-13.3896 -75.9102 -66.2197 -113.69 -105.35 -125.9
c36.0801 -13.5 88.4102 -61.3301 88.4102 -145.62c0 -12.3096 -1.11035 -25.3994 -3.56055 -39.2695c-20.0498 -113.7 -123.08 -212.92 -256.3 -212.92h-88.7002l13.9297 79h83.21c78.1797 0 146.22 57.8096 161.76 145.909
c1.61035 9.12988 2.37988 17.8896 2.37988 26.2295c0 63.9697 -45.3799 103.88 -106.72 105.29l-15.3096 0.0400391l13.7197 77.7998l9.53027 0.0498047c53.5 1.50977 119.9 50.4902 119.9 128.75c0 48.1104 -34.6396 67.2607 -96.7393 67.2607
c-80.8398 0 -132.35 -49.3496 -143.029 -109.93l-91.7598 -520.4h-88.2197z" />
    <glyph glyph-name="t" unicode="t" horiz-adv-x="336" 
d="M237.68 501l122.911 -0.00195312l-12.2998 -69.75h-122.91l-41.5498 -235.66c-2.58984 -14.71 -3.84961 -28.1396 -3.84961 -40.3193c0 -50.21 21.4102 -79.4199 59.2998 -91.4902c11.1104 -3.37988 24 -4.68945 38.6699 -4.68945c9.07031 0 18.8105 0.5 29.2305 1.33008
l-6.76953 -69.4297c-8.25 -0.629883 -16.4199 -0.959961 -24.4102 -0.959961c-17.2305 0 -33.5605 1.5498 -47.751 4.95996c-76.0703 12.25 -134.73 58.3398 -134.73 149.16c0 13.54 1.30957 28.0703 4.0498 43.6406l76.6396 434.64h84.8799z" />
    <glyph glyph-name="tbar" unicode="&#x167;" horiz-adv-x="336" 
d="M237.68 501l122.909 -0.000976562l-12.2998 -69.75h-122.9l-15.3496 -87.0195h122.91l-10.3496 -58.6797h-122.9l-15.8604 -89.9502c-2.49023 -14.0898 -3.70996 -27.04 -3.70996 -38.8701c0 -46.3604 18.79 -75.6201 54.29 -89.25
c13.8203 -5.2998 30.8105 -7.7998 51.7305 -7.7998c6.61035 0 13.6201 0.25 21.04 0.740234l-6.76953 -69.4199c-8.11035 -0.580078 -16.1299 -0.910156 -23.96 -0.910156c-19.0801 0 -37.0303 1.94043 -52.4502 6.91016c-73.5 12.6104 -130.45 58.3203 -130.45 147.5
c0 13.4297 1.29004 27.8496 4.02051 43.29l76.5996 434.42h84.8799z" />
    <glyph glyph-name="tcaron" unicode="&#x165;" horiz-adv-x="336" 
d="M324.36 623.6l41.3213 76.5195c-8.19043 7.33008 -14.4209 18.9697 -14.4209 33.2793c0 27.46 24.8896 51.9199 51.9297 51.9199c26.3604 0 45.6104 -20.3398 45.6104 -45.9697c0 -3.01953 -0.269531 -6.10938 -0.819336 -9.24902
c-0.900391 -5.08008 -3.30078 -12.6201 -7.2207 -19.4404l-58.71 -87.0596h-57.6904zM237.691 500.989l122.902 0.0117188l-12.2998 -69.75h-122.91l-41.5498 -235.66c-2.53027 -14.3799 -3.78027 -27.5703 -3.78027 -39.5801c0 -48.5596 20.4199 -78.0498 59.0195 -90.5801
c12.6699 -3.96973 27.7803 -5.80957 45.8799 -5.80957c6.95996 0 14.3604 0.269531 22.2402 0.789062l-6.78027 -69.4199c-8.24023 -0.639648 -16.4199 -0.969727 -24.4004 -0.969727c-17.2305 0 -33.5703 1.5498 -47.7607 4.96973
c-76.0596 12.2402 -134.72 58.3398 -134.72 149.149c0 13.54 1.2998 28.0801 4.0498 43.6396l76.6396 434.64h84.8799z" />
    <glyph glyph-name="tcedilla" unicode="&#x163;" horiz-adv-x="336" 
d="M237.68 501h122.896l-12.2998 -69.75h-122.91l-41.5498 -235.66c-2.51953 -14.2998 -3.75 -27.4102 -3.75 -39.3701c0 -47.8604 19.8203 -77.21 56.3701 -90.1299c12.1104 -4.66016 27.0508 -6.67969 45.6006 -6.67969c7.74023 0 16.1006 0.349609 25.1406 1.00977
l-6.76953 -69.4297c-8.67969 -0.660156 -17.29 -1 -25.6699 -1c-16.7695 0 -32.6592 1.33984 -46.5088 4c-15.8398 3 -28.21 6.98047 -38.7695 11.6709l-39.3799 -36.6602c11.8096 3.87012 24.3594 5.33984 35.499 5.33984c45.4502 0 84.6807 -21.1299 84.6807 -69.8701
c0 -5.76953 -0.549805 -11.9199 -1.70996 -18.4795c-12.5 -71 -80.2197 -90 -140.35 -90c-42.8096 0 -79.1396 15 -107.439 27l18.8799 37c26.1699 -16 56.8203 -21 78.6504 -23c45.1699 0 93.4004 23.0098 93.4004 67.5c0 21.04 -15.8701 30.5098 -41.5205 30.5098
c-19.4502 0 -41.54 -4 -73.3604 -18l-17.5303 18l75.6299 84.3398c-37.1699 24.1201 -61.4297 65.0898 -61.4297 124.18c0 13.7695 1.30957 28.5195 4.08984 44.2695l76.6396 434.64h84.8799z" />
    <glyph glyph-name="uni021B" unicode="&#x21b;" horiz-adv-x="336" 
d="M237.68 501h122.911l-12.2998 -69.75h-122.91l-41.5498 -235.65c-2.46973 -14.0098 -3.67969 -26.8896 -3.67969 -38.6699c0 -47.7598 19.9697 -77.3701 57.1299 -90.4502c12.6201 -4.74023 28.1201 -6.93066 47.2705 -6.93066
c7.04004 0 14.5703 0.290039 22.6299 0.870117l-6.76953 -69.4297c-8.25 -0.629883 -16.4199 -0.959961 -24.4102 -0.959961c-17.2305 0 -33.5605 1.5498 -47.751 4.95996c-76.0703 12.25 -134.73 58.3398 -134.73 149.16c0 13.54 1.30957 28.0703 4.0498 43.6406
l76.6396 434.64h84.8799zM103.241 -206l31.04 55c-5.95996 5.87988 -10.9404 14.5898 -10.9404 24.9297c0 18.9502 16.1504 34.0703 33.6602 34.0703c21.0801 0 35.9297 -19 32.1699 -40c-0.410156 -2 -1.87988 -7 -4.2998 -12l-42.2998 -62h-39.3301z" />
    <glyph glyph-name="u" unicode="u" horiz-adv-x="510" 
d="M453.5 0h-66.5488l4.66992 24.3398c-44.7002 -22.79 -95.3906 -32.3398 -139.851 -32.3398c-89.6699 0 -169.12 39.5498 -169.12 137.93c0 11.6904 1.12012 24.21 3.48047 37.5898l58.7998 333.48h84.8799l-59.0303 -334.75
c-1.87012 -10.5996 -2.77051 -20.2998 -2.77051 -29.1602c0 -56.5498 36.9502 -78.5098 96.1504 -78.5098c41.6504 0 82.7803 9.59961 116.45 24.3496l76.3496 418.07h84.8799z" />
    <glyph glyph-name="uacute" unicode="&#xfa;" horiz-adv-x="510" 
d="M372.04 580.83h-60.5801l75.5303 119.17h85.3701zM453.5 0h-66.5488l4.66992 24.3398c-44.7002 -22.79 -95.3906 -32.3398 -139.851 -32.3398c-89.6699 0 -169.12 39.5498 -169.12 137.93c0 11.6904 1.12012 24.21 3.48047 37.5898l58.7998 333.48h84.8799
l-59.0303 -334.75c-1.87012 -10.5996 -2.77051 -20.2998 -2.77051 -29.1602c0 -56.5498 36.9502 -78.5098 96.1504 -78.5098c41.6504 0 82.7803 9.59961 116.45 24.3496l76.3496 418.07h84.8799z" />
    <glyph glyph-name="ucaron" unicode="&#x1d4;" horiz-adv-x="510" 
d="M402.15 574.71h-81.5205l-102.89 139.52h71.0596l75.8398 -101.11l110.94 101.11h75.4902zM453.5 -0h-66.5488l4.66992 24.3398c-44.7002 -22.79 -95.3906 -32.3398 -139.851 -32.3398c-89.6699 0 -169.12 39.5498 -169.12 137.93
c0 11.6904 1.12012 24.21 3.48047 37.5898l58.7998 333.48h84.8799l-59.0303 -334.75c-1.87012 -10.5996 -2.77051 -20.2998 -2.77051 -29.1602c0 -56.5498 36.9502 -78.5098 96.1504 -78.5098c41.6504 0 82.7803 9.59961 116.45 24.3496l76.3496 418.07h84.8799z" />
    <glyph glyph-name="ucircumflex" unicode="&#xfb;" horiz-adv-x="510" 
d="M524.78 572.41h-71.3193l-73.21 101.11l-113.59 -101.11h-75.21l152.09 139.52h81.5195zM453.501 0h-66.5488l4.66992 24.3398c-44.7002 -22.79 -95.3906 -32.3398 -139.851 -32.3398c-89.6699 0 -169.12 39.5498 -169.12 137.93
c0 11.6904 1.12012 24.21 3.48047 37.5898l58.7998 333.48h84.8799l-59.0303 -334.75c-1.87012 -10.5996 -2.77051 -20.2998 -2.77051 -29.1602c0 -56.5498 36.9502 -78.5098 96.1504 -78.5098c41.6504 0 82.7803 9.59961 116.45 24.3496l76.3496 418.07h84.8799z" />
    <glyph glyph-name="udieresis" unicode="&#xfc;" horiz-adv-x="510" 
d="M280.88 675.11c22.7197 0 38.7109 -16.6201 38.7109 -39.3701c0 -24.2598 -19.4502 -45.0996 -43.0605 -45.0996c-23.6504 0 -40.3506 17.5303 -40.3506 40.0801c0 25.3398 20.54 44.3896 44.7002 44.3896zM466.741 675.101c22.7197 0 38.7109 -16.6104 38.7109 -39.3604
c0 -24.2598 -19.4502 -45.1094 -43.0605 -45.1094c-23.6504 0 -40.3506 17.54 -40.3506 40.0801c0 25.3496 20.54 44.3896 44.7002 44.3896zM453.492 -0.00976562h-66.5488l4.66992 24.3398c-44.7002 -22.79 -95.3906 -32.3398 -139.851 -32.3398
c-89.6699 0 -169.12 39.5498 -169.12 137.93c0 11.6904 1.12012 24.21 3.48047 37.5996l58.7998 333.47h84.8799l-59.0303 -334.74c-1.87012 -10.5996 -2.77051 -20.3096 -2.77051 -29.1592c0 -56.5498 36.9502 -78.5098 96.1504 -78.5098
c41.6504 0 82.7803 9.59961 116.45 24.3398l76.3496 418.07h84.8799z" />
    <glyph glyph-name="udieresisacute" unicode="&#x1d8;" horiz-adv-x="510" 
d="M407.01 730.32h-60.5693l75.5195 119.16h85.3799zM280.881 675.101c22.7197 0 38.7109 -16.6104 38.7109 -39.3604c0 -24.2598 -19.4502 -45.1094 -43.0605 -45.1094c-23.6504 0 -40.3506 17.54 -40.3506 40.0801c0 25.3496 20.54 44.3896 44.7002 44.3896z
M466.742 675.101c22.7197 0 38.7109 -16.6201 38.7109 -39.3701c0 -24.2598 -19.4502 -45.0996 -43.0605 -45.0996c-23.6504 0 -40.3506 17.5303 -40.3506 40.0801c0 25.3398 20.54 44.3896 44.7002 44.3896zM453.493 -0.00878906h-66.5488l4.66992 24.3398
c-44.7002 -22.79 -95.3906 -32.3398 -139.851 -32.3398c-89.6699 0 -169.12 39.5498 -169.12 137.93c0 11.6904 1.12012 24.21 3.48047 37.5898l58.7998 333.48h84.8799l-59.0303 -334.75c-1.87012 -10.5996 -2.77051 -20.2998 -2.77051 -29.1602
c0 -56.5498 36.9502 -78.5098 96.1504 -78.5098c41.6504 0 82.7803 9.59961 116.45 24.3496l76.3496 418.07h84.8799z" />
    <glyph glyph-name="udieresiscaron" unicode="&#x1da;" horiz-adv-x="510" 
d="M427.02 715.74h-81.5303l-102.88 139.52h71.0498l75.8398 -101.11l110.95 101.11h75.4902zM280.879 675.101c22.7197 0 38.7109 -16.6104 38.7109 -39.3604c0 -24.2598 -19.4502 -45.1094 -43.0605 -45.1094c-23.6504 0 -40.3506 17.54 -40.3506 40.0801
c0 25.3496 20.54 44.3896 44.7002 44.3896zM466.74 675.101c22.7197 0 38.7109 -16.6201 38.7109 -39.3701c0 -24.2598 -19.4502 -45.0996 -43.0605 -45.0996c-23.6504 0 -40.3506 17.5303 -40.3506 40.0801c0 25.3398 20.54 44.3896 44.7002 44.3896zM453.491 -0.00878906
h-66.5488l4.66992 24.3398c-44.7002 -22.79 -95.3906 -32.3398 -139.851 -32.3398c-89.6699 0 -169.12 39.5498 -169.12 137.93c0 11.6904 1.12012 24.21 3.48047 37.5898l58.7998 333.48h84.8799l-59.0303 -334.75c-1.87012 -10.5996 -2.77051 -20.2998 -2.77051 -29.1602
c0 -56.5498 36.9502 -78.5098 96.1504 -78.5098c41.6504 0 82.7803 9.59961 116.45 24.3496l76.3496 418.07h84.8799z" />
    <glyph glyph-name="udieresisgrave" unicode="&#x1dc;" horiz-adv-x="510" 
d="M438.74 730.88h-56.5703l-58.2998 119.16h81.3701zM276.5 676.81c22.7197 0 38.7109 -16.6104 38.7109 -39.3604c0 -24.2598 -19.4502 -45.1094 -43.0605 -45.1094c-23.6504 0 -40.3506 17.5303 -40.3506 40.0801c0 25.3496 20.54 44.3896 44.7002 44.3896z
M462.361 676.81c22.7197 0 38.7109 -16.6104 38.7109 -39.3604c0 -24.2598 -19.4502 -45.1094 -43.0605 -45.1094c-23.6504 0 -40.3506 17.5303 -40.3506 40.0801c0 25.3496 20.54 44.3896 44.7002 44.3896zM453.503 -0h-66.5488l4.66016 24.3398
c-44.6904 -22.79 -95.3809 -32.3398 -139.851 -32.3398c-89.6699 0 -169.12 39.5498 -169.12 137.93c0 11.6904 1.12012 24.21 3.48047 37.5898l58.7998 333.48h84.8799l-59.0195 -334.75c-1.87012 -10.5996 -2.78027 -20.2998 -2.78027 -29.1602
c0 -56.5498 36.96 -78.5098 96.1602 -78.5098c41.6396 0 82.7695 9.59961 116.449 24.3496l76.3496 418.07h84.8799z" />
    <glyph glyph-name="udieresismacron" unicode="&#x1d6;" horiz-adv-x="510" 
d="M506.44 730.34h-242.61l8.37012 47.5098h242.62zM276.5 676.81c22.7197 0 38.7109 -16.6104 38.7109 -39.3604c0 -24.2598 -19.4502 -45.1094 -43.0605 -45.1094c-23.6504 0 -40.3506 17.5303 -40.3506 40.0801c0 25.3496 20.54 44.3896 44.7002 44.3896zM462.361 676.81
c22.7197 0 38.7109 -16.6104 38.7109 -39.3604c0 -24.2598 -19.4502 -45.1094 -43.0605 -45.1094c-23.6504 0 -40.3506 17.5303 -40.3506 40.0801c0 25.3496 20.54 44.3896 44.7002 44.3896zM453.503 -0h-66.5488l4.66016 24.3398
c-44.6904 -22.79 -95.3809 -32.3398 -139.851 -32.3398c-89.6699 0 -169.12 39.5498 -169.12 137.93c0 11.6904 1.12012 24.21 3.48047 37.5898l58.7998 333.48h84.8799l-59.0195 -334.75c-1.87012 -10.5996 -2.78027 -20.2998 -2.78027 -29.1602
c0 -56.5498 36.96 -78.5098 96.1602 -78.5098c41.6396 0 82.7695 9.59961 116.449 24.3496l76.3496 418.07h84.8799z" />
    <glyph glyph-name="ugrave" unicode="&#xf9;" horiz-adv-x="510" 
d="M424.24 580.83h-56.5693l-58.2305 119.17h81.2998zM453.501 0h-66.5488l4.66992 24.3398c-44.7002 -22.79 -95.3906 -32.3398 -139.851 -32.3398c-89.6699 0 -169.12 39.5498 -169.12 137.93c0 11.6904 1.12012 24.21 3.48047 37.5898l58.7998 333.48h84.8799
l-59.0303 -334.75c-1.87012 -10.5996 -2.77051 -20.2998 -2.77051 -29.1602c0 -56.5498 36.9502 -78.5098 96.1504 -78.5098c41.6504 0 82.7803 9.59961 116.45 24.3496l76.3496 418.07h84.8799z" />
    <glyph glyph-name="uhungarumlaut" unicode="&#x171;" horiz-adv-x="510" 
d="M309.13 579.98h-57.2305l71.8203 120.02h80.04zM443.899 579.98h-57.2305l71.8203 120.02h80.04zM453.489 0h-66.5488l4.66992 24.3398c-44.7002 -22.79 -95.3906 -32.3398 -139.851 -32.3398c-89.6699 0 -169.12 39.5498 -169.12 137.93
c0 11.6904 1.12012 24.21 3.48047 37.5898l58.7998 333.48h84.8799l-59.0303 -334.75c-1.87012 -10.5996 -2.77051 -20.2998 -2.77051 -29.1602c0 -56.5498 36.9502 -78.5098 96.1504 -78.5098c41.6504 0 82.7803 9.59961 116.45 24.3496l76.3496 418.07h84.8799z" />
    <glyph glyph-name="umacron" unicode="&#x16b;" horiz-adv-x="510" 
d="M483.19 604.25h-242.62l8.37988 47.5098h242.62zM453.5 0h-66.5488l4.66992 24.3398c-44.7002 -22.79 -95.3906 -32.3398 -139.851 -32.3398c-89.6699 0 -169.12 39.5498 -169.12 137.93c0 11.6904 1.12012 24.21 3.48047 37.5898l58.7998 333.48h84.8799
l-59.0303 -334.75c-1.87012 -10.5996 -2.77051 -20.2998 -2.77051 -29.1602c0 -56.5498 36.9502 -78.5098 96.1504 -78.5098c41.6504 0 82.7803 9.59961 116.45 24.3496l76.3496 418.07h84.8799z" />
    <glyph glyph-name="uogonek" unicode="&#x173;" horiz-adv-x="510" 
d="M453.37 -2l-18.9404 -5c-61.25 -46 -77.5596 -81 -82.75 -105c-1.05957 -4.96973 -1.55957 -9.51953 -1.55957 -13.6494c0 -24.1201 17.0303 -33.3799 39.8506 -33.3799c31.4502 0 58.1699 19.6797 80.9395 46.0293l35.7002 -21c-35.0303 -45 -80.7402 -69 -130.65 -69
c-38.8496 0 -85.5693 19.4697 -85.5693 73.7295c0 5.99023 0.570312 12.4102 1.78027 19.2705c3.62988 21 17.6201 61 92.75 110.08l6.7002 24.2598c-44.7002 -22.79 -95.3906 -32.3398 -139.851 -32.3398c-89.6699 0 -169.12 39.5498 -169.12 137.93
c0 11.6904 1.12012 24.21 3.48047 37.5898l58.7998 333.48h84.8799l-59.0303 -334.75c-1.87012 -10.5996 -2.77051 -20.2998 -2.77051 -29.1602c0 -56.5498 36.9502 -78.5098 96.1504 -78.5098c41.6504 0 82.7803 9.59961 116.45 24.3496l76.3496 418.07h84.8799z" />
    <glyph glyph-name="uring" unicode="&#x16f;" horiz-adv-x="510" 
d="M384.47 753.91c58.8896 0 102.94 -45.4199 102.94 -102.97c0 -67.8604 -65.71 -131.38 -133.28 -131.38c-59.4297 0 -102.89 46.6396 -102.89 103.439c0 68.5703 66.5195 130.91 133.229 130.91zM387.421 708.4c-46.7695 0 -92.3008 -40.8184 -92.3008 -89.7285
c0 -31.1104 22.6699 -54.1807 55.96 -54.1807c46.2305 0 91.8408 42.1396 91.8408 90.3994c0 31.0996 -22.6396 53.5098 -55.5 53.5098zM453.5 -0.00878906h-66.5488l4.66992 24.3398c-44.7002 -22.79 -95.3906 -32.3398 -139.851 -32.3398
c-89.6699 0 -169.12 39.5498 -169.12 137.93c0 11.6904 1.12012 24.21 3.48047 37.5898l58.7998 333.48h84.8799l-59.0303 -334.75c-1.87012 -10.5996 -2.77051 -20.2998 -2.77051 -29.1602c0 -56.5498 36.9502 -78.5098 96.1504 -78.5098
c41.6504 0 82.7803 9.59961 116.45 24.3496l76.3496 418.07h84.8799z" />
    <glyph glyph-name="v" unicode="v" horiz-adv-x="471" 
d="M283.39 0.0400391h-94.2295l-83.5898 500.91h84.9199l60.6602 -403.49l204.8 403.49h87.4697z" />
    <glyph glyph-name="w" unicode="w" horiz-adv-x="713" 
d="M537.69 0.0400391h-88.041l-33.0801 335.02l-151.77 -335.02h-87.1201l-72.1299 500.91h87.5195l45.4902 -387.84l168.66 387.84h73.4004l31.3896 -387.26l183.75 387.26h90.2002z" />
    <glyph glyph-name="wacute" unicode="&#x1e83;" horiz-adv-x="713" 
d="M485.48 580.83h-60.5693l75.5195 119.17h85.3799zM537.691 0.0400391h-88.041l-33.0801 335.02l-151.77 -335.02h-87.1201l-72.1299 500.91h87.5195l45.4902 -387.84l168.66 387.84h73.4004l31.3896 -387.26l183.75 387.26h90.2002z" />
    <glyph glyph-name="wcircumflex" unicode="&#x175;" horiz-adv-x="713" 
d="M624.76 572.41h-71.3193l-73.21 101.11l-113.59 -101.11h-75.21l152.09 139.52h81.5195zM537.681 0.0400391h-88.042l-33.0801 335.02l-151.76 -335.02h-87.1299l-72.1299 500.91h87.5195l45.5 -387.84l168.65 387.84h73.4004l31.4004 -387.26l183.74 387.26h90.2002z
" />
    <glyph glyph-name="wdieresis" unicode="&#x1e85;" horiz-adv-x="713" 
d="M380.86 675.1c22.7197 0 38.7197 -16.6104 38.7197 -39.3604c0 -24.2598 -19.46 -45.1094 -43.0703 -45.1094c-23.6396 0 -40.3496 17.54 -40.3496 40.0801c0 25.3496 20.54 44.3896 44.7002 44.3896zM566.721 675.1c22.7197 0 38.7197 -16.6201 38.7197 -39.3701
c0 -24.2598 -19.46 -45.0996 -43.0703 -45.0996c-23.6396 0 -40.3496 17.5303 -40.3496 40.0801c0 25.3398 20.54 44.3896 44.7002 44.3896zM537.681 0.0302734h-88.041l-33.0801 335.01l-151.77 -335.01h-87.1201l-72.1299 500.91h87.5195l45.4902 -387.84l168.66 387.84
h73.4004l31.3896 -387.27l183.75 387.27h90.2002z" />
    <glyph glyph-name="wgrave" unicode="&#x1e81;" horiz-adv-x="713" 
d="M501.3 580.83h-56.5693l-58.2305 119.17h81.2998zM537.681 0.0400391h-88.042l-33.0801 335.02l-151.76 -335.02h-87.1299l-72.1299 500.91h87.5195l45.5 -387.84l168.65 387.84h73.4004l31.4004 -387.26l183.74 387.26h90.2002z" />
    <glyph glyph-name="x" unicode="x" horiz-adv-x="435" 
d="M317.73 249.99l98.5 -249.95h-88.6396l-72.3203 189.7l-145.68 -189.7h-94.1299l197.06 251.04l-100.26 249.87h90.9902l70 -194.1l138.52 194.1h93.54z" />
    <glyph glyph-name="y" unicode="y" horiz-adv-x="515" 
d="M541.84 501l-93.3564 -530.002c-20.4902 -116 -101.641 -166 -197.391 -166c-65.2305 0 -125.53 21 -173.11 55l38.1504 46c33.29 -22.2305 73.9297 -36.0508 115.27 -36.0508c66.5498 0 117.819 28.46 130.859 101.05l13.1299 53.3096
c-36.9004 -16.1396 -86.6602 -24.2695 -129.58 -24.2695c-86.8203 0 -162.12 36.3604 -162.12 134.57c0 12.4805 1.21973 25.9609 3.7793 40.4912l57.46 325.9h84.8799l-57.8096 -327.85c-2.12012 -12.0303 -3.13965 -22.8799 -3.13965 -32.6396
c0 -57.9199 36.1201 -77.3301 93.2402 -77.3301c44.5195 0 89.2891 10.7402 119.009 22.6104l75.8496 415.21h84.8799z" />
    <glyph glyph-name="yacute" unicode="&#xfd;" horiz-adv-x="515" 
d="M375.31 580.83h-60.5693l75.5195 119.17h85.3799zM541.84 501l-93.3564 -530.002c-20.4902 -116 -101.641 -166 -197.391 -166c-65.2305 0 -125.53 21 -173.11 55l38.1504 46c33.29 -22.2305 73.9297 -36.0508 115.27 -36.0508c66.5498 0 117.819 28.46 130.859 101.05
l13.1299 53.3096c-36.9004 -16.1396 -86.6602 -24.2695 -129.58 -24.2695c-86.8203 0 -162.12 36.3604 -162.12 134.57c0 12.4805 1.21973 25.9609 3.7793 40.4912l57.46 325.9h84.8799l-57.8096 -327.85c-2.12012 -12.0303 -3.13965 -22.8799 -3.13965 -32.6396
c0 -57.9199 36.1201 -77.3301 93.2402 -77.3301c44.5195 0 89.2891 10.7402 119.009 22.6104l75.8496 415.21h84.8799z" />
    <glyph glyph-name="ycircumflex" unicode="&#x177;" horiz-adv-x="515" 
d="M528.05 572.41h-71.3096l-73.2002 101.11l-113.59 -101.11h-75.2197l152.09 139.52h81.5195zM541.851 501l-93.3564 -530.002c-20.4902 -116 -101.641 -166 -197.391 -166c-65.2305 0 -125.53 21 -173.11 55l38.1504 46c33.29 -22.2305 73.9297 -36.0508 115.27 -36.0508
c66.5498 0 117.819 28.46 130.859 101.05l13.1299 53.3096c-36.9004 -16.1396 -86.6602 -24.2695 -129.58 -24.2695c-86.8203 0 -162.12 36.3604 -162.12 134.57c0 12.4805 1.21973 25.9609 3.7793 40.4912l57.46 325.9h84.8799l-57.8096 -327.85
c-2.12012 -12.0303 -3.13965 -22.8799 -3.13965 -32.6396c0 -57.9199 36.1201 -77.3301 93.2402 -77.3301c44.5195 0 89.2891 10.7402 119.009 22.6104l75.8496 415.21h84.8799z" />
    <glyph glyph-name="ydieresis" unicode="&#xff;" horiz-adv-x="515" 
d="M284.15 675.11c22.7197 0 38.7197 -16.6201 38.7197 -39.3701c0 -24.2598 -19.46 -45.0996 -43.0703 -45.0996c-23.6396 0 -40.3496 17.5303 -40.3496 40.0801c0 25.3398 20.54 44.3896 44.7002 44.3896zM470.011 675.101c22.7197 0 38.7197 -16.6104 38.7197 -39.3604
c0 -24.2598 -19.46 -45.1094 -43.0703 -45.1094c-23.6396 0 -40.3496 17.54 -40.3496 40.0801c0 25.3496 20.54 44.3896 44.7002 44.3896zM541.831 500.99l-93.3564 -530.002c-20.4902 -116 -101.641 -166 -197.391 -166c-65.2305 0 -125.53 21 -173.11 55l38.1504 46
c33.29 -22.2305 73.9297 -36.0508 115.27 -36.0508c66.5498 0 117.819 28.46 130.859 101.05l13.1299 53.3096c-36.9004 -16.1396 -86.6602 -24.2695 -129.58 -24.2695c-86.8203 0 -162.12 36.3604 -162.12 134.57c0 12.4805 1.21973 25.9609 3.7793 40.4912l57.46 325.9
h84.8799l-57.8096 -327.85c-2.12012 -12.0303 -3.13965 -22.8799 -3.13965 -32.6396c0 -57.9199 36.1201 -77.3301 93.2402 -77.3301c44.5195 0 89.2891 10.7402 119.009 22.6104l75.8496 415.21h84.8799z" />
    <glyph glyph-name="ygrave" unicode="&#x1ef3;" horiz-adv-x="515" 
d="M427.51 580.83h-56.5596l-58.2305 119.17h81.29zM541.84 501l-93.3564 -530.002c-20.4902 -116 -101.641 -166 -197.391 -166c-65.2305 0 -125.53 21 -173.11 55l38.1504 46c33.29 -22.2305 73.9297 -36.0508 115.27 -36.0508c66.5498 0 117.819 28.46 130.859 101.05
l13.1299 53.3096c-36.9004 -16.1396 -86.6602 -24.2695 -129.58 -24.2695c-86.8203 0 -162.12 36.3604 -162.12 134.57c0 12.4805 1.21973 25.9609 3.7793 40.4912l57.46 325.9h84.8799l-57.8096 -327.85c-2.12012 -12.0303 -3.13965 -22.8799 -3.13965 -32.6396
c0 -57.9199 36.1201 -77.3301 93.2402 -77.3301c44.5195 0 89.2891 10.7402 119.009 22.6104l75.8496 415.21h84.8799z" />
    <glyph glyph-name="z" unicode="z" horiz-adv-x="434" 
d="M469.64 448.78l-315.681 -379.03h254.15l-12.29 -69.71h-360.66l8.21973 52.4404l315.54 378.77h-230.52l12.29 69.71h337.12z" />
    <glyph glyph-name="zacute" unicode="&#x17a;" horiz-adv-x="434" 
d="M336.53 580.83h-60.5693l75.5195 119.17h85.3799zM469.641 448.78l-315.681 -379.03h254.15l-12.29 -69.71h-360.66l8.21973 52.4404l315.54 378.77h-230.52l12.29 69.71h337.12z" />
    <glyph glyph-name="zcaron" unicode="&#x17e;" horiz-adv-x="434" 
d="M367.92 574.71h-81.5303l-102.88 139.52h71.0498l75.8398 -101.11l110.95 101.11h75.4902zM469.64 448.78l-315.68 -379.04h254.14l-12.29 -69.7002h-360.65l8.20996 52.4297l315.54 378.78h-230.51l12.29 69.7002h337.12z" />
    <glyph glyph-name="zdotaccent" unicode="&#x17c;" horiz-adv-x="434" 
d="M329.26 679.58c22.7197 0 38.7197 -16.6104 38.7197 -39.3604c0 -24.2598 -19.46 -45.1094 -43.0703 -45.1094c-23.6396 0 -40.3496 17.5303 -40.3496 40.0801c0 25.3496 20.54 44.3896 44.7002 44.3896zM469.64 448.78l-315.681 -379.04h254.15l-12.29 -69.7002h-360.66
l8.21973 52.4297l315.54 378.78h-230.52l12.29 69.7002h337.12z" />
    <glyph glyph-name="T_h" horiz-adv-x="1018" 
d="M774.02 700l-40.7822 -216.778c40.0098 18.1797 85.5195 25.8096 125.47 25.8096c85.8799 0 166.29 -36.2998 166.29 -136.52c0 -12.0703 -1.16992 -25.0703 -3.62988 -39.04l-58.8096 -333.48h-84.8799l59.0303 334.75c1.92969 10.9697 2.87012 20.9795 2.87012 30.0898
c0 56.3799 -35.9697 78.1494 -94.4297 78.1494c-42.2197 0 -84.0195 -10.1602 -118.27 -24.9102l-76.3496 -418.07h-84.8799l109.54 621.2h-262.6l-109.53 -621.2h-88.2598l109.54 621.2h-179.7l13.8896 78.7998h615.49z" />
    <glyph glyph-name="c_h" horiz-adv-x="965" 
d="M80.7803 198.12l19.5303 110.673c23.0195 130.54 105.579 188.48 194.249 197.971c12.9199 2.00977 25.4297 2.87988 37.7197 2.87988c21.7197 0 42.7295 -2.70996 64.0293 -6.58008c-2.76953 11.3398 -4.11914 22.8301 -4.11914 34.3105
c0 47.3398 23 94.46 64.2002 130.479c37.3496 31.2305 85.9795 50.3301 134.93 50.3301c57.1797 0 97.1494 -27.0801 120.949 -57.7402l-32.0898 -177.21c40 18.1797 85.5098 25.8096 125.45 25.8096c85.8896 0 166.29 -36.2998 166.29 -136.51
c0 -12.0801 -1.16016 -25.0801 -3.62988 -39.0498l-58.7998 -333.48h-84.8799l59.0303 334.75c1.92969 10.9697 2.87012 20.9795 2.87012 30.0898c0 56.3799 -35.9697 78.1494 -94.4297 78.1494c-42.2197 0 -84.0195 -10.1602 -118.27 -24.9102l-76.3496 -418.07h-84.9004
l115.09 637.38c-11.7803 6.33984 -25.6406 9.41016 -40.2705 9.41016c-29.6797 0 -62.4697 -12.6602 -87.2002 -36.3203c-28.2197 -25.1504 -47.7998 -60.54 -47.7998 -95.4102c0 -28.96 15.3496 -54.5 26.8896 -85.1104l-68.9805 -23.7803
c-22 24.46 -49.9297 33.9697 -81.4893 33.9697c-70.8799 0 -128.35 -44.7002 -144.71 -137.53l-19.5098 -110.66c-2.59961 -14.71 -3.83984 -28.0498 -3.83984 -40.0996c0 -63.9697 35.1396 -91.2598 90.1699 -91.2598c37.04 0 73.3896 15.1797 103.62 39.6396
l61.7998 -35.1396c-42.0303 -46.9004 -95.5498 -74.1006 -166.75 -74.1006c-108.31 0 -173.34 56.7998 -173.34 158.1c0 15.3301 1.49023 31.6904 4.54004 49.0205z" />
    <glyph glyph-name="c_t" horiz-adv-x="782" 
d="M78.7002 198.38l19.5225 110.587c23.5898 133.83 110.189 200.53 230.209 200.53c22.0498 0 43.5 -2.15039 65.8896 -5.9502c-3.12012 11.75 -4.62012 23.6797 -4.62012 35.6094c0 51.0303 27.5498 101.891 74.0195 137.181
c36.2598 26.3604 81.0596 42.0303 125.51 42.0303c74.1504 0 103.45 -37.3701 120.88 -57.9502l-26.4502 -159.49h122.91l-12.2998 -69.75h-122.91l-41.5498 -235.65c-2.69043 -15.2695 -4.06055 -29.2695 -4.06055 -42c0 -48.5898 19.9404 -78.8096 62.4209 -91.3291
c11.6104 -2.00977 23.7705 -2.91016 37.2207 -2.91016c8.66016 0 17.8506 0.370117 27.7803 1.06055l-6.75977 -69.3496c-9.78027 -0.830078 -19.5107 -1.31055 -28.9404 -1.31055c-13.3203 0 -26.0303 0.969727 -37.3398 3.30957
c-79.6299 11.2305 -140.689 57.6807 -140.689 150.721c0 13.6504 1.32031 28.3008 4.08008 43.9912l82.0498 449.97c-11.8398 6.21973 -25.3994 9.16992 -39.5898 9.16992c-27.8604 0 -58.1406 -11.3701 -82.541 -31.6699
c-30.1904 -24.3496 -53.1904 -60.0898 -53.1904 -97.1396c0 -30.2998 16.8096 -55.3496 27.1094 -87.8594l-69.1504 -23.75c-21.9902 24.46 -49.9199 33.9697 -81.4795 33.9697c-70.8799 0 -128.35 -44.7002 -144.72 -137.521l-19.5098 -110.66
c-2.59961 -14.71 -3.83984 -28.0596 -3.83984 -40.0996c0 -63.9697 35.1396 -91.2598 90.1699 -91.2598c37.04 0 73.3896 15.1699 103.62 39.6396l61.7998 -35.1504c-42.0303 -46.8896 -95.5205 -74.3496 -166.721 -74.3496c-108.32 0 -173.37 56.9902 -173.37 158.351
c0 15.3398 1.49023 31.7002 4.54004 49.0303z" />
    <glyph glyph-name="f_b" horiz-adv-x="800" 
d="M31.5098 -187l129.151 732.629c20.0098 113.43 101.39 165.83 200.12 165.83c125.36 0 195.53 -53.1396 195.61 -53.1396l-31.0498 -173.97c37.7305 14.7598 86.5605 24.6895 128.28 24.6895c83.7598 0 163.149 -35.3496 163.149 -136.59
c0 -12.54 -1.21973 -26.0801 -3.79004 -40.7002l-30.2402 -171.49c-22.46 -127.38 -124.79 -168.26 -216.4 -168.26c-50.7803 0 -98.5498 12.9902 -132.859 35.8701l-8.98047 -27.8701h-66.96l111.87 619.45c-34.6602 14.7402 -69.2197 21.6807 -105.29 21.6807
c-42.8203 0 -105.36 -21.5303 -121.2 -110.61l-5.24023 -29.5195h122.91l-11.6504 -66.0303h-122.9l-109.61 -621.97h-84.9199zM698.671 165.509l29.5283 166.941c2.12012 12.0303 3.15039 22.8701 3.15039 32.6299c0 57.9199 -36.1201 77.3301 -93.25 77.3301
c-44.5098 0 -89.2793 -10.7402 -118.949 -22.6104l-64.9297 -338.18c28.0498 -14.9004 65.0098 -22.6309 100.75 -22.6309c74.0498 0 130.92 36.4199 143.7 106.52z" />
    <glyph glyph-name="f_h" horiz-adv-x="811" 
d="M31.5098 -187l129.179 732.631c20 113.43 101.38 165.819 200.11 165.819c125.36 0 195.53 -53.1396 195.61 -53.1396l-31.2402 -175.09c40 18.1797 85.5098 25.8096 125.46 25.8096c85.8799 0 166.28 -36.2998 166.28 -136.52
c0 -12.0703 -1.16016 -25.0703 -3.62988 -39.04l-58.7998 -333.48h-84.8799l59.0303 334.75c1.92969 10.9697 2.87012 20.9795 2.87012 30.0898c0 56.3799 -35.9697 78.1494 -94.4297 78.1494c-42.2197 0 -84.0195 -10.1602 -118.27 -24.9102l-76.3496 -418.07h-84.9004
l111.86 619.44c-34.6504 14.75 -69.2207 21.6904 -105.28 21.6904c-42.6904 0 -105.32 -21.3896 -121.17 -110.39l-5.28027 -29.7402h122.91l-11.6504 -66.0303h-122.9l-109.61 -621.97h-84.9199z" />
    <glyph glyph-name="f_i" 
d="M31.5098 -187l129.168 732.63c20 113.44 101.38 165.83 200.11 165.83c80.1602 0 136.561 -26.2402 153.921 -32.9502l-7.67969 -58.04s-53.8701 20.6602 -130.07 20.6602c-53.5303 0 -117.5 -19.3096 -134.15 -111.649l-5.09961 -28.4805h293.08l-88.3398 -501h-84.8799
l76.6904 434.97h-208.22l-109.61 -621.97h-84.9199z" />
    <glyph glyph-name="f_j" 
d="M31.5098 -187l129.16 732.631c20 113.43 101.38 165.819 200.12 165.819c80.1504 0 136.551 -26.2402 153.921 -32.9404l-7.67969 -58.04s-53.8799 20.6602 -130.08 20.6602c-51.3604 0 -116.591 -18.04 -133.391 -108.63l-5.83008 -31.5h293.05l-97.4404 -553
c-13.7998 -78 -68.1094 -120 -132.739 -136c-18.2803 -4 -35.0107 -7 -53.4512 -7l4.79004 68c17.6104 2 32.7705 7 42.3105 14c37.8301 14 52.0898 50 57.7695 82l82.2402 465.97h-208.22l-109.61 -621.97h-84.9199z" />
    <glyph glyph-name="f_k" horiz-adv-x="800" 
d="M33.6797 -187l129.12 732.628c20 113.44 101.38 165.83 200.11 165.83c125.36 0 195.53 -53.1396 195.55 -53.1396l-62.4805 -361.01l243.16 210.9h104.94l-229.68 -205.92l168.01 -302.29h-93.4902l-132.67 243.82l-78.7695 -63l-32.9102 -180.82h-84.9004
l111.87 619.44c-34.6602 14.75 -69.2197 21.6904 -105.29 21.6904c-42.2197 0 -105.12 -20.9004 -121 -109.62l-5.42969 -30.5098h122.9l-11.6504 -66.0303h-122.9l-109.61 -621.97h-84.8799z" />
    <glyph glyph-name="f_l" horiz-adv-x="501" 
d="M31.5098 -187l129.15 732.629c20 113.43 101.38 165.819 200.12 165.819c125.36 0 195.53 -53.1396 195.53 -53.1396l-113.87 -658.31h-84.9004l111.86 619.44c-34.6504 14.75 -69.2207 21.6904 -105.28 21.6904c-42.6396 0 -105.29 -21.3301 -121.14 -110.3
l-5.2998 -29.8301h122.91l-11.6504 -66.0303h-122.9l-109.61 -621.97h-84.9199z" />
    <glyph glyph-name="s_p" horiz-adv-x="961" 
d="M57.7305 137.08l82.6016 0.0107422c-3.16016 -41.9199 20.9502 -79.7295 92.9697 -79.7295c69.2695 0 118.609 41.1504 118.609 93.6406c0 45 -47.3301 58.96 -103.22 75c-73.1602 18.7695 -140.66 42 -140.66 116.36c0 7.9502 0.769531 16.4805 2.38965 25.6504
c12.9805 73.6396 71.8506 142.449 192.87 142.449c19.7002 0 37.6699 -1.99023 56.1699 -5.25c-2.26953 9.62988 -3.46973 19.75 -3.46973 30.25c0 11.8096 1.51953 24.0791 4.75 36.6494c20.75 77.0801 99.4297 138.771 183.55 138.771
c84.25 0 141.92 -62.4102 141.92 -140.19c0 -9.07031 -0.790039 -18.3398 -2.40039 -27.75l-12.2598 -67.6104c42.71 22.8799 93.3896 33.25 141.05 33.25c86.6504 0 166.131 -36.4902 166.131 -134.37c0 -11.6201 -1.12012 -24.1104 -3.48047 -37.5l-30.2402 -171.5
c-23.2197 -131.65 -122.62 -173.21 -214.53 -174.21c-44.96 0 -90.5498 11.5898 -123.21 26.4697l-38.9297 -218.47h-84.8896l131.37 744.7c0.919922 5.46973 1.36035 10.8096 1.36035 16c0 47.0996 -36.3701 81.4199 -82.6699 81.4199
c-60.0996 0 -118.33 -53.75 -118.33 -115.36c0 -18.4502 5.90039 -34.79 16.1104 -47.2305c26.3701 -20.7402 38.2598 -50.3301 38.2598 -83.5498c0 -8.99023 -0.870117 -18.25 -2.56055 -27.6699h-81.5898c0.730469 4.08984 1.12012 8.25977 1.12012 12.4297
c0 30.9697 -21.3604 62.0693 -83.1406 62.0693c-77.4199 0 -110.87 -48.71 -110.87 -85.0898c0 -35.4199 38.7402 -51.8301 96.4502 -67.5703c85.2305 -20.71 149.57 -50.7295 149.57 -125.779c0 -87.6904 -70.96 -175.37 -209.89 -175.37
c-117.53 0 -172.57 53.6201 -172.57 126.54c0 7.33008 0.55957 14.8496 1.65918 22.54zM861.232 171.451l29.4297 166.932c1.37012 8.01953 2.03027 15.5498 2.03027 22.6094c0 54.5996 -39.8203 80.4492 -102.63 80.4492c-38.8604 0 -78.9307 -8.83008 -112.23 -23.7305
l-60.2803 -338.05c25.5303 -11.8701 66.54 -21.6396 107.94 -21.6396c69.8701 0 121.021 29.9697 135.74 113.43z" />
    <glyph glyph-name="s_t" horiz-adv-x="759" 
d="M62.7598 137.35l82.6016 0.0107422c-3.16992 -41.9102 20.9502 -79.7305 92.9697 -79.7305c69.2598 0 118.6 41.1504 118.6 93.6406c0 45.1699 -47.71 59.0898 -103.8 75.1895c-72.96 18.7002 -140.08 41.9805 -140.08 116.15c0 7.9502 0.769531 16.4902 2.38965 25.6699
c12.9502 73.4297 72.3398 141.58 195.28 141.58c18.9199 0 37.2803 -1.7998 60.4902 -4.76953c-2.83984 9.65039 -4.33008 20.0508 -4.33008 30.9512c0 40.1504 20.1797 87.1904 67.4697 129.4c39.25 34.2803 88.5996 53.4805 137.64 53.4805
c70.9404 0 105.851 -45.2803 117.82 -55.7607l-28.2002 -161.68h122.9l-12.2998 -69.75h-122.9l-41.0801 -232.95c-2.53027 -14.3496 -3.7998 -27.6299 -3.7998 -39.8301c0 -51.9805 23.1396 -84.3008 70.8701 -95.541c10.6396 -2.45996 22.8594 -3.72949 37.0996 -3.72949
c6.58008 0 13.5801 0.269531 21.0605 0.819336l-11.46 -69.5c-9.7998 -0.900391 -19.6396 -1.39062 -29.3496 -1.39062c-11.9004 0 -23.6309 0.740234 -34.9111 2.39062c-79.9805 10.1797 -140.931 54.8594 -140.931 148.39c0 13.96 1.34961 29 4.19922 45.1699
l80.1201 452.54c-12.9297 7.13965 -27.8398 10.7598 -43.3799 10.7598c-24.3896 0 -50.3301 -8.91992 -72.5703 -27.1504c-33.3096 -22.9502 -56.3994 -61.2305 -56.3994 -102.2c0 -18.6602 5.44043 -35.1299 16.2305 -48.5898
c19.9502 -21.04 29.4004 -48.04 29.4004 -77.2598c0 -8.53027 -0.80957 -17.2607 -2.38965 -26.0811h-81.5898c0.730469 4.08984 1.12012 8.25977 1.12012 12.4297c0 30.9697 -21.3604 62.0693 -83.1406 62.0693c-77.4199 0 -110.87 -48.71 -110.87 -85.0898
c0 -35.4199 38.7402 -51.8301 96.4502 -67.5703c85.2197 -20.71 149.569 -50.7295 149.569 -125.779c0 -87.6201 -71.0098 -175.64 -209.939 -175.64c-117.53 0 -172.521 53.8301 -172.521 126.78c0 7.33984 0.549805 14.8799 1.66016 22.5703z" />
    <glyph glyph-name="ordfeminine" unicode="&#xaa;" horiz-adv-x="336" 
d="M194.81 588.97l-26.2285 35.0303c20.75 17.7305 49.54 29.7002 82.1104 33.8799c8.45996 1.08008 17.1699 1.63965 26.0596 1.63965c89.8701 0 114.22 -41.0703 114.22 -93.3506c0 -13.6201 -1.65039 -27.9902 -4.23047 -42.6006l-30.7803 -174.6h-47.2803
l1.63965 13.5303c-25.8496 -11.96 -56.0596 -18.4902 -84.1494 -18.4805c-58.5996 1.03027 -107.85 21.8506 -107.85 81.1406c0 6.94043 0.679688 14.4209 2.08984 22.4512c13.8398 78.4805 82.1494 97.9102 147.13 97.9102c19.8496 0 43.96 -2.62988 65.9795 -5.41992
c0.660156 5.95996 1.0498 11.6504 1.0498 17c0 31.5596 -13.6504 51.8291 -66.7803 51.8291c-25.6299 0 -51.2695 -4.96973 -72.9795 -19.96zM311.261 408.2l16.9209 91.8809c-15.21 1.73047 -39.1299 6.30078 -57.96 6.30078
c-43.1504 0 -85.9707 -10.8301 -94.2012 -57.5205c-0.790039 -4.48047 -1.16992 -8.63086 -1.16992 -12.4805c0 -34.0898 29.7998 -44.0801 67.4102 -44.0801c24.7998 0 52.7402 8.42969 69 15.8994z" />
    <glyph glyph-name="ordmasculine" unicode="&#xba;" horiz-adv-x="328" 
d="M124.02 468.08l12.0195 68.1699c12.5098 70.96 60.4697 123.75 144.42 123.75c72.0098 0 103.56 -41.1396 103.56 -96c0 -9.21973 -0.889648 -18.8193 -2.62988 -28.6797l-12.0195 -68.1504c-10.8896 -61.75 -55.2295 -123.19 -143.739 -123.19
c-75.29 0 -104.03 45.5801 -104.03 97.2998c0 8.82031 0.839844 17.8203 2.41992 26.8008zM310.679 465.64l12.8115 72.751c1.05957 6.00977 1.59961 11.7695 1.59961 17.2197c0 30.9502 -17.1797 51.8506 -52.4199 51.8506c-43.3604 0 -69.9707 -27.6904 -77.3809 -69.6904
l-12.8301 -72.7598c-0.990234 -5.65039 -1.52051 -11.2705 -1.52051 -16.7109c0 -28.2305 14.3301 -51.7803 52.46 -51.7803c46.7998 0 71.0898 34.0098 77.2803 69.1201z" />
    <glyph glyph-name="uni0419" unicode="&#x419;" horiz-adv-x="633" 
d="M575.06 918.61l41.4814 -6.14941c-13.6504 -77.4502 -81.1904 -130.23 -156.431 -130.23c-72.2402 0 -122.54 47.21 -122.54 112.64c0 7.69043 0.700195 15.6201 2.12988 23.7598l40.9199 -6.15039c-5.63965 -48.9004 27.4404 -82.1699 77 -82.1699
c54.4697 0 105.84 39.4004 117.439 88.3008zM556.641 -0.00878906h-88.25l93.2305 522.97l-391.94 -522.97h-93.0898l123.43 700h88.2695l-94.7803 -531.75l397.7 531.75h88.8604z" />
    <glyph glyph-name="uni0410" unicode="&#x410;" horiz-adv-x="613" 
d="M585.24 0h-91l-32.5898 220.35h-231.55l-110.87 -220.35h-92.7598l359.91 700h85.2998zM265.51 299.15h188.53l-42.5498 289.6z" />
    <glyph glyph-name="uni0411" unicode="&#x411;" horiz-adv-x="603" 
d="M615.27 620.58h-335.858l-39.5303 -224.19h196.6c99.3398 0 155.55 -49.8398 155.55 -147.87c0 -17.3301 -1.75977 -36.1699 -5.33984 -56.5c-22.7803 -129.17 -97.7305 -192.02 -214.62 -192.02h-290.4l123.43 700.04h424.18zM225.971 317.83l-42.1895 -239.271h179.82
c74.2305 0 122.29 41.46 136.21 120.4c2.0498 11.6602 3.06934 22.4902 3.06934 32.4707c0 56.9404 -33.1699 86.4004 -96.3301 86.4004h-180.58z" />
    <glyph glyph-name="uni0412" unicode="&#x412;" horiz-adv-x="604" 
d="M205.03 700.03l268.92 0.0107422c102.19 0 155.551 -66.1797 155.551 -149.63c0 -11.9697 -1.09961 -24.3096 -3.30957 -36.8496c-14 -79.4404 -51.7002 -135.011 -115.23 -164.44c50.6699 -20.3096 77.9395 -69.04 77.9395 -128.04
c0 -11.7305 -1.08008 -23.8604 -3.27051 -36.2607c-21.1396 -119.92 -96.7393 -184.82 -213.64 -184.82h-290.4zM279.46 621.161l-40.791 -231.352h162.46c74.2305 0 122.28 41.46 136.2 120.4c1.40039 7.91992 2.10059 15.6504 2.10059 23.1104
c0 49.9404 -31.3496 87.8408 -95.2998 87.8408h-164.67zM224.499 309.909l-40.8008 -231.352h179.82c74.2402 0 122.29 41.46 136.21 120.4c1.38965 7.91016 2.08984 15.6406 2.08984 23.1006c0 49.9502 -31.3398 87.8506 -95.2998 87.8506h-182.02z" />
    <glyph glyph-name="uni0413" unicode="&#x413;" horiz-adv-x="522" 
d="M615.2 620.58h-335.86l-109.43 -620.58h-88.3096l123.43 700.04h424.18z" />
    <glyph glyph-name="uni0414" unicode="&#x414;" horiz-adv-x="711" 
d="M605.82 77.7305l81.9121 0.00878906l-40.3203 -228.74h-82.4004l26.6797 151.43h-472.15l-26.6797 -151.43h-82.2402l40.1396 228.74l64.7197 2.23047c39.1797 26.4404 69.0898 69.6904 79.2002 127.051l87 493.41h433.93zM356.042 621.589l-73.9707 -419.489
c-9.51953 -53.9805 -30.0791 -96.1504 -60.459 -124.36h295.87l95.8896 543.85h-257.33z" />
    <glyph glyph-name="uni0415" unicode="&#x415;" horiz-adv-x="567" 
d="M628.63 621.2l-349.249 -0.000976562l-40.9502 -232.26h322.79l-13.8896 -78.7998h-322.8l-40.79 -231.34h354.73l-13.9004 -78.7998h-442.98l123.43 700h437.51z" />
    <glyph glyph-name="uni0416" unicode="&#x416;" horiz-adv-x="964" 
d="M684.9 368.77l250.839 -368.77h-102.72l-241.66 364.03l-65.2002 -364.03h-88.3301l65.2002 364.03l-370.03 -364.03h-106.8l382.98 368.77l-211.35 331.23h99.71l203.96 -333.17l59.7695 333.17h88.3301l-59.7598 -333.17l321.44 333.17h103.84z" />
    <glyph glyph-name="uni0417" unicode="&#x417;" horiz-adv-x="517" 
d="M232.36 558.96l-70.8906 36.8477c30.8301 52.6699 102.13 114.89 194.74 114.89c98.1504 0 169.21 -61.1602 169.21 -157.25c0 -11.9805 -1.11035 -24.5 -3.40039 -37.5195c-12.7305 -72.1904 -66.6904 -121.46 -118.221 -145.43
c45.1699 -18.96 89.2197 -68.3604 89.2197 -142.44c0 -11.25 -1.01953 -23.0596 -3.19922 -35.4199c-22.5098 -127.68 -129.2 -204.64 -250.57 -204.64c-102.29 0 -159.59 57.7803 -182.52 105.391l70.4805 38.0303c18.6699 -39.6699 61.8799 -64.1396 114.979 -64.1396
c79.5098 0 150.45 60.1104 164.431 139.4c1.25 7.09961 1.86035 14.0596 1.86035 20.8496c0 61.4404 -49.6504 108.221 -118.61 108.221h-53.75l12.5303 71.0498h48.25c70.8896 0 144.59 62.2998 144.59 139.42c0 50.6504 -34.4404 86 -88.1602 86
c-59.2695 0 -103.27 -42.2402 -120.97 -73.2598z" />
    <glyph glyph-name="uni0418" unicode="&#x418;" horiz-adv-x="633" 
d="M556.65 0h-88.2598l93.2305 522.97l-391.94 -522.97h-93.0898l123.43 700h88.2695l-94.7803 -531.75l397.7 531.75h88.8701z" />
    <glyph glyph-name="uni041A" unicode="&#x41a;" horiz-adv-x="616" 
d="M328.65 368.77l250.84 -368.77h-102.72l-241.66 364.03l-65.2002 -364.03h-88.3203l123.43 700h88.3301l-59.7598 -333.17l321.44 333.17h103.83z" />
    <glyph glyph-name="uni041B" unicode="&#x41b;" horiz-adv-x="660" 
d="M587.85 0l-88.3418 0.000976562l109.53 621.16h-257.34l-76.8096 -435.58c-24.6104 -139.57 -121.471 -195.58 -241.03 -195.58l8.04004 77.0996c61.9004 0 129.69 33.1299 145.601 123.399l89.8398 509.5h433.94z" />
    <glyph glyph-name="uni041C" unicode="&#x41c;" horiz-adv-x="748" 
d="M669.23 0h-87.3613l88.4102 496.3l-256 -456.71h-65.25l-93.7998 456.71l-88.4199 -496.3h-87.3398l123.43 700h88.2402l111.4 -529.96l300.08 529.96h90.04z" />
    <glyph glyph-name="uni041D" unicode="&#x41d;" horiz-adv-x="652" 
d="M570.3 0h-88.2607l54.6904 310.14h-312.2l-54.6797 -310.14h-88.2598l123.43 700h88.2598l-54.8496 -311.06h312.19l54.8496 311.06h88.2598z" />
    <glyph glyph-name="uni041E" unicode="&#x41e;" horiz-adv-x="620" 
d="M104.36 218.42l45.999 260.891c27.9805 158.65 139.511 235.62 282.241 235.62c137.92 0 210.22 -74.4102 210.22 -188.34c0 -17.25 -1.66016 -35.4199 -5 -54.3701l-45.8398 -259.97c-29.8896 -169.52 -167.92 -224.26 -277.45 -224.26
c-102.36 0 -214.63 49.0098 -214.63 182.109c0 15.0195 1.42969 31.1094 4.45996 48.3193zM504.59 215.721l45.8398 259.97c2.73047 15.46 4.09082 29.9102 4.09082 43.29c0 75.5195 -43.3701 117.159 -129.311 117.159c-98.8604 0 -167.391 -49.3896 -186.95 -160.3
l-46 -260.88c-2.21973 -12.5996 -3.26953 -24.2295 -3.26953 -34.96c0 -84.1699 64.4805 -112.72 133.48 -112.72c79.2695 0 162.439 36.8203 182.119 148.44z" />
    <glyph glyph-name="uni041F" unicode="&#x41f;" horiz-adv-x="652" 
d="M570.3 0h-88.3398l109.53 621.16h-312.05l-109.53 -621.16h-88.3203l123.43 700h488.71z" />
    <glyph glyph-name="uni0420" unicode="&#x420;" horiz-adv-x="602" 
d="M205.02 700l256.521 0.000976562c117.86 0 177.62 -75.1396 177.62 -167.09c0 -12.9404 -1.17969 -26.2002 -3.5498 -39.6406c-23.0098 -130.49 -109.58 -204.891 -242.98 -204.841h-171.92l-50.8604 -288.43h-88.2598zM279.55 621.211l-44.749 -253.771h167.83
c81.4199 0 134.09 45.4404 149.35 131.99c1.53027 8.69043 2.2998 17.1709 2.2998 25.3613c0 54.8203 -34.4102 96.4199 -104.561 96.4199h-170.17z" />
    <glyph glyph-name="uni0421" unicode="&#x421;" horiz-adv-x="563" 
d="M106.62 231.22l43.9209 249.119c27.9697 158.66 140.91 235.63 280.521 235.63c107.04 0 172.32 -49.25 193.45 -123.55l-68.0898 -25.2695c-17.0195 47.0596 -61.8799 69.8496 -121.33 69.8496c-97.2305 0 -178.391 -55.1396 -197.381 -162.83l-43.9297 -249.11
c-2.4502 -13.9297 -3.64062 -26.8896 -3.64062 -38.8896c0 -80.6699 53.5 -118.12 132.8 -118.12c65.3096 0 123.229 28.6699 156.539 75.9902l60.8398 -36.8799c-46.9297 -74.2998 -124.84 -118.16 -226.399 -118.16c-127.33 0 -212.38 64.3701 -212.38 187.37
c0 17.1504 1.65039 35.4404 5.08008 54.8506z" />
    <glyph glyph-name="uni0422" unicode="&#x422;" horiz-adv-x="530" 
d="M598.68 621.2h-186.089l-109.53 -621.2h-88.2598l109.54 621.2h-179.7l13.8896 78.7998h454.05z" />
    <glyph glyph-name="uni0423" unicode="&#x423;" horiz-adv-x="628" 
d="M703.37 700l-359.63 -597.779c-40.1201 -66.6104 -93.2197 -116.221 -173.12 -116.221h-75.04l13.9004 79.0801h54.6602c52.71 0 91.3096 34.5098 120.729 86.46l34.7695 53.75l-140.06 494.71h90.1797l106.81 -395.9l234.44 395.9h92.3604z" />
    <glyph glyph-name="uni0424" unicode="&#x424;" horiz-adv-x="763" 
d="M537.2 631.53l25.2393 0.00878906c118.62 0 206.47 -48.8701 206.47 -198.39c0 -26.5098 -2.75977 -56.1895 -8.59961 -89.3193c-37.7695 -214.17 -152.069 -275.41 -292.449 -275.47h-29.9805l-12.0498 -68.3604h-88.3096l12.0498 68.4199h-24.4502
c-120.89 0 -207.279 49.2402 -207.279 197.71c0 26.71 2.79004 56.6201 8.67969 90.04c37.7803 214.26 152.521 275.39 292.66 275.47h29.7695l12.0596 68.3604h88.25zM451.81 147.52l24.5596 -0.00195312c103.11 1.40039 169.61 48.4707 197.851 208.661
c5.20996 29.5303 7.75977 54.9102 7.75977 76.6699c0 91.7305 -45.4004 118.891 -128.66 120.001h-29.96zM435.029 552.848l-24.1094 -0.00195312c-103.83 -1.5 -170.03 -48.5596 -198.32 -209.02c-5.19043 -29.4199 -7.73047 -54.7295 -7.73047 -76.4297
c0 -92.0596 45.75 -119.159 129.12 -120.159h29.4902z" />
    <glyph glyph-name="uni0425" unicode="&#x425;" horiz-adv-x="628" 
d="M438.71 362.75l160.859 -362.75h-101.51l-130.69 293.23l-234.46 -293.23h-106.71l291.86 362.78l-149 337.22h99.79l116.94 -279.28l217.35 279.28h105.57z" />
    <glyph glyph-name="uni0427" unicode="&#x427;" horiz-adv-x="615" 
d="M271.76 700.42l-45.1406 -255.97c-1.79004 -10.1602 -2.66992 -19.3906 -2.66992 -27.751c0 -48.96 30.2002 -68.0898 84.7998 -68.0898c47.6299 0 177.63 21.9404 200.7 26.0508l60.0703 325.34h87.8203l-123.43 -700h-87.8799l54.79 294.97
c-49.1602 -7.15039 -167.49 -27.4902 -221.351 -27.4902c-89.6504 0 -147.41 46.3203 -147.41 127.67c0 10.9199 1.04004 22.46 3.17969 34.6104l47.7305 270.66h88.79z" />
    <glyph glyph-name="uni0426" unicode="&#x426;" horiz-adv-x="690" 
d="M583.51 76.96h83.7207l-40.2803 -227.96h-82.4004l26.5996 150h-490.02l123.47 700.65h88.3398l-109.53 -621.16h312.05l109.53 621.16h88.3203z" />
    <glyph glyph-name="uni0428" unicode="&#x428;" horiz-adv-x="948" 
d="M867.07 0h-785.311l123.39 699.79h88.3398l-109.52 -621.16h260.15l109.53 621.16h88.3398l-109.53 -621.16h260.16l109.52 621.16h88.3203z" />
    <glyph glyph-name="uni0429" unicode="&#x429;" horiz-adv-x="988" 
d="M880.66 77.0996l83.7197 -0.00976562l-40.2998 -228.1h-82.4102l26.71 151h-786.62l123.39 699.8h88.3398l-109.52 -621.16h260.15l109.53 621.16h88.3398l-109.53 -621.16h260.16l109.52 621.16h88.3203z" />
    <glyph glyph-name="uni042F" unicode="&#x42f;" horiz-adv-x="603" 
d="M521.34 0h-88.252l51.79 293.72h-109.14l-231.2 -293.72h-105.13l246.75 305.7l-28.1504 2.17969c-77.9102 13.8701 -119.09 65.0605 -119.09 147.271c0 16.4297 1.65039 34.0996 4.9707 52.96c17.9004 101.52 104.431 191.89 238.881 191.89h262zM542.618 621.2
l-169.398 0.0107422c-80.6299 0.0498047 -134.11 -54.4902 -145.771 -120.63c-2.16992 -12.29 -3.24023 -23.7305 -3.24023 -34.29c0 -61.5703 36.5098 -93.5605 106.01 -93.5605h168.59z" />
    <glyph glyph-name="uni042C" unicode="&#x42c;" horiz-adv-x="595" 
d="M239.9 396.39h196.581c99.3398 0 155.55 -49.8398 155.55 -147.87c0 -17.3301 -1.75977 -36.1699 -5.33984 -56.5c-22.7803 -129.18 -97.7305 -192.02 -214.62 -192.02h-290.4l123.43 700.01h88.3398zM225.972 317.83l-42.1895 -239.271h179.82
c74.2305 0 122.29 41.46 136.21 120.4c2.0498 11.6602 3.06934 22.4902 3.06934 32.4707c0 56.9404 -33.1699 86.4004 -96.3301 86.4004h-180.58z" />
    <glyph glyph-name="uni042A" unicode="&#x42a;" horiz-adv-x="665" 
d="M309.58 396.39h196.58c99.3398 0 155.55 -49.8398 155.55 -147.87c0 -17.3301 -1.75977 -36.1699 -5.33984 -56.5c-22.7803 -129.18 -97.7305 -192.02 -214.62 -192.02h-290.4l109.8 622.71h-147.1l13.6299 77.2998h235.44zM295.21 317.83l-42.1885 -239.271h179.81
c74.2402 0 122.29 41.46 136.21 120.4c2.05957 11.6602 3.0791 22.4902 3.0791 32.4707c0 56.9404 -33.1699 86.4004 -96.3301 86.4004h-180.58z" />
    <glyph glyph-name="uni042B" unicode="&#x42b;" horiz-adv-x="826" 
d="M239.83 396.39l196.582 -0.00976562c99.3301 0 155.54 -49.8398 155.54 -147.87c0 -17.3301 -1.75 -36.1602 -5.33984 -56.4902c-22.7803 -129.18 -97.7207 -192.029 -214.621 -192.029h-290.4l123.43 700.02h88.3398zM744.872 -0.00976562h-87.8398l123.43 700.01
h87.8398zM225.902 317.83l-42.1895 -239.271h179.82c74.2305 0 122.29 41.46 136.21 120.39c2.0498 11.6602 3.06934 22.4902 3.06934 32.4805c0 56.9404 -33.1699 86.4004 -96.3301 86.4004h-180.58z" />
    <glyph glyph-name="uni042D" unicode="&#x42d;" horiz-adv-x="563" 
d="M207.56 560.65l-60.8594 36.8613c46.9297 74.2998 124.84 117.729 226.399 117.729c127.33 0 212.38 -64.0303 212.38 -186.95c0 -17.1396 -1.65039 -35.4199 -5.08008 -54.8398l-43.9199 -249.11c-27.9805 -158.65 -140.94 -235.351 -280.551 -235.351
c-107.04 0 -172.29 48.9805 -193.42 123.28l68.0898 25.2695c17.0303 -47.0703 61.8906 -69.8604 121.331 -69.8604c97.2305 0 178.391 55.1396 197.381 162.83l15.1699 86.04h-244.24l12.5 70.8701h244.24l16.2598 92.2002
c2.45996 13.9297 3.63965 26.8896 3.63965 38.8896c0 80.6699 -53.4902 118.12 -132.811 118.12c-65.29 0 -123.21 -28.6699 -156.51 -75.9795z" />
    <glyph glyph-name="uni042E" unicode="&#x42e;" horiz-adv-x="868" 
d="M382.1 389.23l15.5996 88.4697c27.9697 158.65 139.51 235.62 282.24 235.62c137.91 0 210.21 -74.4102 210.21 -188.33c0 -17.2598 -1.66016 -35.4199 -5 -54.3701l-45.8398 -259.98c-29.8896 -169.52 -167.989 -224.64 -277.52 -224.64
c-102.35 0 -214.56 49.3096 -214.56 182.46c0 15.0303 1.42969 31.1299 4.45996 48.3496l16.5098 93.6201h-144.11l-54.7402 -310.43h-87.7598l123.43 700h87.7598l-54.79 -310.77h144.11zM752.149 216.811l45.8408 259.978
c2.80957 15.9404 4.20996 30.7207 4.20996 44.3311c0 74.1602 -41.71 113.41 -125.18 113.41c-101.23 0 -172.601 -52.0898 -192.15 -163l-46 -260.89c-2.26953 -12.8799 -3.33984 -24.7197 -3.33984 -35.5898c0 -83.1104 62.5898 -109.38 129.3 -109.38
c81.6201 0 167.64 39.5303 187.319 151.141z" />
    <glyph glyph-name="uni0430" unicode="&#x430;" horiz-adv-x="497" 
d="M187.07 407.98l-39.9502 46.8311c31.3203 24.8604 72.1006 44.5801 124.891 51.4697c13.1904 1.71973 27.1201 2.63965 41.8398 2.63965c146.73 0 185.631 -67.1602 185.631 -149.04c0 -20.5 -2.44043 -41.9199 -6.23047 -63.4502l-52.6504 -298.87h-66.5303l4.5 24.4404
c-42.71 -22 -93.3496 -32 -138.649 -32c-94.6602 1.78027 -173.7 38.7705 -173.7 139.16c0 12.4297 1.20996 25.8301 3.75977 40.2598c22.9502 130.2 128.13 160.76 231.99 160.76c34.9297 0 72.8301 -4.05957 108.62 -8.45996
c2.67969 13.2695 4.43945 26.3594 4.43945 38.709c0 44.5703 -22.8701 79.8105 -108.25 79.8105c-47.1299 0 -87.4102 -13.1396 -119.71 -32.2598zM368.26 83.6416l36.7012 178.062c-30.7305 4.09961 -62.9902 7.11914 -91.0205 7.11914
c-80.0098 0 -151.99 -24.2803 -167.49 -112.15c-1.48047 -8.40039 -2.19043 -16.1504 -2.19043 -23.3008c0 -58.8604 48.2002 -76.5303 110.391 -76.5303c40.3496 0 81.6191 11.0703 113.609 26.8008z" />
    <glyph glyph-name="uni0431" unicode="&#x431;" horiz-adv-x="546" 
d="M533.43 700.1l-6.97168 -71.2217c-100.93 -1.66992 -189.84 -8.01953 -247.59 -48.5498c-44.9805 -30.3799 -69.5508 -68.21 -89.9004 -152.93c36.1504 48.8799 87.6006 71.9297 153.221 71.9297c104.64 0 159.439 -62.9297 159.439 -156.029
c0 -15.1699 -1.4502 -31.1504 -4.39062 -47.79l-19.5703 -110.99c-17.2695 -97.9805 -83.9492 -195.521 -227.339 -195.521c-126.97 0 -174.649 75.5303 -174.649 159.48c0 13.9404 1.30957 28.1104 3.7998 42.21l22.1904 125.84
c33.1904 187.19 60.4502 266.91 134.42 320.101c68.9004 50.4404 171.771 57.1006 297.341 63.4707zM393.868 190.688l19.5703 110.98c2.41016 13.6699 3.61035 26.3398 3.61035 37.96c0 58.0898 -30.0098 89.9502 -88.9697 89.9502
c-80.7002 0 -129.891 -46.9404 -145.251 -134.08l-19.5703 -110.99c-2.08984 -11.8301 -3.2002 -23.3398 -3.2002 -34.2803c0 -52.4297 25.54 -91.7998 91.6104 -91.7998c84.8701 0 130.07 63.46 142.2 132.26z" />
    <glyph glyph-name="uni0432" unicode="&#x432;" horiz-adv-x="501" 
d="M152.68 500.29h215.501c63.9004 0 134.71 -31.29 134.71 -109.47c0 -8.11035 -0.759766 -16.7207 -2.37012 -25.8604c-15.3701 -87.21 -84.9502 -104.08 -89.5303 -105.38c2.08984 -3.03027 61.6797 -23.9404 61.6797 -99.25
c0 -8.84961 -0.830078 -18.46 -2.66016 -28.8701c-17.6904 -100.3 -104.48 -131.46 -170.83 -131.46h-234.72zM199.32 284.38l121.16 -0.000976562c51.1201 0 88.6602 25.4805 97.5498 75.9209c1.00977 5.7002 1.5 11.0801 1.5 16.1504
c0 37.3896 -26.8203 57.29 -71.79 57.29h-122.08zM160.99 66.959l128.96 0.000976562c30.5898 0 88.8096 13.5996 100.77 81.3896c1.08984 6.21973 1.59961 11.9697 1.59961 17.2998c0 50.3096 -45.5498 62.2793 -73.0596 62.2793h-129.89z" />
    <glyph glyph-name="uni0433" unicode="&#x433;" horiz-adv-x="415" 
d="M460.02 433.82h-234.189l-76.4902 -433.82h-84.8799l88.3301 500.91h319.06z" />
    <glyph glyph-name="uni0434" unicode="&#x434;" horiz-adv-x="597" 
d="M509.32 67.7598l71.1113 -0.000976562l-32.8203 -185.77h-78.0801l20.9404 118.45h-383.69l-20.9502 -118.45h-78.0303l30.1797 186.7c36.3398 0 58.8096 3.92969 82.6191 21.6797c20.9004 14.7002 35.5107 37.1201 40.6006 66.0303l60.75 344.5h363.74zM295.002 433.809
l-49.2998 -279.569c-7.30957 -41.4902 -23.5195 -68.2305 -42.8496 -86.4805h221.59l64.5498 366.05h-193.99z" />
    <glyph glyph-name="uni0435" unicode="&#x435;" horiz-adv-x="473" 
d="M74.8096 164.24l28.6201 162.343c17.7998 100.93 82.1602 163.979 177.8 179.529c15.4102 2.50977 31.6299 3.7793 48.5996 3.7793c110.79 0 163.64 -56.4404 163.64 -143.36c0 -14.04 -1.37988 -28.8701 -4.12012 -44.3896l-17.9004 -101.53h-304.1l-12.7197 -72.1299
c-1.34961 -7.67969 -2 -14.8594 -2 -21.5391c0 -50.54 37.2803 -72.9805 89.0303 -72.9805c43.3604 0 93.6104 16.4697 136.141 42.2598l42.7002 -44.75c-48.0498 -38.4902 -108.29 -61.4805 -185.49 -61.4805c-111.11 0 -163.561 57.2695 -163.561 137.6
c0 11.7598 1.12988 24.0098 3.36035 36.6494zM401.56 276.633l9.58984 54.3701c1.98047 11.25 2.91016 21.46 2.91016 30.71c0 61.5 -41.0898 80.54 -86.6094 80.54c-62.8301 0 -124.6 -33.21 -139.75 -119.14l-8.19043 -46.4805h222.05z" />
    <glyph glyph-name="uni0436" unicode="&#x436;" horiz-adv-x="795" 
d="M486.25 267.98l259.841 232.93h98.3096l-272.3 -237.83l199.45 -262.46h-96.3496l-190.35 258.24l-46.5498 -258.47h-81.1504l46.5498 258.47l-281.39 -258.24h-100.33l294.05 262.46l-186.41 237.83h94.2598l181.25 -232.84l42.1396 234.19h81.1396z" />
    <glyph glyph-name="uni0437" unicode="&#x437;" horiz-adv-x="459" 
d="M185.27 401.74l-61.8086 35.1182c42.0303 46.8896 93.9404 74.2393 175.46 74.2393c95.4902 0 174.59 -35.1797 174.59 -115.39c0 -90.2695 -76.79 -125.409 -99.3701 -136.719c13.46 -6.62012 67.8799 -33.5098 67.8799 -101.54
c0 -115.86 -130.51 -166.45 -234.1 -166.45c-82.4297 0 -132.52 26.3701 -155.63 70.54l67.3096 24.5898c20.8096 -18.1504 55.2695 -25.4199 85.1191 -25.4795c54.5996 0 154.859 24.25 154.859 106.21c0 48.2402 -45.3496 61.6006 -89.1494 61.6006h-72.3096
l9.98047 56.6104h66.7197c56.5801 0 102.15 32.9004 111.471 85.7402c0.790039 4.46973 1.17969 8.72949 1.17969 12.7793c0 38.25 -34.6504 57.79 -94.9902 57.79c-39.3301 0 -76.9805 -15.1797 -107.211 -39.6396z" />
    <glyph glyph-name="uni0438" unicode="&#x438;" horiz-adv-x="516" 
d="M452.57 0h-80.5898l62.5703 349.25l-283.93 -349.25h-86.1602l88.3301 500.91h80.5898l-62.3799 -348.09l284.06 348.09h85.8398z" />
    <glyph glyph-name="uni0439" unicode="&#x439;" horiz-adv-x="516" 
d="M484.13 710.91l41.4814 -6.13965c-13.6602 -77.46 -81.1904 -130.24 -156.431 -130.24c-72.2402 0 -122.54 47.21 -122.54 112.64c0 7.69043 0.700195 15.6201 2.12988 23.7598l40.9199 -6.15039c-5.63965 -48.9004 27.4404 -82.1699 77 -82.1699
c54.4697 0 105.84 39.4004 117.439 88.3008zM452.571 0.000976562h-80.5889l62.5703 349.25l-283.94 -349.25h-86.1504l88.3203 500.92h80.5898l-62.3701 -348.09l284.06 348.09h85.8301z" />
    <glyph glyph-name="uni043A" unicode="&#x43a;" horiz-adv-x="503" 
d="M192.26 266.73l261.14 233.78h98.3096l-272.3 -237.83l199.44 -262.46h-96.3496l-192.12 254.61l-44.7803 -254.83h-81.1299l88.4697 501.77h81.1504z" />
    <glyph glyph-name="uni043B" unicode="&#x43b;" horiz-adv-x="559" 
d="M495.24 0.0195312l-84.8604 -0.000976562l76.4902 433.82h-193.99l-50.4502 -286.14c-10.8896 -61.7305 -37.6895 -102.07 -75.8994 -129.7c-34.0801 -18 -76.6104 -29 -125.561 -29l7.36035 73.1299c20.6797 0 47.5693 5.50977 69.6992 22.0596
c20.4902 14.6201 34.8105 36.8506 39.8906 65.6406l61.9004 351.08h363.75z" />
    <glyph glyph-name="uni043C" unicode="&#x43c;" horiz-adv-x="623" 
d="M559.9 0h-80.5801l61.04 341.24l-192.82 -341.24h-68.9697l-72.5 341.24l-61.04 -341.24h-80.5703l88.6299 502.64h84.4102l88.1504 -416.42l236.74 416.42h86.1396z" />
    <glyph glyph-name="uni043D" unicode="&#x43d;" horiz-adv-x="516" 
d="M452.57 0h-84.8799l38.4004 217.77h-218.35l-38.4004 -217.77h-84.8799l88.6299 502.64h84.8799l-38.4004 -217.78h218.35l38.4004 217.78h84.8799z" />
    <glyph glyph-name="uni043E" unicode="&#x43e;" horiz-adv-x="491" 
d="M79.8701 192.97l21.2188 120.41c19.25 109.17 81.29 177.18 181.021 193.72c15.79 2.62012 32.5205 3.9502 50.1709 3.9502c113.59 0 171.38 -61.8604 171.38 -156.46c0 -15.0098 -1.4502 -30.8398 -4.37012 -47.3799l-21.2305 -120.41
c-17.2803 -98 -83.9004 -195.8 -227.33 -195.8c-126.97 0 -174.66 75.7402 -174.66 159.74c0 13.9502 1.32031 28.1299 3.80078 42.2295zM393.669 190.26l21.2305 120.41c2.30957 13.1396 3.45996 25.4199 3.45996 36.7803c0 59.5703 -31.6602 93.8398 -93.0703 93.8398
c-78.2803 0 -124.7 -44.2998 -140.05 -131.38l-21.2305 -120.41c-1.99023 -11.2998 -3.04004 -22.3701 -3.04004 -32.9902c0 -53.79 27.0303 -95.7998 95.7002 -95.7998c82.4502 0 124.87 60.7803 137 129.55z" />
    <glyph glyph-name="uni043F" unicode="&#x43f;" horiz-adv-x="516" 
d="M452.57 0h-84.8711l76.4902 433.82h-218.35l-76.4902 -433.82h-84.8799l88.3203 500.91h388.11z" />
    <glyph glyph-name="uni0440" unicode="&#x440;" horiz-adv-x="509" 
d="M221.36 500.42l-4.50098 -24.1709c42.71 22.8799 93.3496 32.3203 138.649 32.3203c88.9502 0 170.311 -38.8096 170.311 -137.619c0 -11.4902 -1.09961 -23.7998 -3.41992 -36.96l-30.2402 -171.49c-23.2197 -131.65 -119.779 -170.5 -209.329 -171.5
c-47.3203 0 -92.9307 12.71 -125.581 27.5898l-41.2695 -219.59h-84.8398l123.69 701.42h66.5303zM409.329 174.139l29.5488 166.932c1.41016 8.2998 2.10059 16.04 2.10059 23.2402c0 53.5996 -38.1201 77.1191 -98.5605 77.1191
c-41.2197 0 -81.5098 -9.57031 -114.76 -24.4805l-64.8896 -337.94c25.54 -11.8701 66.5898 -21 105.63 -21c72.2305 0 126.221 32.6699 140.931 116.13z" />
    <glyph glyph-name="uni0441" unicode="&#x441;" horiz-adv-x="446" 
d="M80.7803 198.12l19.5186 110.661c23.2402 131.83 110.61 201.11 229.83 201.11c76.6904 0 123.311 -32.9404 149.101 -79.8408l-68.9404 -23.8799c-21.9902 24.46 -49.9199 33.9697 -81.4795 33.9697c-70.8799 0 -128.35 -44.7002 -144.72 -137.521l-19.5098 -110.66
c-2.59961 -14.71 -3.83984 -28.0596 -3.83984 -40.0996c0 -63.9697 35.1396 -91.2598 90.1699 -91.2598c37.0498 0 73.3896 15.1699 103.62 39.6299l61.8096 -35.1396c-42.04 -46.8896 -95.5596 -74.0898 -166.76 -74.0898c-108.31 0 -173.34 56.79 -173.34 158.09
c0 15.3398 1.49023 31.6895 4.54004 49.0293z" />
    <glyph glyph-name="uni0442" unicode="&#x442;" horiz-adv-x="461" 
d="M499.06 433.39h-149.57l-76.4199 -433.39h-84.8799l76.4199 433.39h-149.58l11.9102 67.5195h384.03z" />
    <glyph glyph-name="uni0443" unicode="&#x443;" horiz-adv-x="515" 
d="M541.84 501l-93.3477 -530.003c-20.0801 -113 -100.49 -166 -196.2 -166c-67.4404 1 -125.881 20 -174.301 55l37.6797 47c39.8799 -26 83.4902 -39 119.891 -39c62.2598 0 114.54 35 126.55 103l13.2803 53.3096c-36.9004 -16.1396 -86.6602 -24.2695 -129.58 -24.2695
c-86.8203 0 -162.12 36.3604 -162.12 134.57c0 12.4805 1.21973 25.9609 3.7793 40.4912l57.46 325.9h84.8799l-57.8096 -327.85c-2.12012 -12.0303 -3.13965 -22.8799 -3.13965 -32.6396c0 -57.9199 36.1201 -77.3301 93.2402 -77.3301
c44.5195 0 89.2891 10.7402 119.009 22.6104l75.8496 415.21h84.8799z" />
    <glyph glyph-name="uni0444" unicode="&#x444;" horiz-adv-x="668" 
d="M465.6 505.59l13.3818 -0.0292969c118.77 -0.169922 194.59 -47.2295 194.59 -178.029c0 -23.7803 -2.50977 -50.3203 -7.70996 -79.8506c-32.1602 -182.37 -107.48 -253.67 -270.33 -253.67h-20.2002l-34.3604 -195h-84.8799l34.3604 195h-15.8203
c-136.42 0 -192.26 56.7695 -192.26 172.409c0 27.7803 3.21973 58.9502 9.31934 93.5498c32.7695 185.89 128.27 245.58 268.85 245.62h20.1797l34.4902 195.56h84.8799zM387.661 63.5801l12.79 0.000976562c96.6797 0.629883 155.87 44.21 182.69 196.31
c4.33984 24.5996 6.35938 45.8594 6.35938 64.209c0 92.2695 -51.2197 111.069 -117.43 111.64l-18.7803 -0.0195312zM368.421 435.721l-13.9805 -0.000976562c-80.04 0 -152.78 -33.4902 -180.04 -188.09c-5.17969 -29.3701 -7.83008 -54.5498 -7.83008 -76
c0 -79.8096 36.6602 -108.02 116.23 -108.02l19.9902 -0.0400391z" />
    <glyph glyph-name="uni0445" unicode="&#x445;" horiz-adv-x="435" 
d="M317.73 249.99l98.5 -249.95h-88.6396l-72.3203 189.7l-145.68 -189.7h-94.1299l197.06 251.04l-100.26 249.87h90.9902l70 -194.1l138.52 194.1h93.54z" />
    <glyph glyph-name="uni0447" unicode="&#x447;" horiz-adv-x="500" 
d="M221.48 502.64l-29.4502 -167.091c-1.51953 -8.59961 -2.26953 -16.4092 -2.26953 -23.459c0 -38.4297 22.4404 -54.4102 66.4404 -54.4102c43.8604 0 112.25 13.1201 140.99 18.5703l42.6299 226.39h84.8799l-88.6299 -502.64h-84.9697l38.2002 200.79
c-31.9102 -6.15039 -108.021 -19.4805 -163.261 -19.4805c-72.7002 0 -124.21 38.7998 -124.21 109.93c0 9.32031 0.889648 19.2002 2.71973 29.6201l32.0498 181.78h84.8799z" />
    <glyph glyph-name="uni0446" unicode="&#x446;" horiz-adv-x="552" 
d="M464.6 68.0596l71.1104 -0.000976562l-32.7695 -186.06h-78.0801l20.8896 118.74h-381.15l88.2197 500.34h84.9004l-76.3896 -433.25h218.35l76.3896 433.25h84.8799z" />
    <glyph glyph-name="uni0448" unicode="&#x448;" horiz-adv-x="754" 
d="M689.87 0h-625.409l88.3301 500.91h84.8799l-76.54 -434.08h185.39l76.54 434.08h84.8799l-76.54 -434.08h185.37l76.54 434.08h84.8799z" />
    <glyph glyph-name="uni0449" unicode="&#x449;" horiz-adv-x="789" 
d="M701.74 67.3203h71.0996l-32.7402 -185.32h-78.0801l20.8701 118h-618.43l88.3301 500.91h84.8799l-76.54 -434.08h185.37l76.54 434.08h84.9004l-76.4902 -433.82h185.37l76.4902 433.82h84.8799z" />
    <glyph glyph-name="uni044C" unicode="&#x44c;" horiz-adv-x="487" 
d="M202.95 304.7h132.84c64.0898 0 139.71 -37.6904 139.71 -126.99c0 -9.87012 -0.929688 -20.3799 -2.88965 -31.5303c-18.6699 -105.87 -114.31 -146.18 -181.01 -146.18h-227.14l88.2197 500.28h84.75zM191.01 237.04l-29.9805 -170.07h122.05
c33.75 0 96.1699 16.5596 108.37 85.79c1.15039 6.49023 1.68066 12.5 1.68066 18.0703c0 53.25 -48.75 66.21 -79.2998 66.21h-122.82z" />
    <glyph glyph-name="uni044A" unicode="&#x44a;" horiz-adv-x="546" 
d="M262.11 304.7h132.84c64.0801 0 139.7 -37.6904 139.7 -126.99c0 -9.87012 -0.919922 -20.3799 -2.88965 -31.5303c-18.6699 -105.87 -114.31 -146.18 -181 -146.18h-227.37l75.3398 427.23h-117.02l12.8799 73.0498h202zM250.17 237.04l-29.9893 -170.07h122.06
c33.7402 0 96.1602 16.5596 108.37 85.79c1.13965 6.49023 1.67969 12.5 1.67969 18.0703c0 53.25 -48.75 66.21 -79.2998 66.21h-122.82z" />
    <glyph glyph-name="uni044B" unicode="&#x44b;" horiz-adv-x="660" 
d="M202.95 304.7h132.84c64.0898 0 139.71 -37.6904 139.71 -126.99c0 -9.87012 -0.929688 -20.3799 -2.88965 -31.5303c-18.6699 -105.87 -114.31 -146.18 -181.01 -146.18h-227.14l88.2197 500.28h84.75zM595.98 0h-84.7598l88.2197 500.28h84.75zM191.011 237.04
l-29.9902 -170.07h122.06c33.7402 0 96.1602 16.5596 108.37 85.79c1.15039 6.49023 1.68066 12.5 1.68066 18.0703c0 53.25 -48.75 66.21 -79.2998 66.21h-122.82z" />
    <glyph glyph-name="uni044D" unicode="&#x44d;" horiz-adv-x="453" 
d="M185.85 410.27l-62.0391 35.0195c42.5498 44.7402 95.8496 70.3301 165.17 70.3301c108.31 0 173.34 -56.9102 173.34 -158.24c0 -15.3398 -1.49023 -31.7002 -4.5498 -49.0303l-20.7305 -117.55c-24.6904 -140.06 -112.131 -193.81 -237.801 -193.81
c-72.5098 0 -116.979 27.79 -142.249 66.21l66.8203 24.6504c21.9502 -15.5098 48.0801 -21.5098 76.7598 -21.5098c79.2598 0 134.29 29.5703 151.9 126.801l6.34961 35.5303h-163.26l9.67969 54.8896h163.29l6.34961 35.9697
c2.21973 13.1201 3.2793 25.1104 3.2793 36.0303c0 63.2695 -35.8301 90.3193 -90.5 90.3193c-35.8896 0 -71.3799 -13.7803 -101.81 -35.6104z" />
    <glyph glyph-name="uni044E" unicode="&#x44e;" horiz-adv-x="690" 
d="M295.34 284.33l6.84961 38.501c21.5098 104.53 83.4199 168.74 180.56 184.33c15.3701 2.46973 31.6299 3.71973 48.7402 3.71973c113.59 0 171.38 -61.8604 171.38 -156.46c0 -15.0098 -1.45996 -30.8398 -4.37012 -47.3701l-21.2305 -120.41
c-17.2803 -98.0098 -83.8799 -195.649 -227.31 -195.649c-126.14 0 -174.26 75 -174.26 158.97c0 10.9404 0.80957 22.0303 2.37988 33.1299l5.61035 34.1396h-96.0303l-38.2998 -217.19h-84.8799l88.4199 501.49h84.8799l-38.2998 -217.2h95.8604zM593.43 190.291
l21.2305 120.41c2.32031 13.1396 3.4707 25.4199 3.4707 36.7803c0 59.5703 -31.6699 93.8398 -93.0703 93.8398c-78.2803 0 -124.7 -44.2998 -140.061 -131.38l-21.2305 -120.41c-1.99023 -11.2998 -3.04004 -22.3701 -3.04004 -32.9902
c0 -53.79 27.0303 -95.7998 95.7002 -95.7998c82.4502 0 124.88 60.7803 137 129.55z" />
    <glyph glyph-name="uni044F" unicode="&#x44f;" horiz-adv-x="513" 
d="M448.85 0l-84.752 -0.0107422l34.4902 195.58h-104.85l-154.24 -195.58h-89.8496l170.11 210.71l-5.12988 1.90039c-34.3398 11.9805 -88.3096 41.75 -88.3096 113.1c0 8.82031 0.830078 18.2705 2.61035 28.4004c18.6699 105.86 114.31 146.181 181 146.181h227.14z
M440.508 433.31l-122.061 0.0107422c-33.7402 0 -96.1602 -16.5703 -108.37 -85.8008c-1.13965 -6.48047 -1.67969 -12.4902 -1.67969 -18.0605c0 -53.2598 48.75 -66.2197 79.2998 -66.2197h122.82z" />
    <glyph glyph-name="Delta" unicode="&#x394;" horiz-adv-x="833" 
 />
    <glyph glyph-name="Omega" unicode="&#x3a9;" horiz-adv-x="833" 
 />
    <glyph glyph-name="mu" unicode="&#x3bc;" horiz-adv-x="833" 
 />
    <glyph glyph-name="pi" unicode="&#x3c0;" horiz-adv-x="127" 
 />
    <glyph glyph-name="zero" unicode="0" horiz-adv-x="573" 
d="M98.1201 199.34l52.959 300.318c25.5596 144.95 127.05 215.141 257.63 215.141c126.41 0 192.521 -68.3701 192.521 -172.54c0 -15.7695 -1.50977 -32.3496 -4.55957 -49.6494l-52.7998 -299.44c-27.2695 -154.64 -152.199 -204.17 -252.979 -204.17
c-93.8301 0 -196.82 44.8701 -196.82 166.44c0 13.6504 1.2998 28.2705 4.0498 43.9004zM459.889 199.178l51.9795 294.81c2.40039 13.5898 3.59082 26.2998 3.59082 38.0898c0 66.7197 -38.3398 103.92 -114.64 103.92c-87.8701 0 -148.771 -44.0801 -166.021 -141.92
l-52.1396 -295.67c-1.94043 -11.0098 -2.85059 -21.1797 -2.85059 -30.5693c0 -74.4502 57.5898 -99.5498 118.54 -99.5498c70.04 0 144.17 32.4199 161.54 130.89z" />
    <glyph glyph-name="one" unicode="1" horiz-adv-x="346" 
d="M264.93 0l-80.3115 -0.000976562l102.02 568.57c-19.4102 -18.5801 -40.6504 -31.0996 -62.6699 -40.5195c-27.2998 -10.21 -54.8896 -15.0703 -78.6094 -17.46l-12.2803 80.9902c30.0596 4.00977 64.5498 15.4697 95.6602 32.9395
c35.6904 18.8799 65.8506 42.8301 86.251 75.4805h73.3604z" />
    <glyph glyph-name="two" unicode="2" horiz-adv-x="485" 
d="M223.98 529.49l-79.4697 29.4512c47.4902 93.7402 116.46 151.74 230.08 151.74c101.85 0 165.59 -67.3799 165.59 -159.39c0 -12.1201 -1.09961 -24.6602 -3.36914 -37.54c-9.28027 -52.5898 -37.3799 -105.72 -82.75 -151.67l-272.12 -284.19h278.02l-13.7402 -77.9004
h-402.8l9.59961 60.2598l326.28 344c53.79 55.5801 77.1396 100.68 77.1396 145.51c0 48.9502 -33.2803 82.1201 -84.7803 82.1201c-80.96 0 -120.67 -45.4902 -147.68 -102.391z" />
    <glyph glyph-name="three" unicode="3" horiz-adv-x="517" 
d="M232.36 558.96l-70.8809 36.8477c30.8301 52.6699 102.12 114.89 194.74 114.89c98.1396 0 169.199 -61.1602 169.199 -157.25c0 -11.9805 -1.09961 -24.5 -3.39941 -37.5195c-12.7305 -72.1904 -66.6904 -121.46 -118.221 -145.43
c45.1699 -18.96 89.2197 -68.3604 89.2197 -142.44c0 -11.25 -1.01953 -23.0596 -3.19922 -35.4199c-22.5098 -127.68 -129.2 -204.64 -250.57 -204.64c-102.29 0 -159.59 57.7803 -182.52 105.391l70.4805 38.0303c18.6699 -39.6699 61.8799 -64.1396 114.979 -64.1396
c79.5098 0 150.45 60.1104 164.431 139.4c1.25 7.09961 1.86035 14.0596 1.86035 20.8496c0 61.4404 -49.6504 108.221 -118.61 108.221h-53.75l12.5303 71.0498h48.25c70.8896 0 144.59 62.2998 144.59 139.42c0 50.6504 -34.4404 86 -88.1602 86
c-59.2695 0 -103.27 -42.2402 -120.97 -73.2598z" />
    <glyph glyph-name="four" unicode="4" horiz-adv-x="516" 
d="M458.8 252.65h58.1699l-13.2803 -75.2998h-58.1699l-31.2695 -177.36h-84.8701l31.2695 177.36h-295.73l12.2305 75.2998l369.82 447.56h90.7402zM165.29 252.65h208.63l56.8203 316.45z" />
    <glyph glyph-name="five" unicode="5" horiz-adv-x="524" 
d="M524.14 621.2l-225.301 0.00683594l-52.2598 -182.23h74.9404c104.12 -2.38965 190.53 -75.6494 190.53 -186.999c0 -13.0098 -1.17969 -26.5293 -3.64941 -40.5293c-22.7002 -128.77 -134.75 -223.449 -268.02 -223.449c-97.5801 0 -159.96 58.9404 -182.11 107.7
l70.3896 37.4404c17.4297 -40.25 66.0596 -65.8301 114.659 -65.8301c92.9805 0 166.811 72.6699 181.751 153.07c1.38965 8.28027 2.08984 16.5 2.08984 24.5596c0 62.4805 -41.75 115.45 -122.79 115.45h-155.21l99.0303 339.86h289.89z" />
    <glyph glyph-name="six" unicode="6" horiz-adv-x="579" 
d="M105.43 216.65l43.4492 246.439c22.0303 124.94 124.021 247.271 293.501 247.271c90.7402 0 148.03 -41.5195 174.73 -67.5596l-58.0195 -55.1797c-21.9902 22.2598 -64.8506 43.9395 -121.751 43.9395c-130.4 0 -195.601 -96.5596 -207.541 -169.27l-21.6299 -105.41
c49.3701 62.71 115.521 81.25 163.171 81.25c114.89 0 192.939 -80.8203 192.939 -189.021c0 -13.5098 -1.20996 -27.4502 -3.72949 -41.71c-21.5596 -122.3 -136.89 -219.399 -261.779 -219.399c-116.51 0 -196.83 82.4697 -196.83 189.47
c0 12.75 1.13965 25.8398 3.48926 39.1797zM364.148 359.26c-88.4199 0 -158.701 -66.3809 -175.471 -151.871c-1.63965 -9.30957 -2.43945 -18.3896 -2.43945 -27.1592c0 -64.9004 43.8701 -112.94 115.46 -112.94c96.0703 0 178.62 82.7402 178.62 179.78
c0 65.0801 -44.1201 112.19 -116.17 112.19z" />
    <glyph glyph-name="seven" unicode="7" horiz-adv-x="485" 
d="M561.71 641.61l-435.8 -641.61h-85.7803l421.3 620.62h-317.95l14 79.3799h413.57z" />
    <glyph glyph-name="eight" unicode="8" horiz-adv-x="563" 
d="M402.44 710.7c98.1504 0 169.213 -61.1689 169.213 -157.249c0 -11.9805 -1.11035 -24.5107 -3.40039 -37.5205c-12.7305 -72.1904 -66.6904 -121.471 -118.221 -145.44c45.1602 -18.9502 89.21 -68.3506 89.21 -142.44c0 -11.2402 -1.00977 -23.0605 -3.18945 -35.4209
c-22.5195 -127.68 -129.21 -204.64 -250.57 -204.64c-112.16 0 -192.41 65.5801 -192.41 174.04c0 13.6504 1.26953 27.9805 3.90918 42.9404c15.5596 88.2197 82.1797 148.5 149.069 173.54c-32.9902 18.0898 -68.1904 59.2598 -68.1904 120.12
c0 9.41016 0.839844 19.2998 2.66992 29.6396c19.6104 111.24 116.44 182.431 221.91 182.431zM399.583 632.222c-67.04 0 -125.831 -51.7305 -137.821 -119.69c-1.05957 -6.00977 -1.55957 -11.8496 -1.55957 -17.4795c0 -50.71 40.96 -85.2803 88.6104 -85.2803
c66.9502 0 138.931 58.6904 138.931 136.44c0 50.6602 -34.4404 86.0098 -88.1602 86.0098zM346.172 332.582c-84.75 0 -167.501 -73.0898 -167.501 -161.82c0 -60.8398 44.4502 -103.479 109.76 -103.479c79.5098 0 150.45 60.1104 164.431 139.4
c1.29004 7.28027 1.90039 14.3799 1.90039 21.2695c0 60.6699 -47.7803 104.63 -108.59 104.63z" />
    <glyph glyph-name="nine" unicode="9" horiz-adv-x="579" 
d="M473.14 236.5l21.6299 105.411c-49.3799 -62.7002 -115.52 -81.2402 -163.17 -81.2402c-114.89 0 -192.939 80.8203 -192.939 189.021c0 13.5098 1.20996 27.4502 3.72949 41.71c21.5596 122.29 136.89 218.97 261.779 218.97c116.51 0 196.83 -82.1299 196.83 -189.07
c0 -12.7305 -1.13965 -25.8203 -3.48926 -39.1602l-43.46 -246.44c-22.0303 -124.95 -124.021 -247.7 -293.501 -247.7c-90.7402 0 -148.03 41.9404 -174.721 67.9902l58.0195 55.1699c21.9902 -22.2598 64.8506 -43.9395 121.751 -43.9395
c130.4 0 195.601 96.5596 207.541 169.279zM401.239 631.501c-96.0703 0 -178.63 -82.7402 -178.63 -179.78c0 -65.0801 44.1201 -112.18 116.17 -112.18c88.4199 0 158.71 66.3701 175.47 151.86c1.65039 9.30957 2.4502 18.3896 2.4502 27.1592
c0 64.9004 -43.8799 112.94 -115.46 112.94z" />
    <glyph glyph-name="zero.lf" horiz-adv-x="573" 
d="M98.1201 199.34l52.959 300.318c25.5596 144.95 127.05 215.141 257.63 215.141c126.41 0 192.521 -68.3701 192.521 -172.54c0 -15.7695 -1.50977 -32.3496 -4.55957 -49.6494l-52.7998 -299.44c-27.2695 -154.64 -152.199 -204.17 -252.979 -204.17
c-93.8301 0 -196.82 44.8701 -196.82 166.44c0 13.6504 1.2998 28.2705 4.0498 43.9004zM459.889 199.178l51.9795 294.81c2.40039 13.5898 3.59082 26.2998 3.59082 38.0898c0 66.7197 -38.3398 103.92 -114.64 103.92c-87.8701 0 -148.771 -44.0801 -166.021 -141.92
l-52.1396 -295.67c-1.94043 -11.0098 -2.85059 -21.1797 -2.85059 -30.5693c0 -74.4502 57.5898 -99.5498 118.54 -99.5498c70.04 0 144.17 32.4199 161.54 130.89z" />
    <glyph glyph-name="one.lf" horiz-adv-x="346" 
d="M264.93 0h-80.3096l102.02 568.57c-19.75 -18.2305 -39.6104 -30.7002 -60.0303 -40.1602c-26.8799 -10.7598 -54.0098 -15.3896 -81.25 -17.8193l-12.29 80.9902c31.3701 4.08984 66.9004 16.1895 98.46 34.4092c34.5498 18.7598 64.04 42.0996 84.0898 74.0098h72.7305
z" />
    <glyph glyph-name="two.lf" horiz-adv-x="485" 
d="M223.98 529.49l-79.4697 29.4512c47.4902 93.7402 116.46 151.74 230.08 151.74c101.85 0 165.59 -67.3799 165.59 -159.39c0 -12.1201 -1.09961 -24.6602 -3.36914 -37.54c-9.28027 -52.5898 -37.3799 -105.72 -82.75 -151.67l-272.12 -284.19h278.02l-13.7402 -77.9004
h-402.8l9.59961 60.2598l326.28 344c53.79 55.5801 77.1396 100.68 77.1396 145.51c0 48.9502 -33.2803 82.1201 -84.7803 82.1201c-80.96 0 -120.67 -45.4902 -147.68 -102.391z" />
    </font>
</defs>
</svg>
